{"glyphs":{"0":{"ha":755,"x_min":14,"x_max":631,"o":"m 293 957 q 293 961 293 957 q 302 966 293 966 q 312 957 312 966 q 302 948 312 948 q 293 957 293 948 m 369 944 q 369 949 369 944 q 378 954 369 954 q 388 944 388 954 q 378 935 388 935 q 369 944 369 935 m 218 939 q 218 944 218 939 q 227 948 218 948 q 236 939 236 948 q 227 930 236 930 q 218 939 218 930 m 435 906 q 435 911 435 906 q 445 916 435 916 q 454 906 454 916 q 445 897 454 897 q 435 906 435 897 m 156 895 q 156 900 156 895 q 165 905 156 905 q 174 895 174 905 q 165 886 174 886 q 156 895 156 886 m 491 852 q 491 857 491 852 q 500 861 491 861 q 509 852 509 861 q 500 842 509 842 q 491 852 491 842 m 107 834 q 107 839 107 834 q 117 844 107 844 q 126 834 126 844 q 117 825 126 825 q 107 834 107 825 m 534 788 q 534 793 534 788 q 543 798 534 798 q 552 788 552 798 q 543 779 552 779 q 534 788 534 779 m 72 766 q 72 770 72 766 q 81 774 72 774 q 91 766 91 774 q 81 757 91 757 q 72 766 72 757 m 567 718 q 567 723 567 718 q 576 727 567 727 q 586 718 586 727 q 576 709 586 709 q 567 718 567 709 m 46 693 q 46 698 46 693 q 56 703 46 703 q 65 693 65 703 q 56 684 65 684 q 46 693 46 684 m 590 644 q 590 649 590 644 q 600 654 590 654 q 609 644 609 654 q 600 635 609 635 q 590 644 590 635 m 27 618 q 27 622 27 618 q 37 627 27 627 q 46 618 46 627 q 37 609 46 609 q 27 618 27 609 m 605 568 q 605 573 605 568 q 614 578 605 578 q 624 568 624 578 q 614 559 624 559 q 605 568 605 559 m 16 541 q 16 546 16 541 q 26 551 16 551 q 35 541 35 551 q 26 532 35 532 q 16 541 16 532 m 612 492 q 612 496 612 492 q 621 500 612 500 q 631 492 631 500 q 621 483 631 483 q 612 492 612 483 m 14 480 q 14 485 14 480 q 22 490 14 490 q 31 480 31 490 q 22 471 31 471 q 14 480 14 471 m 610 414 q 610 419 610 414 q 620 423 610 423 q 629 414 629 423 q 620 406 629 406 q 610 414 610 406 m 16 403 q 16 408 16 403 q 26 412 16 412 q 35 403 35 412 q 26 393 35 393 q 16 403 16 393 m 600 338 q 600 342 600 338 q 609 347 600 347 q 618 338 618 347 q 609 328 618 328 q 600 338 600 328 m 28 327 q 28 332 28 327 q 38 336 28 336 q 47 327 47 336 q 38 317 47 317 q 28 327 28 317 m 581 263 q 581 268 581 263 q 590 273 581 273 q 600 263 600 273 q 590 254 600 254 q 581 263 581 254 m 50 252 q 50 257 50 252 q 60 262 50 262 q 69 252 69 262 q 60 243 69 243 q 50 252 50 243 m 551 191 q 551 196 551 191 q 560 201 551 201 q 570 191 570 201 q 560 182 570 182 q 551 191 551 182 m 80 182 q 80 186 80 182 q 90 191 80 191 q 99 182 99 191 q 90 172 99 172 q 80 182 80 172 m 510 126 q 510 131 510 126 q 519 136 510 136 q 529 126 529 136 q 519 117 529 117 q 510 126 510 117 m 121 116 q 121 120 121 116 q 130 125 121 125 q 140 116 140 125 q 130 107 140 107 q 121 116 121 107 m 458 69 q 458 74 458 69 q 467 79 458 79 q 476 69 476 79 q 467 60 476 60 q 458 69 458 60 m 175 60 q 175 65 175 60 q 184 69 175 69 q 193 60 193 69 q 184 52 193 52 q 175 60 175 52 m 393 28 q 393 33 393 28 q 403 38 393 38 q 412 28 412 38 q 403 19 412 19 q 393 28 393 19 m 241 23 q 241 28 241 23 q 251 33 241 33 q 260 23 260 33 q 251 14 260 14 q 241 23 241 14 m 319 12 q 319 17 319 12 q 328 22 319 22 q 336 12 336 22 q 328 3 336 3 q 319 12 319 3 z "},"1":{"ha":305,"x_min":14,"x_max":180,"o":"m 117 936 q 117 941 117 936 q 126 945 117 945 q 136 936 136 945 q 126 926 136 926 q 117 936 117 926 m 161 926 q 161 931 161 926 q 171 936 161 936 q 180 926 180 936 q 171 917 180 917 q 161 926 161 917 m 68 876 q 68 881 68 876 q 77 886 68 886 q 87 876 87 886 q 77 867 87 867 q 68 876 68 867 m 160 849 q 160 854 160 849 q 170 859 160 859 q 179 849 179 859 q 170 840 179 840 q 160 849 160 840 m 14 823 q 14 827 14 823 q 22 831 14 831 q 31 823 31 831 q 22 814 31 814 q 14 823 14 814 m 160 772 q 160 777 160 772 q 169 781 160 781 q 178 772 178 781 q 169 762 178 762 q 160 772 160 762 m 159 694 q 159 699 159 694 q 168 704 159 704 q 178 694 178 704 q 168 685 178 685 q 159 694 159 685 m 157 617 q 157 622 157 617 q 167 627 157 627 q 176 617 176 627 q 167 608 176 608 q 157 617 157 608 m 156 540 q 156 545 156 540 q 165 549 156 549 q 174 540 174 549 q 165 530 174 530 q 156 540 156 530 m 155 463 q 155 467 155 463 q 163 472 155 472 q 172 463 172 472 q 163 453 172 453 q 155 463 155 453 m 152 385 q 152 390 152 385 q 161 395 152 395 q 171 385 171 395 q 161 376 171 376 q 152 385 152 376 m 152 308 q 152 313 152 308 q 161 317 152 317 q 170 308 170 317 q 161 298 170 298 q 152 308 152 298 m 151 231 q 151 235 151 231 q 160 240 151 240 q 170 231 170 240 q 160 221 170 221 q 151 231 151 221 m 151 153 q 151 158 151 153 q 160 163 151 163 q 170 153 170 163 q 160 144 170 144 q 151 153 151 144 m 151 76 q 151 81 151 76 q 160 85 151 85 q 170 76 170 85 q 160 66 170 66 q 151 76 151 66 z "},"2":{"ha":578,"x_min":14,"x_max":452,"o":"m 244 962 q 244 966 244 962 q 254 971 244 971 q 263 962 263 971 q 254 952 263 952 q 244 962 244 952 m 168 956 q 168 960 168 956 q 177 964 168 964 q 186 956 186 964 q 177 947 186 947 q 168 956 168 947 m 319 941 q 319 946 319 941 q 328 951 319 951 q 338 941 338 951 q 328 932 338 932 q 319 941 319 932 m 96 926 q 96 930 96 926 q 106 935 96 935 q 115 926 115 935 q 106 917 115 917 q 96 926 96 917 m 377 892 q 377 897 377 892 q 387 902 377 902 q 396 892 396 902 q 387 883 396 883 q 377 892 377 883 m 42 872 q 42 877 42 872 q 52 882 42 882 q 61 872 61 882 q 52 863 61 863 q 42 872 42 863 m 414 825 q 414 829 414 825 q 423 834 414 834 q 433 825 433 834 q 423 815 433 815 q 414 825 414 815 m 28 798 q 28 802 28 798 q 37 807 28 807 q 46 798 46 807 q 37 788 46 788 q 28 798 28 788 m 429 749 q 429 753 429 749 q 438 758 429 758 q 448 749 448 758 q 438 739 448 739 q 429 749 429 739 m 430 671 q 430 676 430 671 q 439 681 430 681 q 449 671 449 681 q 439 662 449 662 q 430 671 430 662 m 420 595 q 420 599 420 595 q 430 604 420 604 q 439 595 439 604 q 430 586 439 586 q 420 595 420 586 m 404 519 q 404 524 404 519 q 413 529 404 529 q 422 519 422 529 q 413 510 422 510 q 404 519 404 510 m 373 449 q 373 454 373 449 q 382 458 373 458 q 391 449 391 458 q 382 439 391 439 q 373 449 373 439 m 330 385 q 330 389 330 385 q 339 393 330 393 q 349 385 349 393 q 339 376 349 376 q 330 385 330 376 m 279 326 q 279 330 279 326 q 289 335 279 335 q 298 326 298 335 q 289 316 298 316 q 279 326 279 316 m 225 271 q 225 276 225 271 q 235 281 225 281 q 244 271 244 281 q 235 262 244 262 q 225 271 225 262 m 168 220 q 168 224 168 220 q 177 229 168 229 q 186 220 186 229 q 177 210 186 210 q 168 220 168 210 m 110 168 q 110 172 110 168 q 119 176 110 176 q 129 168 129 176 q 119 159 129 159 q 110 168 110 159 m 56 113 q 56 118 56 113 q 65 122 56 122 q 75 113 75 122 q 65 104 75 104 q 56 113 56 104 m 14 49 q 14 54 14 49 q 22 58 14 58 q 31 49 31 58 q 22 39 31 39 q 14 49 14 39 m 279 26 q 279 31 279 26 q 289 35 279 35 q 298 26 298 35 q 289 16 298 16 q 279 26 279 16 m 202 24 q 202 29 202 24 q 212 34 202 34 q 221 24 221 34 q 212 15 221 15 q 202 24 202 15 m 357 24 q 357 28 357 24 q 366 33 357 33 q 376 24 376 33 q 366 15 376 15 q 357 24 357 15 m 125 20 q 125 25 125 20 q 134 30 125 30 q 144 20 144 30 q 134 11 144 11 q 125 20 125 11 m 47 16 q 47 21 47 16 q 57 26 47 26 q 66 16 66 26 q 57 7 66 7 q 47 16 47 7 m 434 16 q 434 21 434 16 q 443 26 434 26 q 452 16 452 26 q 443 7 452 7 q 434 16 434 7 z "},"3":{"ha":589,"x_min":14,"x_max":464,"o":"m 297 957 q 297 961 297 957 q 307 966 297 966 q 316 957 316 966 q 307 948 316 948 q 297 957 297 948 m 374 952 q 374 957 374 952 q 384 962 374 962 q 393 952 393 962 q 384 943 393 943 q 374 952 374 943 m 221 949 q 221 953 221 949 q 230 958 221 958 q 239 949 239 958 q 230 940 239 940 q 221 949 221 940 m 66 944 q 66 949 66 944 q 76 954 66 954 q 85 944 85 954 q 76 935 85 935 q 66 944 66 935 m 144 941 q 144 945 144 941 q 153 949 144 949 q 163 941 163 949 q 153 932 163 932 q 144 941 144 932 m 425 901 q 425 905 425 901 q 433 910 425 910 q 442 901 442 910 q 433 891 442 891 q 425 901 425 891 m 411 825 q 411 829 411 825 q 420 834 411 834 q 430 825 430 834 q 420 815 430 815 q 411 825 411 815 m 365 763 q 365 767 365 763 q 374 772 365 772 q 384 763 384 772 q 374 754 384 754 q 365 763 365 754 m 309 709 q 309 713 309 709 q 319 718 309 718 q 328 709 328 718 q 319 700 328 700 q 309 709 309 700 m 251 659 q 251 663 251 659 q 260 667 251 667 q 270 659 270 667 q 260 650 270 650 q 251 659 251 650 m 191 609 q 191 614 191 609 q 201 618 191 618 q 210 609 210 618 q 201 600 210 600 q 191 609 191 600 m 275 575 q 275 580 275 575 q 285 585 275 585 q 294 575 294 585 q 285 566 294 566 q 275 575 275 566 m 199 568 q 199 573 199 568 q 208 578 199 578 q 217 568 217 578 q 208 559 217 559 q 199 568 199 559 m 138 553 q 138 558 138 553 q 148 563 138 563 q 157 553 157 563 q 148 544 157 544 q 138 553 138 544 m 349 551 q 349 556 349 551 q 358 560 349 560 q 368 551 368 560 q 358 543 368 543 q 349 551 349 543 m 403 498 q 403 503 403 498 q 412 507 403 507 q 422 498 422 507 q 412 488 422 488 q 403 498 403 488 m 434 427 q 434 432 434 427 q 444 437 434 437 q 453 427 453 437 q 444 418 453 418 q 434 427 434 418 m 445 351 q 445 356 445 351 q 454 361 445 361 q 464 351 464 361 q 454 342 464 342 q 445 351 445 342 m 439 274 q 439 279 439 274 q 449 283 439 283 q 458 274 458 283 q 449 264 458 264 q 439 274 439 264 m 419 199 q 419 204 419 199 q 429 209 419 209 q 438 199 438 209 q 429 190 438 190 q 419 199 419 190 m 385 130 q 385 135 385 130 q 394 140 385 140 q 403 130 403 140 q 394 121 403 121 q 385 130 385 121 m 14 127 q 14 131 14 127 q 22 136 14 136 q 31 127 31 136 q 22 118 31 118 q 14 127 14 118 m 334 73 q 334 78 334 73 q 343 83 334 83 q 353 73 353 83 q 343 64 353 64 q 334 73 334 64 m 56 68 q 56 73 56 68 q 64 77 56 77 q 73 68 73 77 q 64 58 73 58 q 56 68 56 58 m 269 31 q 269 36 269 31 q 278 41 269 41 q 288 31 288 41 q 278 22 288 22 q 269 31 269 22 m 118 24 q 118 29 118 24 q 127 34 118 34 q 137 24 137 34 q 127 15 137 15 q 118 24 118 15 m 194 12 q 194 17 194 12 q 203 22 194 22 q 213 12 213 22 q 203 3 213 3 q 194 12 194 3 z "},"4":{"ha":582,"x_min":14,"x_max":456,"o":"m 243 945 q 243 950 243 945 q 252 955 243 955 q 262 945 262 955 q 252 936 262 936 q 243 945 243 936 m 218 872 q 218 877 218 872 q 227 882 218 882 q 236 872 236 882 q 227 863 236 863 q 218 872 218 863 m 193 799 q 193 804 193 799 q 202 808 193 808 q 212 799 212 808 q 202 789 212 789 q 193 799 193 789 m 167 726 q 167 730 167 726 q 176 735 167 735 q 186 726 186 735 q 176 716 186 716 q 167 726 167 716 m 140 654 q 140 659 140 654 q 149 663 140 663 q 159 654 159 663 q 149 644 159 644 q 140 654 140 644 m 111 582 q 111 587 111 582 q 121 591 111 591 q 130 582 130 591 q 121 572 130 572 q 111 582 111 572 m 81 511 q 81 515 81 511 q 90 519 81 519 q 99 511 99 519 q 90 502 99 502 q 81 511 81 502 m 437 469 q 437 474 437 469 q 446 479 437 479 q 456 469 456 479 q 446 460 456 460 q 437 469 437 460 m 49 441 q 49 446 49 441 q 58 450 49 450 q 66 441 66 450 q 58 431 66 431 q 49 441 49 431 m 437 392 q 437 397 437 392 q 446 401 437 401 q 456 392 456 401 q 446 382 456 382 q 437 392 437 382 m 14 372 q 14 376 14 372 q 22 381 14 381 q 31 372 31 381 q 22 362 31 362 q 14 372 14 362 m 247 354 q 247 359 247 354 q 256 363 247 363 q 266 354 266 363 q 256 345 266 345 q 247 354 247 345 m 324 354 q 324 359 324 354 q 334 363 324 363 q 343 354 343 363 q 334 345 343 345 q 324 354 324 345 m 401 350 q 401 355 401 350 q 411 359 401 359 q 420 350 420 359 q 411 340 420 340 q 401 350 401 340 m 170 349 q 170 354 170 349 q 179 358 170 358 q 189 349 189 358 q 179 340 189 340 q 170 349 170 340 m 94 340 q 94 345 94 340 q 102 350 94 350 q 111 340 111 350 q 102 331 111 331 q 94 340 94 331 m 16 332 q 16 337 16 332 q 26 342 16 342 q 35 332 35 342 q 26 323 35 323 q 16 332 16 323 m 437 315 q 437 319 437 315 q 446 324 437 324 q 456 315 456 324 q 446 305 456 305 q 437 315 437 305 m 437 237 q 437 242 437 237 q 446 247 437 247 q 456 237 456 247 q 446 228 456 228 q 437 237 437 228 m 437 160 q 437 165 437 160 q 446 170 437 170 q 456 160 456 170 q 446 151 456 151 q 437 160 437 151 m 437 83 q 437 87 437 83 q 446 92 437 92 q 456 83 456 92 q 446 73 456 73 q 437 83 437 73 m 437 14 q 437 18 437 14 q 446 23 437 23 q 456 14 456 23 q 446 4 456 4 q 437 14 437 4 z "},"5":{"ha":643,"x_min":14,"x_max":518,"o":"m 159 952 q 159 957 159 952 q 168 962 159 962 q 178 952 178 962 q 168 943 178 943 q 159 952 159 943 m 236 952 q 236 957 236 952 q 245 962 236 962 q 255 952 255 962 q 245 943 255 943 q 236 952 236 943 m 313 951 q 313 956 313 951 q 323 960 313 960 q 332 951 332 960 q 323 941 332 941 q 313 951 313 941 m 468 950 q 468 955 468 950 q 477 959 468 959 q 487 950 487 959 q 477 941 487 941 q 468 950 468 941 m 391 949 q 391 954 391 949 q 400 959 391 959 q 410 949 410 959 q 400 940 410 940 q 391 949 391 940 m 81 948 q 81 953 81 948 q 91 958 81 958 q 100 948 100 958 q 91 939 100 939 q 81 948 81 939 m 35 909 q 35 914 35 909 q 44 918 35 918 q 53 909 53 918 q 44 901 53 901 q 35 909 35 901 m 30 832 q 30 837 30 832 q 39 841 30 841 q 47 832 47 841 q 39 823 47 823 q 30 832 30 823 m 22 755 q 22 760 22 755 q 31 765 22 765 q 41 755 41 765 q 31 746 41 746 q 22 755 22 746 m 19 678 q 19 683 19 678 q 28 688 19 688 q 38 678 38 688 q 28 669 38 669 q 19 678 19 669 m 260 648 q 260 653 260 648 q 270 658 260 658 q 279 648 279 658 q 270 639 279 639 q 260 648 260 639 m 184 637 q 184 641 184 637 q 193 646 184 646 q 202 637 202 646 q 193 628 202 628 q 184 637 184 628 m 334 627 q 334 631 334 627 q 343 636 334 636 q 353 627 353 636 q 343 617 353 617 q 334 627 334 617 m 42 606 q 42 610 42 606 q 51 614 42 614 q 60 606 60 614 q 51 597 60 597 q 42 606 42 597 m 115 603 q 115 607 115 603 q 125 612 115 612 q 134 603 134 612 q 125 594 134 594 q 115 603 115 594 m 395 579 q 395 584 395 579 q 404 589 395 589 q 414 579 414 589 q 404 570 414 570 q 395 579 395 570 m 441 518 q 441 523 441 518 q 450 528 441 528 q 460 518 460 528 q 450 509 460 509 q 441 518 441 509 m 475 448 q 475 453 475 448 q 484 457 475 457 q 492 448 492 457 q 484 439 492 439 q 475 448 475 439 m 494 374 q 494 378 494 374 q 503 382 494 382 q 513 374 513 382 q 503 365 513 365 q 494 374 494 365 m 499 296 q 499 301 499 296 q 509 305 499 305 q 518 296 518 305 q 509 288 518 288 q 499 296 499 288 m 488 220 q 488 224 488 220 q 498 229 488 229 q 507 220 507 229 q 498 210 507 210 q 488 220 488 210 m 458 149 q 458 154 458 149 q 468 159 458 159 q 477 149 477 159 q 468 140 477 140 q 458 149 458 140 m 14 128 q 14 133 14 128 q 22 137 14 137 q 31 128 31 137 q 22 119 31 119 q 14 128 14 119 m 411 89 q 411 93 411 89 q 420 98 411 98 q 430 89 430 98 q 420 80 430 80 q 411 89 411 80 m 58 75 q 58 79 58 75 q 67 84 58 84 q 76 75 76 84 q 67 65 76 65 q 58 75 58 65 m 347 45 q 347 50 347 45 q 357 54 347 54 q 366 45 366 54 q 357 35 366 35 q 347 45 347 35 m 123 34 q 123 39 123 34 q 132 43 123 43 q 141 34 141 43 q 132 24 141 24 q 123 34 123 24 m 275 20 q 275 24 275 20 q 284 28 275 28 q 293 20 293 28 q 284 11 293 11 q 275 20 275 11 m 198 16 q 198 20 198 16 q 207 24 198 24 q 216 16 216 24 q 207 7 216 7 q 198 16 198 7 z "},"6":{"ha":670,"x_min":14,"x_max":544,"o":"m 336 954 q 336 958 336 954 q 345 963 336 963 q 354 954 354 963 q 345 944 354 944 q 336 954 336 944 m 259 949 q 259 954 259 949 q 268 959 259 959 q 277 949 277 959 q 268 940 277 940 q 259 949 259 940 m 408 928 q 408 932 408 928 q 418 937 408 937 q 427 928 427 937 q 418 918 427 918 q 408 928 408 918 m 189 917 q 189 922 189 917 q 198 926 189 926 q 208 917 208 926 q 198 907 208 907 q 189 917 189 907 m 471 883 q 471 888 471 883 q 480 892 471 892 q 490 883 490 892 q 480 873 490 873 q 471 883 471 873 m 132 865 q 132 870 132 865 q 141 875 132 875 q 151 865 151 875 q 141 856 151 856 q 132 865 132 856 m 87 803 q 87 808 87 803 q 96 812 87 812 q 106 803 106 812 q 96 793 106 793 q 87 803 87 793 m 53 733 q 53 738 53 733 q 62 742 53 742 q 72 733 72 742 q 62 724 72 724 q 53 733 53 724 m 30 660 q 30 664 30 660 q 39 669 30 669 q 47 660 47 669 q 39 651 47 651 q 30 660 30 651 m 16 584 q 16 588 16 584 q 25 593 16 593 q 34 584 34 593 q 25 575 34 575 q 16 584 16 575 m 331 540 q 331 545 331 540 q 340 549 331 549 q 350 540 350 549 q 340 530 350 530 q 331 540 331 530 m 254 530 q 254 535 254 530 q 263 540 254 540 q 273 530 273 540 q 263 521 273 521 q 254 530 254 521 m 404 519 q 404 524 404 519 q 414 529 404 529 q 423 519 423 529 q 414 510 423 510 q 404 519 404 510 m 14 506 q 14 511 14 506 q 22 515 14 515 q 31 506 31 515 q 22 496 31 496 q 14 506 14 496 m 182 506 q 182 511 182 506 q 191 515 182 515 q 199 506 199 515 q 191 496 199 496 q 182 506 182 496 m 461 467 q 461 472 461 467 q 470 476 461 476 q 479 467 479 476 q 470 458 479 458 q 461 467 461 458 m 118 462 q 118 466 118 462 q 127 471 118 471 q 137 462 137 471 q 127 453 137 453 q 118 462 118 453 m 16 429 q 16 434 16 429 q 26 438 16 438 q 35 429 35 438 q 26 420 35 420 q 16 429 16 420 m 72 400 q 72 405 72 400 q 81 410 72 410 q 91 400 91 410 q 81 391 91 391 q 72 400 72 391 m 498 400 q 498 405 498 400 q 507 410 498 410 q 517 400 517 410 q 507 391 517 391 q 498 400 498 391 m 24 353 q 24 357 24 353 q 34 362 24 362 q 43 353 43 362 q 34 343 43 343 q 24 353 24 343 m 45 328 q 45 333 45 328 q 54 338 45 338 q 64 328 64 338 q 54 319 64 319 q 45 328 45 319 m 519 326 q 519 330 519 326 q 529 335 519 335 q 538 326 538 335 q 529 316 538 316 q 519 326 519 316 m 38 276 q 38 280 38 276 q 47 285 38 285 q 56 276 56 285 q 47 267 56 267 q 38 276 38 267 m 525 249 q 525 253 525 249 q 534 258 525 258 q 544 249 544 258 q 534 240 544 240 q 525 249 525 240 m 58 201 q 58 206 58 201 q 68 210 58 210 q 77 201 77 210 q 68 193 77 193 q 58 201 58 193 m 513 172 q 513 177 513 172 q 522 182 513 182 q 532 172 532 182 q 522 163 532 163 q 513 172 513 163 m 90 131 q 90 135 90 131 q 99 140 90 140 q 109 131 109 140 q 99 122 109 122 q 90 131 90 122 m 479 104 q 479 108 479 104 q 488 113 479 113 q 496 104 496 113 q 488 95 496 95 q 479 104 479 95 m 136 69 q 136 74 136 69 q 144 79 136 79 q 153 69 153 79 q 144 60 153 60 q 136 69 136 60 m 422 52 q 422 56 422 52 q 431 61 422 61 q 441 52 441 61 q 431 42 441 42 q 422 52 422 42 m 199 26 q 199 31 199 26 q 208 35 199 35 q 217 26 217 35 q 208 18 217 18 q 199 26 199 18 m 351 22 q 351 27 351 22 q 360 31 351 31 q 369 22 369 31 q 360 14 369 14 q 351 22 351 14 m 274 12 q 274 17 274 12 q 283 22 274 22 q 293 12 293 22 q 283 3 293 3 q 274 12 274 3 z "},"7":{"ha":608,"x_min":14,"x_max":481,"o":"m 244 955 q 244 960 244 955 q 254 964 244 964 q 263 955 263 964 q 254 945 263 945 q 244 955 244 945 m 167 955 q 167 960 167 955 q 176 964 167 964 q 186 955 186 964 q 176 945 186 945 q 167 955 167 945 m 321 955 q 321 960 321 955 q 331 964 321 964 q 340 955 340 964 q 331 945 340 945 q 321 955 321 945 m 399 953 q 399 957 399 953 q 408 962 399 962 q 418 953 418 962 q 408 944 418 944 q 399 953 399 944 m 90 951 q 90 956 90 951 q 99 960 90 960 q 109 951 109 960 q 99 943 109 943 q 90 951 90 943 m 14 944 q 14 949 14 944 q 22 954 14 954 q 31 944 31 954 q 22 935 31 935 q 14 944 14 935 m 464 943 q 464 947 464 943 q 473 952 464 952 q 481 943 481 952 q 473 933 481 933 q 464 943 464 933 m 429 874 q 429 879 429 874 q 438 883 429 883 q 448 874 448 883 q 438 865 448 865 q 429 874 429 865 m 391 807 q 391 812 391 807 q 400 817 391 817 q 410 807 410 817 q 400 798 410 798 q 391 807 391 798 m 351 740 q 351 744 351 740 q 361 749 351 749 q 370 740 370 749 q 361 731 370 731 q 351 740 351 731 m 312 674 q 312 679 312 674 q 321 684 312 684 q 331 674 331 684 q 321 665 331 665 q 312 674 312 665 m 273 608 q 273 612 273 608 q 281 617 273 617 q 290 608 290 617 q 281 598 290 598 q 273 608 273 598 m 233 541 q 233 545 233 541 q 243 549 233 549 q 252 541 252 549 q 243 532 252 532 q 233 541 233 532 m 197 473 q 197 477 197 473 q 206 481 197 481 q 216 473 216 481 q 206 464 216 464 q 197 473 197 464 m 164 403 q 164 408 164 403 q 173 412 164 412 q 182 403 182 412 q 173 393 182 393 q 164 403 164 393 m 137 330 q 137 334 137 330 q 146 339 137 339 q 156 330 156 339 q 146 320 156 320 q 137 330 137 320 m 118 255 q 118 260 118 255 q 127 264 118 264 q 136 255 136 264 q 127 245 136 245 q 118 255 118 245 m 104 179 q 104 184 104 179 q 113 189 104 189 q 122 179 122 189 q 113 170 122 170 q 104 179 104 170 m 95 102 q 95 107 95 102 q 104 111 95 111 q 114 102 114 111 q 104 94 114 94 q 95 102 95 94 m 90 25 q 90 30 90 25 q 99 34 90 34 q 109 25 109 34 q 99 16 109 16 q 90 25 90 16 z "},"8":{"ha":678,"x_min":14,"x_max":553,"o":"m 229 957 q 229 961 229 957 q 239 966 229 966 q 248 957 248 966 q 239 948 248 948 q 229 957 229 948 m 307 952 q 307 957 307 952 q 316 962 307 962 q 326 952 326 962 q 316 943 326 943 q 307 952 307 943 m 153 945 q 153 950 153 945 q 163 955 153 955 q 172 945 172 955 q 163 936 172 936 q 153 945 153 936 m 381 929 q 381 934 381 929 q 390 939 381 939 q 399 929 399 939 q 390 920 399 920 q 381 929 381 920 m 83 915 q 83 919 83 915 q 92 924 83 924 q 102 915 102 924 q 92 906 102 906 q 83 915 83 906 m 435 877 q 435 881 435 877 q 445 886 435 886 q 454 877 454 886 q 445 868 454 868 q 435 877 435 868 m 28 861 q 28 865 28 861 q 38 869 28 869 q 47 861 47 869 q 38 852 47 852 q 28 861 28 852 m 458 804 q 458 808 458 804 q 468 812 458 812 q 477 804 477 812 q 468 795 477 795 q 458 804 458 795 m 14 785 q 14 790 14 785 q 22 795 14 795 q 31 785 31 795 q 22 776 31 776 q 14 785 14 776 m 457 726 q 457 731 457 726 q 467 735 457 735 q 476 726 476 735 q 467 718 476 718 q 457 726 457 718 m 35 712 q 35 717 35 712 q 45 722 35 722 q 54 712 54 722 q 45 703 54 703 q 35 712 35 703 m 83 652 q 83 656 83 652 q 92 661 83 661 q 102 652 102 661 q 92 643 102 643 q 83 652 83 643 m 441 651 q 441 656 441 651 q 450 661 441 661 q 458 651 458 661 q 450 642 458 642 q 441 651 441 642 m 144 604 q 144 608 144 604 q 153 613 144 613 q 161 604 161 613 q 153 594 161 594 q 144 604 144 594 m 146 583 q 146 588 146 583 q 156 593 146 593 q 165 583 165 593 q 156 574 165 574 q 146 583 146 574 m 411 579 q 411 584 411 579 q 420 589 411 589 q 430 579 430 589 q 420 570 430 570 q 411 579 411 570 m 210 564 q 210 569 210 564 q 219 574 210 574 q 228 564 228 574 q 219 555 228 555 q 210 564 210 555 m 278 528 q 278 532 278 528 q 288 537 278 537 q 297 528 297 537 q 288 518 297 518 q 278 528 278 518 m 107 517 q 107 522 107 517 q 117 526 107 526 q 126 517 126 526 q 117 507 126 507 q 107 517 107 507 m 372 513 q 372 518 372 513 q 381 522 372 522 q 391 513 391 522 q 381 505 391 505 q 372 513 372 505 m 347 492 q 347 497 347 492 q 356 502 347 502 q 365 492 365 502 q 356 483 365 483 q 347 492 347 483 m 414 453 q 414 458 414 453 q 422 463 414 463 q 431 453 431 463 q 422 444 431 444 q 414 453 414 444 m 72 448 q 72 452 72 448 q 81 457 72 457 q 90 448 90 457 q 81 438 90 438 q 72 448 72 438 m 473 404 q 473 409 473 404 q 483 414 473 414 q 492 404 492 414 q 483 395 492 395 q 473 404 473 395 m 42 377 q 42 382 42 377 q 51 387 42 387 q 60 377 60 387 q 51 368 60 368 q 42 377 42 368 m 518 342 q 518 347 518 342 q 528 351 518 351 q 537 342 537 351 q 528 332 537 332 q 518 342 518 332 m 22 302 q 22 307 22 302 q 31 312 22 312 q 39 302 39 312 q 31 293 39 293 q 22 302 22 293 m 534 267 q 534 272 534 267 q 544 277 534 277 q 553 267 553 277 q 544 258 553 258 q 534 267 534 258 m 16 225 q 16 230 16 225 q 26 235 16 235 q 35 225 35 235 q 26 216 35 216 q 16 225 16 216 m 521 191 q 521 196 521 191 q 530 201 521 201 q 540 191 540 201 q 530 182 540 182 q 521 191 521 182 m 31 149 q 31 154 31 149 q 40 159 31 159 q 49 149 49 159 q 40 140 49 140 q 31 149 31 140 m 480 126 q 480 131 480 126 q 489 136 480 136 q 498 126 498 136 q 489 117 498 117 q 480 126 480 117 m 68 82 q 68 86 68 82 q 77 91 68 91 q 85 82 85 91 q 77 73 85 73 q 68 82 68 73 m 422 76 q 422 81 422 76 q 431 85 422 85 q 439 76 439 85 q 431 66 439 66 q 422 76 422 66 m 353 39 q 353 44 353 39 q 362 49 353 49 q 372 39 372 49 q 362 30 372 30 q 353 39 353 30 m 127 35 q 127 39 127 35 q 137 43 127 43 q 146 35 146 43 q 137 26 146 26 q 127 35 127 26 m 279 18 q 279 23 279 18 q 288 27 279 27 q 297 18 297 27 q 288 9 297 9 q 279 18 279 9 m 202 15 q 202 20 202 15 q 211 24 202 24 q 220 15 220 24 q 211 5 220 5 q 202 15 202 5 z "},"9":{"ha":648,"x_min":14,"x_max":522,"o":"m 275 958 q 275 962 275 958 q 285 967 275 967 q 294 958 294 967 q 285 948 294 948 q 275 958 275 948 m 199 947 q 199 951 199 947 q 209 956 199 956 q 218 947 218 956 q 209 937 218 937 q 199 947 199 937 m 351 943 q 351 948 351 943 q 361 952 351 952 q 370 943 370 952 q 361 935 370 935 q 351 943 351 935 m 129 916 q 129 920 129 916 q 138 925 129 925 q 148 916 148 925 q 138 906 148 906 q 129 916 129 906 m 414 899 q 414 904 414 899 q 423 909 414 909 q 433 899 433 909 q 423 890 433 890 q 414 899 414 890 m 72 863 q 72 868 72 863 q 81 872 72 872 q 91 863 91 872 q 81 854 91 854 q 72 863 72 854 m 457 835 q 457 839 457 835 q 466 844 457 844 q 475 835 475 844 q 466 826 475 826 q 457 835 457 826 m 33 798 q 33 802 33 798 q 42 807 33 807 q 52 798 52 807 q 42 788 52 788 q 33 798 33 788 m 483 762 q 483 767 483 762 q 492 772 483 772 q 502 762 502 772 q 492 753 502 753 q 483 762 483 753 m 14 723 q 14 728 14 723 q 22 732 14 732 q 31 723 31 732 q 22 713 31 713 q 14 723 14 713 m 498 686 q 498 691 498 686 q 507 696 498 696 q 517 686 517 696 q 507 677 517 677 q 498 686 498 677 m 14 646 q 14 650 14 646 q 23 655 14 655 q 33 646 33 655 q 23 636 33 636 q 14 646 14 636 m 505 610 q 505 614 505 610 q 513 618 505 618 q 522 610 522 618 q 513 601 522 601 q 505 610 505 601 m 34 571 q 34 576 34 571 q 43 581 34 581 q 53 571 53 581 q 43 562 53 562 q 34 571 34 562 m 499 524 q 499 528 499 524 q 508 533 499 533 q 517 524 517 533 q 508 514 517 514 q 499 524 499 514 m 75 505 q 75 510 75 505 q 83 514 75 514 q 92 505 92 514 q 83 496 92 496 q 75 505 75 496 m 430 479 q 430 484 430 479 q 439 488 430 488 q 449 479 449 488 q 439 471 449 471 q 430 479 430 471 m 132 456 q 132 460 132 456 q 141 465 132 465 q 151 456 151 465 q 141 446 151 446 q 132 456 132 446 m 498 455 q 498 459 498 455 q 507 464 498 464 q 515 455 515 464 q 507 446 515 446 q 498 455 498 446 m 358 451 q 358 455 358 451 q 368 460 358 460 q 377 451 377 460 q 368 442 377 442 q 358 451 358 442 m 283 434 q 283 439 283 434 q 292 444 283 444 q 301 434 301 444 q 292 425 301 425 q 283 434 283 425 m 206 433 q 206 437 206 433 q 215 442 206 442 q 224 433 224 442 q 215 423 224 423 q 206 433 206 423 m 487 378 q 487 383 487 378 q 496 388 487 388 q 506 378 506 388 q 496 369 506 369 q 487 378 487 369 m 472 302 q 472 307 472 302 q 481 312 472 312 q 491 302 491 312 q 481 293 491 293 q 472 302 472 293 m 450 229 q 450 233 450 229 q 460 237 450 237 q 469 229 469 237 q 460 220 469 220 q 450 229 450 220 m 420 157 q 420 162 420 157 q 430 167 420 167 q 439 157 439 167 q 430 148 439 148 q 420 157 420 148 m 66 132 q 66 137 66 132 q 76 141 66 141 q 85 132 85 141 q 76 123 85 123 q 66 132 66 123 m 378 92 q 378 97 378 92 q 388 102 378 102 q 397 92 397 102 q 388 83 397 83 q 378 92 378 83 m 113 75 q 113 80 113 75 q 121 84 113 84 q 130 75 130 84 q 121 66 130 66 q 113 75 113 66 m 323 40 q 323 44 323 40 q 332 49 323 49 q 340 40 340 49 q 332 31 340 31 q 323 40 323 31 m 175 31 q 175 35 175 31 q 184 39 175 39 q 193 31 193 39 q 184 22 193 22 q 175 31 175 22 m 250 16 q 250 21 250 16 q 259 26 250 26 q 269 16 269 26 q 259 7 269 7 q 250 16 250 7 z "}," ":{"ha":244,"x_min":0,"x_max":0,"o":""},"!":{"ha":164,"x_min":14,"x_max":39,"o":"m 16 1022 q 16 1026 16 1022 q 26 1031 16 1031 q 35 1022 35 1031 q 26 1013 35 1013 q 16 1022 16 1013 m 19 945 q 19 949 19 945 q 28 954 19 954 q 38 945 38 954 q 28 936 38 936 q 19 945 19 936 m 20 867 q 20 872 20 867 q 30 876 20 876 q 39 867 39 876 q 30 859 39 859 q 20 867 20 859 m 20 790 q 20 794 20 790 q 30 799 20 799 q 39 790 39 799 q 30 781 39 781 q 20 790 20 781 m 19 713 q 19 717 19 713 q 28 722 19 722 q 38 713 38 722 q 28 704 38 704 q 19 713 19 704 m 18 635 q 18 640 18 635 q 27 644 18 644 q 37 635 37 644 q 27 627 37 627 q 18 635 18 627 m 16 558 q 16 563 16 558 q 25 567 16 567 q 34 558 34 567 q 25 549 34 549 q 16 558 16 549 m 15 481 q 15 486 15 481 q 24 491 15 491 q 33 481 33 491 q 24 472 33 472 q 15 481 15 472 m 14 404 q 14 409 14 404 q 22 414 14 414 q 31 404 31 414 q 22 395 31 395 q 14 404 14 395 m 14 327 q 14 332 14 327 q 22 336 14 336 q 31 327 31 336 q 22 317 31 317 q 14 327 14 317 m 15 250 q 15 254 15 250 q 24 259 15 259 q 33 250 33 259 q 24 240 33 240 q 15 250 15 240 m 16 43 q 16 48 16 43 q 25 53 16 53 q 34 43 34 53 q 25 34 34 34 q 16 43 16 34 z "},"\"":{"ha":182,"x_min":14,"x_max":125,"o":"m 14 949 q 14 954 14 949 q 22 959 14 959 q 31 949 31 959 q 22 940 31 940 q 14 949 14 940 m 106 949 q 106 954 106 949 q 115 959 106 959 q 125 949 125 959 q 115 940 125 940 q 106 949 106 940 m 14 872 q 14 877 14 872 q 22 882 14 882 q 31 872 31 882 q 22 863 31 863 q 14 872 14 863 m 106 872 q 106 877 106 872 q 115 882 106 882 q 125 872 125 882 q 115 863 125 863 q 106 872 106 863 m 14 795 q 14 800 14 795 q 22 804 14 804 q 31 795 31 804 q 22 785 31 785 q 14 795 14 785 m 106 795 q 106 800 106 795 q 115 804 106 804 q 125 795 125 804 q 115 785 125 785 q 106 795 106 785 z "},"#":{"ha":996,"x_min":14,"x_max":869,"o":"m 677 949 q 677 954 677 949 q 686 959 677 959 q 694 949 694 959 q 686 940 694 940 q 677 949 677 940 m 355 915 q 355 919 355 915 q 365 924 355 924 q 374 915 374 924 q 365 906 374 906 q 355 915 355 906 m 662 873 q 662 878 662 873 q 671 883 662 883 q 680 873 680 883 q 671 864 680 864 q 662 873 662 864 m 336 840 q 336 844 336 840 q 346 849 336 849 q 355 840 355 849 q 346 830 355 830 q 336 840 336 830 m 643 799 q 643 804 643 799 q 652 808 643 808 q 661 799 661 808 q 652 789 661 789 q 643 799 643 789 m 316 765 q 316 770 316 765 q 326 774 316 774 q 335 765 335 774 q 326 755 335 755 q 316 765 316 755 m 776 724 q 776 728 776 724 q 785 732 776 732 q 795 724 795 732 q 785 715 795 715 q 776 724 776 715 m 621 722 q 621 727 621 722 q 631 731 621 731 q 640 722 640 731 q 631 713 640 713 q 621 722 621 713 m 699 722 q 699 727 699 722 q 708 731 699 731 q 718 722 718 731 q 708 713 718 713 q 699 722 699 713 m 850 722 q 850 727 850 722 q 860 731 850 731 q 869 722 869 731 q 860 713 869 713 q 850 722 850 713 m 81 720 q 81 725 81 720 q 91 730 81 730 q 100 720 100 730 q 91 711 100 711 q 81 720 81 711 m 544 715 q 544 720 544 715 q 553 724 544 724 q 563 715 563 724 q 553 705 563 705 q 544 715 544 705 m 467 711 q 467 715 467 711 q 476 720 467 720 q 486 711 486 720 q 476 701 486 701 q 467 711 467 701 m 157 710 q 157 714 157 710 q 167 719 157 719 q 176 710 176 719 q 167 701 176 701 q 157 710 157 701 m 389 707 q 389 711 389 707 q 399 716 389 716 q 408 707 408 716 q 399 697 408 697 q 389 707 389 697 m 235 705 q 235 710 235 705 q 244 715 235 715 q 254 705 254 715 q 244 696 254 696 q 235 705 235 696 m 312 705 q 312 709 312 705 q 321 713 312 713 q 331 705 331 713 q 321 696 331 696 q 312 705 312 696 m 294 691 q 294 695 294 691 q 304 700 294 700 q 313 691 313 700 q 304 682 313 682 q 294 691 294 682 m 600 650 q 600 655 600 650 q 608 659 600 659 q 617 650 617 659 q 608 642 617 642 q 600 650 600 642 m 273 617 q 273 622 273 617 q 282 627 273 627 q 292 617 292 627 q 282 608 292 608 q 273 617 273 608 m 575 576 q 575 581 575 576 q 585 586 575 586 q 594 576 594 586 q 585 567 594 567 q 575 576 575 567 m 250 543 q 250 548 250 543 q 259 552 250 552 q 269 543 269 552 q 259 534 269 534 q 250 543 250 534 m 551 503 q 551 508 551 503 q 560 513 551 513 q 570 503 570 513 q 560 494 570 494 q 551 503 551 494 m 227 469 q 227 474 227 469 q 236 479 227 479 q 245 469 245 479 q 236 460 245 460 q 227 469 227 460 m 525 430 q 525 435 525 430 q 534 439 525 439 q 544 430 544 439 q 534 420 544 420 q 525 430 525 420 m 203 396 q 203 401 203 396 q 213 406 203 406 q 222 396 222 406 q 213 387 222 387 q 203 396 203 387 m 499 357 q 499 362 499 357 q 509 366 499 366 q 518 357 518 366 q 509 349 518 349 q 499 357 499 349 m 14 326 q 14 330 14 326 q 22 335 14 335 q 31 326 31 335 q 22 316 31 316 q 14 326 14 316 m 91 326 q 91 330 91 326 q 100 335 91 335 q 109 326 109 335 q 100 316 109 316 q 91 326 91 316 m 245 326 q 245 330 245 326 q 254 335 245 335 q 263 326 263 335 q 254 316 263 316 q 245 326 245 316 m 323 326 q 323 330 323 326 q 332 335 323 335 q 340 326 340 335 q 332 316 340 316 q 323 326 323 316 m 400 326 q 400 330 400 326 q 409 335 400 335 q 418 326 418 335 q 409 316 418 316 q 400 326 400 316 m 477 326 q 477 330 477 326 q 486 335 477 335 q 495 326 495 335 q 486 316 495 316 q 477 326 477 316 m 555 326 q 555 330 555 326 q 564 335 555 335 q 572 326 572 335 q 564 316 572 316 q 555 326 555 316 m 632 326 q 632 330 632 326 q 641 335 632 335 q 650 326 650 335 q 641 316 650 316 q 632 326 632 316 m 709 326 q 709 330 709 326 q 718 335 709 335 q 727 326 727 335 q 718 316 727 316 q 709 326 709 316 m 175 323 q 175 328 175 323 q 184 332 175 332 q 194 323 194 332 q 184 313 194 313 q 175 323 175 313 m 473 285 q 473 290 473 285 q 483 294 473 294 q 492 285 492 294 q 483 275 492 275 q 473 285 473 275 m 157 248 q 157 253 157 248 q 167 258 157 258 q 176 248 176 258 q 167 239 176 239 q 157 248 157 239 m 448 212 q 448 216 448 212 q 457 221 448 221 q 467 212 467 221 q 457 202 467 202 q 448 212 448 202 m 134 174 q 134 179 134 174 q 144 183 134 183 q 153 174 153 183 q 144 165 153 165 q 134 174 134 165 m 422 138 q 422 143 422 138 q 431 148 422 148 q 441 138 441 148 q 431 129 441 129 q 422 138 422 129 m 113 100 q 113 105 113 100 q 122 110 113 110 q 132 100 132 110 q 122 91 132 91 q 113 100 113 91 m 397 65 q 397 70 397 65 q 407 75 397 75 q 416 65 416 75 q 407 56 416 56 q 397 65 397 56 m 92 26 q 92 31 92 26 q 102 35 92 35 q 111 26 111 35 q 102 16 111 16 q 92 26 92 16 z "},"$":{"ha":639,"x_min":14,"x_max":567,"o":"m 315 1027 q 315 1031 315 1027 q 323 1036 315 1036 q 332 1027 332 1036 q 323 1017 332 1017 q 315 1027 315 1017 m 332 953 q 332 957 332 953 q 342 962 332 962 q 351 953 351 962 q 342 944 351 944 q 332 953 332 944 m 304 950 q 304 955 304 950 q 313 959 304 959 q 323 950 323 959 q 313 941 323 941 q 304 950 304 941 m 256 943 q 256 947 256 943 q 265 952 256 952 q 274 943 274 952 q 265 933 274 933 q 256 943 256 933 m 407 933 q 407 938 407 933 q 416 943 407 943 q 425 933 425 943 q 416 924 425 924 q 407 933 407 924 m 186 911 q 186 915 186 911 q 195 920 186 920 q 203 911 203 920 q 195 902 203 902 q 186 911 186 902 m 463 881 q 463 885 463 881 q 471 890 463 890 q 480 881 480 890 q 471 872 480 872 q 463 881 463 872 m 298 873 q 298 878 298 873 q 308 883 298 883 q 317 873 317 883 q 308 864 317 864 q 298 873 298 864 m 125 864 q 125 869 125 864 q 134 873 125 873 q 142 864 142 873 q 134 854 142 854 q 125 864 125 854 m 76 804 q 76 809 76 804 q 85 814 76 814 q 94 804 94 814 q 85 795 94 795 q 76 804 76 795 m 296 796 q 296 801 296 796 q 305 806 296 806 q 315 796 315 806 q 305 787 315 787 q 296 796 296 787 m 46 734 q 46 739 46 734 q 56 743 46 743 q 65 734 65 743 q 56 724 65 724 q 46 734 46 724 m 296 719 q 296 724 296 719 q 305 728 296 728 q 315 719 315 728 q 305 709 315 709 q 296 719 296 709 m 50 656 q 50 661 50 656 q 60 666 50 666 q 69 656 69 666 q 60 647 69 647 q 50 656 50 647 m 298 642 q 298 646 298 642 q 307 651 298 651 q 316 642 316 651 q 307 632 316 632 q 298 642 298 632 m 91 591 q 91 596 91 591 q 100 601 91 601 q 109 591 109 601 q 100 582 109 582 q 91 591 91 582 m 301 564 q 301 569 301 564 q 310 574 301 574 q 319 564 319 574 q 310 555 319 555 q 301 564 301 555 m 152 546 q 152 550 152 546 q 161 555 152 555 q 171 546 171 555 q 161 537 171 537 q 152 546 152 537 m 224 516 q 224 520 224 516 q 233 525 224 525 q 243 516 243 525 q 233 507 243 507 q 224 516 224 507 m 300 490 q 300 495 300 490 q 309 499 300 499 q 319 490 319 499 q 309 481 319 481 q 300 490 300 481 m 370 468 q 370 473 370 468 q 380 477 370 477 q 389 468 389 477 q 380 458 389 458 q 370 468 370 458 m 442 437 q 442 442 442 437 q 451 446 442 446 q 460 437 460 446 q 451 429 460 429 q 442 437 442 429 m 308 410 q 308 414 308 410 q 317 419 308 419 q 326 410 326 419 q 317 400 326 400 q 308 410 308 400 m 506 394 q 506 398 506 394 q 515 403 506 403 q 524 394 524 403 q 515 385 524 385 q 506 394 506 385 m 311 332 q 311 337 311 332 q 320 342 311 342 q 330 332 330 342 q 320 323 330 323 q 311 332 311 323 m 547 330 q 547 334 547 330 q 555 339 547 339 q 564 330 564 339 q 555 320 564 320 q 547 330 547 320 m 313 255 q 313 260 313 255 q 322 264 313 264 q 331 255 331 264 q 322 245 331 245 q 313 255 313 245 m 548 252 q 548 257 548 252 q 557 262 548 262 q 567 252 567 262 q 557 243 567 243 q 548 252 548 243 m 14 237 q 14 241 14 237 q 22 245 14 245 q 31 237 31 245 q 22 228 31 228 q 14 237 14 228 m 521 180 q 521 185 521 180 q 530 190 521 190 q 540 180 540 190 q 530 171 540 171 q 521 180 521 171 m 313 178 q 313 182 313 178 q 323 187 313 187 q 332 178 332 187 q 323 168 332 168 q 313 178 313 168 m 27 161 q 27 165 27 161 q 36 170 27 170 q 45 161 45 170 q 36 152 45 152 q 27 161 27 152 m 475 119 q 475 124 475 119 q 484 129 475 129 q 494 119 494 129 q 484 110 494 110 q 475 119 475 110 m 313 100 q 313 105 313 100 q 323 110 313 110 q 332 100 332 110 q 323 91 332 91 q 313 100 313 91 m 61 92 q 61 97 61 92 q 71 102 61 102 q 80 92 80 102 q 71 83 80 83 q 61 92 61 83 m 414 72 q 414 77 414 72 q 423 81 414 81 q 433 72 433 81 q 423 62 433 62 q 414 72 414 62 m 119 42 q 119 47 119 42 q 129 52 119 52 q 138 42 138 52 q 129 33 138 33 q 119 42 119 33 m 345 37 q 345 42 345 37 q 354 46 345 46 q 363 37 363 46 q 354 28 363 28 q 345 37 345 28 m 309 23 q 309 28 309 23 q 319 33 309 33 q 328 23 328 33 q 319 14 328 14 q 309 23 309 14 m 270 19 q 270 24 270 19 q 279 28 270 28 q 289 19 289 28 q 279 9 289 9 q 270 19 270 9 m 193 19 q 193 24 193 19 q 202 28 193 28 q 212 19 212 28 q 202 9 212 9 q 193 19 193 9 m 302 -54 q 302 -50 302 -54 q 312 -45 302 -45 q 321 -54 321 -45 q 312 -64 321 -64 q 302 -54 302 -64 z "},"%":{"ha":895,"x_min":14,"x_max":770,"o":"m 655 1028 q 655 1033 655 1028 q 665 1038 655 1038 q 674 1028 674 1038 q 665 1019 674 1019 q 655 1028 655 1019 m 175 1006 q 175 1011 175 1006 q 184 1016 175 1016 q 194 1006 194 1016 q 184 997 194 997 q 175 1006 175 997 m 102 991 q 102 996 102 991 q 111 1001 102 1001 q 119 991 119 1001 q 111 982 119 982 q 102 991 102 982 m 239 964 q 239 969 239 964 q 248 974 239 974 q 258 964 258 974 q 248 955 258 955 q 239 964 239 955 m 631 960 q 631 965 631 960 q 640 970 631 970 q 650 960 650 970 q 640 951 650 951 q 631 960 631 951 m 53 932 q 53 937 53 932 q 62 941 53 941 q 72 932 72 941 q 62 922 72 922 q 53 932 53 922 m 278 899 q 278 903 278 899 q 287 907 278 907 q 296 899 296 907 q 287 890 296 890 q 278 899 278 890 m 598 891 q 598 896 598 891 q 607 901 598 901 q 616 891 616 901 q 607 882 616 882 q 598 891 598 882 m 26 860 q 26 865 26 860 q 35 869 26 869 q 43 860 43 869 q 35 850 43 850 q 26 860 26 850 m 290 831 q 290 835 290 831 q 300 840 290 840 q 309 831 309 840 q 300 822 309 822 q 290 831 290 822 m 560 823 q 560 828 560 823 q 570 833 560 833 q 579 823 579 833 q 570 814 579 814 q 560 823 560 814 m 14 784 q 14 789 14 784 q 22 793 14 793 q 31 784 31 793 q 22 774 31 774 q 14 784 14 774 m 519 757 q 519 762 519 757 q 529 766 519 766 q 538 757 538 766 q 529 747 538 747 q 519 757 519 747 m 292 753 q 292 758 292 753 q 301 762 292 762 q 311 753 311 762 q 301 745 311 745 q 292 753 292 745 m 16 707 q 16 711 16 707 q 26 716 16 716 q 35 707 35 716 q 26 697 35 697 q 16 707 16 697 m 479 692 q 479 696 479 692 q 488 701 479 701 q 498 692 498 701 q 488 682 498 682 q 479 692 479 682 m 283 677 q 283 682 283 677 q 293 686 283 686 q 302 677 302 686 q 293 667 302 667 q 283 677 283 667 m 37 632 q 37 637 37 632 q 45 642 37 642 q 54 632 54 642 q 45 623 54 623 q 37 632 37 623 m 438 625 q 438 630 438 625 q 448 635 438 635 q 457 625 457 635 q 448 616 457 616 q 438 625 438 616 m 259 604 q 259 608 259 604 q 269 613 259 613 q 278 604 278 613 q 269 594 278 594 q 259 604 259 594 m 75 564 q 75 569 75 564 q 83 574 75 574 q 92 564 92 574 q 83 555 92 555 q 75 564 75 555 m 400 558 q 400 563 400 558 q 410 567 400 567 q 419 558 419 567 q 410 549 419 549 q 400 558 400 549 m 629 549 q 629 554 629 549 q 639 559 629 559 q 648 549 648 559 q 639 540 648 540 q 629 549 629 540 m 210 545 q 210 550 210 545 q 220 555 210 555 q 229 545 229 555 q 220 536 229 536 q 210 545 210 536 m 137 524 q 137 528 137 524 q 146 533 137 533 q 156 524 156 533 q 146 514 156 514 q 137 524 137 514 m 701 524 q 701 528 701 524 q 711 533 701 533 q 720 524 720 533 q 711 514 720 514 q 701 524 701 514 m 560 522 q 560 526 560 522 q 569 530 560 530 q 578 522 578 530 q 569 513 578 513 q 560 522 560 513 m 368 488 q 368 493 368 488 q 376 498 368 498 q 385 488 385 498 q 376 479 385 479 q 368 488 368 479 m 743 460 q 743 465 743 460 q 752 469 743 469 q 761 460 761 469 q 752 450 761 450 q 743 460 743 450 m 518 457 q 518 462 518 457 q 528 467 518 467 q 537 457 537 467 q 528 448 537 448 q 518 457 518 448 m 334 418 q 334 423 334 418 q 343 427 334 427 q 353 418 353 427 q 343 410 353 410 q 334 418 334 410 m 495 384 q 495 389 495 384 q 505 393 495 393 q 514 384 514 393 q 505 374 514 374 q 495 384 495 374 m 750 383 q 750 388 750 383 q 760 392 750 392 q 769 383 769 392 q 760 374 769 374 q 750 383 750 374 m 298 350 q 298 355 298 350 q 308 359 298 359 q 317 350 317 359 q 308 340 317 340 q 298 350 298 340 m 486 307 q 486 312 486 307 q 494 316 486 316 q 503 307 503 316 q 494 298 503 298 q 486 307 486 298 m 751 306 q 751 310 751 306 q 761 315 751 315 q 770 306 770 315 q 761 297 770 297 q 751 306 751 297 m 260 283 q 260 287 260 283 q 269 292 260 292 q 278 283 278 292 q 269 274 278 274 q 260 283 260 274 m 486 229 q 486 234 486 229 q 495 239 486 239 q 505 229 505 239 q 495 220 505 220 q 486 229 486 220 m 750 228 q 750 233 750 228 q 759 237 750 237 q 768 228 768 237 q 759 218 768 218 q 750 228 750 218 m 220 217 q 220 222 220 217 q 229 227 220 227 q 239 217 239 227 q 229 208 239 208 q 220 217 220 208 m 500 154 q 500 158 500 154 q 509 163 500 163 q 518 154 518 163 q 509 145 518 145 q 500 154 500 145 m 735 153 q 735 157 735 153 q 744 161 735 161 q 753 153 753 161 q 744 144 753 144 q 735 153 735 144 m 179 151 q 179 156 179 151 q 189 160 179 160 q 198 151 198 160 q 189 142 198 142 q 179 151 179 142 m 693 89 q 693 93 693 89 q 703 98 693 98 q 712 89 712 98 q 703 80 712 80 q 693 89 693 80 m 537 87 q 537 92 537 87 q 547 96 537 96 q 556 87 556 96 q 547 77 556 77 q 537 87 537 77 m 138 86 q 138 91 138 86 q 147 95 138 95 q 156 86 156 95 q 147 77 156 77 q 138 86 138 77 m 616 60 q 616 65 616 60 q 625 69 616 69 q 633 60 633 69 q 625 52 633 52 q 616 60 616 52 m 96 21 q 96 25 96 21 q 105 30 96 30 q 114 21 114 30 q 105 12 114 12 q 96 21 96 12 z "},"&":{"ha":817,"x_min":14,"x_max":690,"o":"m 343 1029 q 343 1034 343 1029 q 353 1039 343 1039 q 362 1029 362 1039 q 353 1020 362 1020 q 343 1029 343 1020 m 420 1022 q 420 1026 420 1022 q 430 1031 420 1031 q 439 1022 439 1031 q 430 1013 439 1013 q 420 1022 420 1013 m 269 1014 q 269 1018 269 1014 q 278 1023 269 1023 q 288 1014 288 1023 q 278 1005 288 1005 q 269 1014 269 1005 m 492 993 q 492 998 492 993 q 501 1002 492 1002 q 510 993 510 1002 q 501 983 510 983 q 492 993 492 983 m 205 972 q 205 976 205 972 q 214 981 205 981 q 222 972 222 981 q 214 963 222 963 q 205 972 205 963 m 544 937 q 544 942 544 937 q 553 947 544 947 q 563 937 563 947 q 553 928 563 928 q 544 937 544 928 m 163 907 q 163 912 163 907 q 172 917 163 917 q 182 907 182 917 q 172 898 182 898 q 163 907 163 898 m 552 861 q 552 866 552 861 q 562 871 552 871 q 571 861 571 871 q 562 852 571 852 q 552 861 552 852 m 156 831 q 156 835 156 831 q 165 840 156 840 q 175 831 175 840 q 165 822 175 822 q 156 831 156 822 m 528 789 q 528 793 528 789 q 537 798 528 798 q 547 789 547 798 q 537 780 547 780 q 528 789 528 780 m 175 756 q 175 761 175 756 q 184 765 175 765 q 194 756 194 765 q 184 747 194 747 q 175 756 175 747 m 483 727 q 483 732 483 727 q 492 736 483 736 q 500 727 500 736 q 492 718 500 718 q 483 727 483 718 m 209 687 q 209 691 209 687 q 218 696 209 696 q 228 687 228 696 q 218 678 228 678 q 209 687 209 678 m 425 675 q 425 680 425 675 q 433 685 425 685 q 442 675 442 685 q 433 666 442 666 q 425 675 425 666 m 361 632 q 361 637 361 632 q 370 642 361 642 q 378 632 378 642 q 370 623 378 623 q 361 632 361 623 m 251 622 q 251 626 251 622 q 260 631 251 631 q 270 622 270 631 q 260 613 270 613 q 251 622 251 613 m 294 593 q 294 597 294 593 q 303 602 294 602 q 312 593 312 602 q 303 583 312 583 q 294 593 294 583 m 297 560 q 297 565 297 560 q 307 570 297 570 q 316 560 316 570 q 307 551 316 551 q 297 560 297 551 m 228 553 q 228 557 228 553 q 237 562 228 562 q 247 553 247 562 q 237 544 247 544 q 228 553 228 544 m 164 509 q 164 514 164 509 q 173 518 164 518 q 182 509 182 518 q 173 500 182 500 q 164 509 164 500 m 346 500 q 346 505 346 500 q 355 510 346 510 q 365 500 365 510 q 355 491 365 491 q 346 500 346 491 m 625 477 q 625 482 625 477 q 634 487 625 487 q 643 477 643 487 q 634 468 643 468 q 625 477 625 468 m 106 458 q 106 463 106 458 q 115 468 106 468 q 123 458 123 468 q 115 449 123 449 q 106 458 106 449 m 396 441 q 396 446 396 441 q 406 450 396 450 q 415 441 415 450 q 406 431 415 431 q 396 441 396 431 m 579 415 q 579 420 579 415 q 589 425 579 425 q 598 415 598 425 q 589 406 598 406 q 579 415 579 406 m 58 397 q 58 402 58 397 q 68 407 58 407 q 77 397 77 407 q 68 388 77 388 q 58 397 58 388 m 446 382 q 446 386 446 382 q 455 391 446 391 q 464 382 464 391 q 455 373 464 373 q 446 382 446 373 m 538 350 q 538 355 538 350 q 548 359 538 359 q 557 350 557 359 q 548 340 557 340 q 538 350 538 340 m 28 327 q 28 332 28 327 q 37 336 28 336 q 46 327 46 336 q 37 317 46 317 q 28 327 28 317 m 494 321 q 494 325 494 321 q 503 330 494 330 q 513 321 513 330 q 503 312 513 312 q 494 321 494 312 m 500 283 q 500 287 500 283 q 509 292 500 292 q 518 283 518 292 q 509 274 518 274 q 500 283 500 274 m 540 259 q 540 264 540 259 q 549 269 540 269 q 559 259 559 269 q 549 250 559 250 q 540 259 540 250 m 14 251 q 14 256 14 251 q 22 260 14 260 q 31 251 31 260 q 22 241 31 241 q 14 251 14 241 m 461 216 q 461 220 461 216 q 471 225 461 225 q 480 216 480 225 q 471 206 480 206 q 461 216 461 206 m 585 195 q 585 200 585 195 q 593 205 585 205 q 602 195 602 205 q 593 186 602 186 q 585 195 585 186 m 16 174 q 16 178 16 174 q 25 183 16 183 q 34 174 34 183 q 25 164 34 164 q 16 174 16 164 m 419 151 q 419 156 419 151 q 428 160 419 160 q 437 151 437 160 q 428 142 437 142 q 419 151 419 142 m 628 132 q 628 136 628 132 q 637 141 628 141 q 647 132 647 141 q 637 122 647 122 q 628 132 628 122 m 41 100 q 41 105 41 100 q 50 110 41 110 q 58 100 58 110 q 50 91 58 91 q 41 100 41 91 m 369 92 q 369 96 369 92 q 378 100 369 100 q 388 92 388 100 q 378 83 388 83 q 369 92 369 83 m 671 68 q 671 73 671 68 q 681 77 671 77 q 690 68 690 77 q 681 60 690 60 q 671 68 671 60 m 309 45 q 309 50 309 45 q 318 54 309 54 q 327 45 327 54 q 318 35 327 35 q 309 45 309 35 m 90 42 q 90 47 90 42 q 98 52 90 52 q 107 42 107 52 q 98 33 107 33 q 90 42 90 33 m 237 17 q 237 21 237 17 q 246 26 237 26 q 255 17 255 26 q 246 8 255 8 q 237 17 237 8 m 160 12 q 160 17 160 12 q 169 22 160 22 q 178 12 178 22 q 169 3 178 3 q 160 12 160 3 z "},"'":{"ha":157,"x_min":14,"x_max":31,"o":"m 14 949 q 14 954 14 949 q 22 959 14 959 q 31 949 31 959 q 22 940 31 940 q 14 949 14 940 m 14 872 q 14 877 14 872 q 22 882 14 882 q 31 872 31 882 q 22 863 31 863 q 14 872 14 863 m 14 795 q 14 800 14 795 q 22 804 14 804 q 31 795 31 804 q 22 785 31 785 q 14 795 14 785 z "},"(":{"ha":403,"x_min":14,"x_max":278,"o":"m 259 1025 q 259 1029 259 1025 q 269 1034 259 1034 q 278 1025 278 1034 q 269 1016 278 1016 q 259 1025 259 1016 m 206 968 q 206 973 206 968 q 216 978 206 978 q 225 968 225 978 q 216 959 225 959 q 206 968 206 959 m 159 907 q 159 912 159 907 q 168 917 159 917 q 178 907 178 917 q 168 898 178 898 q 159 907 159 898 m 118 842 q 118 847 118 842 q 127 852 118 852 q 136 842 136 852 q 127 833 136 833 q 118 842 118 833 m 81 773 q 81 778 81 773 q 91 783 81 783 q 100 773 100 783 q 91 764 100 764 q 81 773 81 764 m 53 702 q 53 706 53 702 q 62 711 53 711 q 72 702 72 711 q 62 693 72 693 q 53 702 53 693 m 31 628 q 31 633 31 628 q 41 637 31 637 q 50 628 50 637 q 41 618 50 618 q 31 628 31 618 m 18 551 q 18 556 18 551 q 27 560 18 560 q 37 551 37 560 q 27 543 37 543 q 18 551 18 543 m 14 475 q 14 479 14 475 q 22 484 14 484 q 31 475 31 484 q 22 465 31 465 q 14 475 14 465 m 18 397 q 18 402 18 397 q 27 407 18 407 q 37 397 37 407 q 27 388 37 388 q 18 397 18 388 m 33 321 q 33 326 33 321 q 42 331 33 331 q 52 321 52 331 q 42 312 52 312 q 33 321 33 312 m 57 248 q 57 253 57 248 q 66 258 57 258 q 75 248 75 258 q 66 239 75 239 q 57 248 57 239 m 90 178 q 90 183 90 178 q 99 187 90 187 q 109 178 109 187 q 99 170 109 170 q 90 178 90 170 m 134 115 q 134 120 134 115 q 144 125 134 125 q 153 115 153 125 q 144 106 153 106 q 134 115 134 106 m 190 61 q 190 66 190 61 q 199 71 190 71 q 209 61 209 71 q 199 52 209 52 q 190 61 190 52 m 256 22 q 256 27 256 22 q 265 31 256 31 q 274 22 274 31 q 265 14 274 14 q 256 22 256 14 z "},")":{"ha":381,"x_min":14,"x_max":256,"o":"m 14 1023 q 14 1027 14 1023 q 22 1032 14 1032 q 31 1023 31 1032 q 22 1013 31 1013 q 14 1023 14 1013 m 68 968 q 68 973 68 968 q 77 978 68 978 q 87 968 87 978 q 77 959 87 959 q 68 968 68 959 m 115 907 q 115 912 115 907 q 125 917 115 917 q 134 907 134 917 q 125 898 134 898 q 115 907 115 898 m 156 842 q 156 846 156 842 q 165 850 156 850 q 174 842 174 850 q 165 833 174 833 q 156 842 156 833 m 189 772 q 189 777 189 772 q 197 781 189 781 q 206 772 206 781 q 197 762 206 762 q 189 772 189 762 m 213 699 q 213 703 213 699 q 222 708 213 708 q 231 699 231 708 q 222 689 231 689 q 213 699 213 689 m 229 623 q 229 627 229 623 q 239 632 229 632 q 248 623 248 632 q 239 613 248 613 q 229 623 229 613 m 237 546 q 237 550 237 546 q 247 555 237 555 q 256 546 256 555 q 247 537 256 537 q 237 546 237 537 m 237 468 q 237 473 237 468 q 246 477 237 477 q 255 468 255 477 q 246 458 255 458 q 237 468 237 458 m 228 392 q 228 397 228 392 q 237 401 228 401 q 247 392 247 401 q 237 382 247 382 q 228 392 228 382 m 209 317 q 209 321 209 317 q 218 326 209 326 q 228 317 228 326 q 218 308 228 308 q 209 317 209 308 m 182 244 q 182 249 182 244 q 191 254 182 254 q 201 244 201 254 q 191 235 201 235 q 182 244 182 235 m 146 176 q 146 181 146 176 q 155 186 146 186 q 164 176 164 186 q 155 167 164 167 q 146 176 146 167 m 102 113 q 102 117 102 113 q 111 122 102 122 q 119 113 119 122 q 111 103 119 103 q 102 113 102 103 m 49 57 q 49 62 49 57 q 58 66 49 66 q 68 57 68 66 q 58 47 68 47 q 49 57 49 47 z "},"*":{"ha":562,"x_min":14,"x_max":437,"o":"m 231 1012 q 231 1017 231 1012 q 240 1021 231 1021 q 250 1012 250 1021 q 240 1002 250 1002 q 231 1012 231 1002 m 418 940 q 418 945 418 940 q 427 949 418 949 q 437 940 437 949 q 427 930 437 930 q 418 940 418 930 m 232 935 q 232 939 232 935 q 241 944 232 944 q 251 935 251 944 q 241 925 251 925 q 232 935 232 925 m 362 886 q 362 890 362 886 q 372 895 362 895 q 381 886 381 895 q 372 876 381 876 q 362 886 362 876 m 14 884 q 14 888 14 884 q 22 892 14 892 q 31 884 31 892 q 22 875 31 875 q 14 884 14 875 m 231 857 q 231 862 231 857 q 240 867 231 867 q 250 857 250 867 q 240 848 250 848 q 231 857 231 848 m 81 848 q 81 852 81 848 q 91 857 81 857 q 100 848 100 857 q 91 838 100 838 q 81 848 81 838 m 307 833 q 307 838 307 833 q 315 842 307 842 q 324 833 324 842 q 315 823 324 823 q 307 833 307 823 m 151 812 q 151 817 151 812 q 160 822 151 822 q 170 812 170 822 q 160 803 170 803 q 151 812 151 803 m 232 781 q 232 786 232 781 q 241 791 232 791 q 251 781 251 791 q 241 772 251 772 q 232 781 232 772 m 281 730 q 281 735 281 730 q 290 739 281 739 q 298 730 298 739 q 290 722 298 722 q 281 730 281 722 m 205 722 q 205 726 205 722 q 214 731 205 731 q 222 722 222 731 q 214 712 222 712 q 205 722 205 712 m 331 671 q 331 676 331 671 q 340 681 331 681 q 349 671 349 681 q 340 662 349 662 q 331 671 331 662 m 168 654 q 168 659 168 654 q 177 663 168 663 q 186 654 186 663 q 177 644 186 644 q 168 654 168 644 m 381 613 q 381 618 381 613 q 391 623 381 623 q 400 613 400 623 q 391 604 400 604 q 381 613 381 604 m 130 586 q 130 591 130 586 q 140 595 130 595 q 149 586 149 595 q 140 576 149 576 q 130 586 130 576 z "},"+":{"ha":776,"x_min":14,"x_max":650,"o":"m 285 941 q 285 946 285 941 q 294 951 285 951 q 304 941 304 951 q 294 932 304 932 q 285 941 285 932 m 288 864 q 288 869 288 864 q 297 873 288 873 q 307 864 307 873 q 297 854 307 854 q 288 864 288 854 m 286 787 q 286 791 286 787 q 296 796 286 796 q 305 787 305 796 q 296 777 305 777 q 286 787 286 777 m 283 709 q 283 714 283 709 q 292 719 283 719 q 301 709 301 719 q 292 700 301 700 q 283 709 283 700 m 278 632 q 278 637 278 632 q 288 642 278 642 q 297 632 297 642 q 288 623 297 623 q 278 632 278 623 m 91 576 q 91 581 91 576 q 100 586 91 586 q 109 576 109 586 q 100 567 109 567 q 91 576 91 567 m 14 576 q 14 581 14 576 q 22 586 14 586 q 31 576 31 586 q 22 567 31 567 q 14 576 14 567 m 168 575 q 168 580 168 575 q 177 585 168 585 q 186 575 186 585 q 177 566 186 566 q 168 575 168 566 m 245 572 q 245 577 245 572 q 254 582 245 582 q 263 572 263 582 q 254 563 263 563 q 245 572 245 563 m 323 568 q 323 573 323 568 q 332 578 323 578 q 340 568 340 578 q 332 559 340 559 q 323 568 323 559 m 399 565 q 399 569 399 565 q 408 574 399 574 q 418 565 418 574 q 408 556 418 556 q 399 565 399 556 m 476 562 q 476 566 476 562 q 486 571 476 571 q 495 562 495 571 q 486 552 495 552 q 476 562 476 552 m 553 559 q 553 564 553 559 q 563 568 553 568 q 572 559 572 568 q 563 549 572 549 q 553 559 553 549 m 631 557 q 631 562 631 557 q 640 567 631 567 q 650 557 650 567 q 640 548 650 548 q 631 557 631 548 m 271 555 q 271 559 271 555 q 281 564 271 564 q 290 555 290 564 q 281 545 290 545 q 271 555 271 545 m 264 478 q 264 483 264 478 q 274 487 264 487 q 283 478 283 487 q 274 469 283 469 q 264 478 264 469 m 258 401 q 258 406 258 401 q 267 411 258 411 q 277 401 277 411 q 267 392 277 392 q 258 401 258 392 m 251 324 q 251 329 251 324 q 260 334 251 334 q 270 324 270 334 q 260 315 270 315 q 251 324 251 315 m 247 247 q 247 252 247 247 q 256 256 247 256 q 266 247 266 256 q 256 237 266 237 q 247 247 247 237 m 247 172 q 247 177 247 172 q 256 182 247 182 q 266 172 266 182 q 256 163 266 163 q 247 172 247 163 z "},",":{"ha":206,"x_min":14,"x_max":80,"o":"m 54 58 q 54 65 54 58 q 67 72 54 72 q 80 58 80 72 q 67 45 80 45 q 54 58 54 45 m 37 -22 q 37 -17 37 -22 q 46 -12 37 -12 q 56 -22 56 -12 q 46 -31 56 -31 q 37 -22 37 -31 m 14 -95 q 14 -90 14 -95 q 22 -85 14 -85 q 31 -95 31 -85 q 22 -104 31 -104 q 14 -95 14 -104 z "},"-":{"ha":621,"x_min":14,"x_max":495,"o":"m 477 465 q 477 470 477 465 q 486 475 477 475 q 495 465 495 475 q 486 456 495 456 q 477 465 477 456 m 400 465 q 400 470 400 465 q 409 475 400 475 q 418 465 418 475 q 409 456 418 456 q 400 465 400 456 m 14 464 q 14 469 14 464 q 22 473 14 473 q 31 464 31 473 q 22 454 31 454 q 14 464 14 454 m 323 464 q 323 469 323 464 q 332 473 323 473 q 340 464 340 473 q 332 454 340 454 q 323 464 323 454 m 245 463 q 245 467 245 463 q 254 472 245 472 q 263 463 263 472 q 254 453 263 453 q 245 463 245 453 m 91 461 q 91 466 91 461 q 100 471 91 471 q 109 461 109 471 q 100 452 109 452 q 91 461 91 452 m 168 461 q 168 466 168 461 q 177 471 168 471 q 186 461 186 471 q 177 452 186 452 q 168 461 168 452 z "},".":{"ha":201,"x_min":14,"x_max":41,"o":"m 14 -12 q 14 -5 14 -12 q 27 1 14 1 q 41 -12 41 1 q 27 -26 41 -26 q 14 -12 14 -26 z "},"/":{"ha":559,"x_min":14,"x_max":433,"o":"m 415 1021 q 415 1025 415 1021 q 424 1029 415 1029 q 433 1021 433 1029 q 424 1012 433 1012 q 415 1021 415 1012 m 392 947 q 392 951 392 947 q 401 956 392 956 q 410 947 410 956 q 401 937 410 937 q 392 947 392 937 m 366 873 q 366 878 366 873 q 376 883 366 883 q 385 873 385 883 q 376 864 385 864 q 366 873 366 864 m 339 802 q 339 806 339 802 q 349 811 339 811 q 358 802 358 811 q 349 792 358 792 q 339 802 339 792 m 311 730 q 311 734 311 730 q 320 739 311 739 q 330 730 330 739 q 320 720 330 720 q 311 730 311 720 m 281 659 q 281 663 281 659 q 290 667 281 667 q 298 659 298 667 q 290 650 298 650 q 281 659 281 650 m 250 587 q 250 592 250 587 q 259 597 250 597 q 269 587 269 597 q 259 578 269 578 q 250 587 250 578 m 218 517 q 218 522 218 517 q 227 526 218 526 q 236 517 236 526 q 227 507 236 507 q 218 517 218 507 m 186 446 q 186 451 186 446 q 195 456 186 456 q 205 446 205 456 q 195 437 205 437 q 186 446 186 437 m 153 376 q 153 381 153 376 q 163 385 153 385 q 172 376 172 385 q 163 368 172 368 q 153 376 153 368 m 122 305 q 122 310 122 305 q 132 315 122 315 q 141 305 141 315 q 132 296 141 296 q 122 305 122 296 m 92 235 q 92 239 92 235 q 101 244 92 244 q 110 235 110 244 q 101 225 110 225 q 92 235 92 225 m 62 163 q 62 168 62 163 q 72 172 62 172 q 81 163 81 172 q 72 153 81 153 q 62 163 62 153 m 37 90 q 37 95 37 90 q 45 99 37 99 q 54 90 54 99 q 45 81 54 81 q 37 90 37 81 m 14 19 q 14 24 14 19 q 22 28 14 28 q 31 19 31 28 q 22 9 31 9 q 14 19 14 9 z "},":":{"ha":165,"x_min":14,"x_max":39,"o":"m 14 713 q 14 719 14 713 q 26 726 14 726 q 39 713 39 726 q 26 700 39 700 q 14 713 14 700 m 14 54 q 14 60 14 54 q 26 66 14 66 q 39 54 39 66 q 26 41 39 41 q 14 54 14 41 z "},";":{"ha":206,"x_min":14,"x_max":81,"o":"m 54 713 q 54 719 54 713 q 68 726 54 726 q 81 713 81 726 q 68 700 81 700 q 54 713 54 700 m 54 58 q 54 65 54 58 q 67 72 54 72 q 80 58 80 72 q 67 45 80 45 q 54 58 54 45 m 37 -22 q 37 -17 37 -22 q 46 -12 37 -12 q 56 -22 56 -12 q 46 -31 56 -31 q 37 -22 37 -31 m 14 -95 q 14 -90 14 -95 q 22 -85 14 -85 q 31 -95 31 -85 q 22 -104 31 -104 q 14 -95 14 -104 z "},"<":{"ha":822,"x_min":14,"x_max":696,"o":"m 677 718 q 677 722 677 718 q 686 727 677 727 q 696 718 696 727 q 686 708 696 708 q 677 718 677 708 m 604 696 q 604 701 604 696 q 612 705 604 705 q 621 696 621 705 q 612 688 621 688 q 604 696 604 688 m 528 677 q 528 682 528 677 q 537 686 528 686 q 547 677 547 686 q 537 667 547 667 q 528 677 528 667 m 453 658 q 453 663 453 658 q 463 667 453 667 q 472 658 472 667 q 463 648 472 648 q 453 658 453 648 m 378 640 q 378 644 378 640 q 387 648 378 648 q 396 640 396 648 q 387 631 396 631 q 378 640 378 631 m 304 620 q 304 625 304 620 q 313 629 304 629 q 321 620 321 629 q 313 610 321 610 q 304 620 304 610 m 229 598 q 229 603 229 598 q 239 608 229 608 q 248 598 248 608 q 239 589 248 589 q 229 598 229 589 m 156 574 q 156 578 156 574 q 165 583 156 583 q 175 574 175 583 q 165 564 175 564 q 156 574 156 564 m 84 545 q 84 549 84 545 q 94 553 84 553 q 103 545 103 553 q 94 536 103 536 q 84 545 84 536 m 16 507 q 16 512 16 507 q 26 517 16 517 q 35 507 35 517 q 26 498 35 498 q 16 507 16 498 m 14 446 q 14 450 14 446 q 22 454 14 454 q 31 446 31 454 q 22 437 31 437 q 14 446 14 437 m 83 412 q 83 416 83 412 q 92 420 83 420 q 102 412 102 420 q 92 403 102 403 q 83 412 83 403 m 156 386 q 156 390 156 386 q 165 395 156 395 q 174 386 174 395 q 165 377 174 377 q 156 386 156 377 m 228 358 q 228 363 228 358 q 237 368 228 368 q 247 358 247 368 q 237 349 247 349 q 228 358 228 349 m 298 328 q 298 333 298 328 q 308 338 298 338 q 317 328 317 338 q 308 319 317 319 q 298 328 298 319 m 369 297 q 369 302 369 297 q 378 307 369 307 q 388 297 388 307 q 378 288 388 288 q 369 297 369 288 m 441 265 q 441 270 441 265 q 450 274 441 274 q 458 265 458 274 q 450 256 458 256 q 441 265 441 256 m 511 234 q 511 238 511 234 q 520 243 511 243 q 529 234 529 243 q 520 225 529 225 q 511 234 511 225 m 582 204 q 582 209 582 204 q 591 213 582 213 q 601 204 601 213 q 591 195 601 195 q 582 204 582 195 m 655 177 q 655 181 655 177 q 664 186 655 186 q 673 177 673 186 q 664 168 673 168 q 655 177 655 168 z "},"=":{"ha":770,"x_min":14,"x_max":646,"o":"m 14 556 q 14 561 14 556 q 22 566 14 566 q 31 556 31 566 q 22 547 31 547 q 14 556 14 547 m 627 556 q 627 561 627 556 q 636 566 627 566 q 646 556 646 566 q 636 547 646 547 q 627 556 627 547 m 549 556 q 549 561 549 556 q 559 566 549 566 q 568 556 568 566 q 559 547 568 547 q 549 556 549 547 m 85 556 q 85 561 85 556 q 95 566 85 566 q 104 556 104 566 q 95 547 104 547 q 85 556 85 547 m 472 555 q 472 560 472 555 q 481 564 472 564 q 491 555 491 564 q 481 547 491 547 q 472 555 472 547 m 395 555 q 395 559 395 555 q 404 564 395 564 q 414 555 414 564 q 404 545 414 545 q 395 555 395 545 m 163 555 q 163 559 163 555 q 172 564 163 564 q 182 555 182 564 q 172 545 182 545 q 163 555 163 545 m 317 555 q 317 559 317 555 q 327 564 317 564 q 336 555 336 564 q 327 545 336 545 q 317 555 317 545 m 240 555 q 240 559 240 555 q 250 564 240 564 q 259 555 259 564 q 250 545 259 545 q 240 555 240 545 m 53 342 q 53 347 53 342 q 62 351 53 351 q 71 342 71 351 q 62 332 71 332 q 53 342 53 332 m 130 340 q 130 344 130 340 q 139 349 130 349 q 148 340 148 349 q 139 331 148 331 q 130 340 130 331 m 593 338 q 593 342 593 338 q 602 347 593 347 q 612 338 612 347 q 602 328 612 328 q 593 338 593 328 m 208 336 q 208 341 208 336 q 216 346 208 346 q 225 336 225 346 q 216 327 225 327 q 208 336 208 327 m 285 333 q 285 337 285 333 q 294 342 285 342 q 302 333 302 342 q 294 324 302 324 q 285 333 285 324 m 515 332 q 515 337 515 332 q 525 342 515 342 q 534 332 534 342 q 525 323 534 323 q 515 332 515 323 m 361 331 q 361 336 361 331 q 370 340 361 340 q 380 331 380 340 q 370 321 380 321 q 361 331 361 321 m 439 330 q 439 335 439 330 q 448 339 439 339 q 457 330 457 339 q 448 321 457 321 q 439 330 439 321 z "},">":{"ha":817,"x_min":14,"x_max":692,"o":"m 14 718 q 14 722 14 718 q 22 727 14 727 q 31 718 31 727 q 22 708 31 708 q 14 718 14 708 m 88 698 q 88 702 88 698 q 97 707 88 707 q 106 698 106 707 q 97 689 106 689 q 88 698 88 689 m 163 679 q 163 683 163 679 q 172 688 163 688 q 182 679 182 688 q 172 670 182 670 q 163 679 163 670 m 237 661 q 237 665 237 661 q 247 670 237 670 q 256 661 256 670 q 247 651 256 651 q 237 661 237 651 m 312 641 q 312 645 312 641 q 321 650 312 650 q 331 641 331 650 q 321 632 331 632 q 312 641 312 632 m 387 620 q 387 625 387 620 q 396 629 387 629 q 406 620 406 629 q 396 610 406 610 q 387 620 387 610 m 461 597 q 461 602 461 597 q 471 606 461 606 q 480 597 480 606 q 471 587 480 587 q 461 597 461 587 m 533 571 q 533 576 533 571 q 543 581 533 581 q 552 571 552 581 q 543 562 552 562 q 533 571 533 562 m 605 540 q 605 545 605 540 q 614 549 605 549 q 623 540 623 549 q 614 530 623 530 q 605 540 605 530 m 673 503 q 673 508 673 503 q 682 513 673 513 q 692 503 692 513 q 682 494 692 494 q 673 503 673 494 m 650 461 q 650 466 650 461 q 659 471 650 471 q 669 461 669 471 q 659 452 669 452 q 650 461 650 452 m 583 422 q 583 427 583 422 q 593 431 583 431 q 602 422 602 431 q 593 412 602 412 q 583 422 583 412 m 515 385 q 515 390 515 385 q 525 395 515 395 q 534 385 534 395 q 525 376 534 376 q 515 385 515 376 m 448 349 q 448 353 448 349 q 456 358 448 358 q 465 349 465 358 q 456 339 465 339 q 448 349 448 339 m 378 314 q 378 318 378 314 q 387 323 378 323 q 396 314 396 323 q 387 305 396 305 q 378 314 378 305 m 309 280 q 309 284 309 280 q 318 289 309 289 q 327 280 327 289 q 318 271 327 271 q 309 280 309 271 m 239 246 q 239 251 239 246 q 248 255 239 255 q 258 246 258 255 q 248 237 258 237 q 239 246 239 237 m 170 212 q 170 216 170 212 q 179 221 170 221 q 189 212 189 221 q 179 202 189 202 q 170 212 170 202 m 100 177 q 100 181 100 177 q 110 186 100 186 q 119 177 119 186 q 110 168 119 168 q 100 177 100 168 z "},"?":{"ha":589,"x_min":14,"x_max":463,"o":"m 243 1038 q 243 1042 243 1038 q 252 1047 243 1047 q 260 1038 260 1047 q 252 1028 260 1028 q 243 1038 243 1028 m 165 1028 q 165 1033 165 1028 q 175 1038 165 1038 q 184 1028 184 1038 q 175 1019 184 1019 q 165 1028 165 1019 m 319 1025 q 319 1029 319 1025 q 328 1034 319 1034 q 336 1025 336 1034 q 328 1016 336 1016 q 319 1025 319 1016 m 96 996 q 96 1000 96 996 q 105 1005 96 1005 q 114 996 114 1005 q 105 986 114 986 q 96 996 96 986 m 387 988 q 387 992 387 988 q 395 997 387 997 q 404 988 404 997 q 395 979 404 979 q 387 988 387 979 m 42 941 q 42 946 42 941 q 52 951 42 951 q 61 941 61 951 q 52 932 61 932 q 42 941 42 932 m 431 927 q 431 931 431 927 q 441 936 431 936 q 450 927 450 936 q 441 918 450 918 q 431 927 431 918 m 14 870 q 14 874 14 870 q 22 879 14 879 q 31 870 31 879 q 22 861 31 861 q 14 870 14 861 m 445 850 q 445 855 445 850 q 454 860 445 860 q 463 850 463 860 q 454 841 463 841 q 445 850 445 841 m 430 775 q 430 780 430 775 q 439 784 430 784 q 448 775 448 784 q 439 766 448 766 q 430 775 430 766 m 403 703 q 403 707 403 703 q 412 712 403 712 q 422 703 422 712 q 412 693 422 693 q 403 703 403 693 m 369 633 q 369 638 369 633 q 378 643 369 643 q 387 633 387 643 q 378 624 387 624 q 369 633 369 624 m 327 568 q 327 573 327 568 q 336 578 327 578 q 346 568 346 578 q 336 559 346 559 q 327 568 327 559 m 282 505 q 282 510 282 505 q 292 514 282 514 q 301 505 301 514 q 292 496 301 496 q 282 505 282 496 m 240 441 q 240 446 240 441 q 249 450 240 450 q 258 441 258 450 q 249 431 258 431 q 240 441 240 431 m 203 373 q 203 378 203 373 q 213 382 203 382 q 222 373 222 382 q 213 363 222 363 q 203 373 203 363 m 182 299 q 182 303 182 299 q 191 308 182 308 q 199 299 199 308 q 191 290 199 290 q 182 299 182 290 m 174 224 q 174 229 174 224 q 183 233 174 233 q 193 224 193 233 q 183 214 193 214 q 174 224 174 214 m 174 47 q 174 53 174 47 q 186 60 174 60 q 199 47 199 60 q 186 34 199 34 q 174 47 174 34 z "},"@":{"ha":983,"x_min":14,"x_max":857,"o":"m 472 960 q 472 965 472 960 q 481 970 472 970 q 491 960 491 970 q 481 951 491 951 q 472 960 472 951 m 395 954 q 395 958 395 954 q 404 963 395 963 q 414 954 414 963 q 404 944 414 944 q 395 954 395 944 m 549 949 q 549 954 549 949 q 558 959 549 959 q 567 949 567 959 q 558 940 567 940 q 549 949 549 940 m 321 931 q 321 936 321 931 q 331 940 321 940 q 340 931 340 940 q 331 922 340 922 q 321 931 321 922 m 621 921 q 621 926 621 921 q 630 930 621 930 q 639 921 639 930 q 630 911 639 911 q 621 921 621 911 m 252 897 q 252 901 252 897 q 262 906 252 906 q 271 897 271 906 q 262 887 271 887 q 252 897 252 887 m 684 878 q 684 882 684 878 q 693 887 684 887 q 703 878 703 887 q 693 868 703 868 q 684 878 684 868 m 190 851 q 190 856 190 851 q 199 860 190 860 q 209 851 209 860 q 199 842 209 842 q 190 851 190 842 m 736 821 q 736 826 736 821 q 746 830 736 830 q 755 821 755 830 q 746 812 755 812 q 736 821 736 812 m 134 798 q 134 802 134 798 q 144 807 134 807 q 153 798 153 807 q 144 788 153 788 q 134 798 134 788 m 780 757 q 780 762 780 757 q 789 766 780 766 q 798 757 798 766 q 789 747 798 747 q 780 757 780 747 m 87 736 q 87 741 87 736 q 96 746 87 746 q 106 736 106 746 q 96 727 106 727 q 87 736 87 727 m 437 711 q 437 716 437 711 q 446 720 437 720 q 456 711 456 720 q 446 703 456 703 q 437 711 437 703 m 359 709 q 359 714 359 709 q 369 719 359 719 q 378 709 378 719 q 369 700 378 700 q 359 709 359 700 m 513 693 q 513 698 513 693 q 522 703 513 703 q 530 693 530 703 q 522 684 530 684 q 513 693 513 684 m 812 687 q 812 691 812 687 q 822 696 812 696 q 831 687 831 696 q 822 678 831 678 q 812 687 812 678 m 289 682 q 289 686 289 682 q 298 690 289 690 q 307 682 307 690 q 298 673 307 673 q 289 682 289 673 m 623 673 q 623 678 623 673 q 631 682 623 682 q 640 673 640 682 q 631 665 640 665 q 623 673 623 665 m 49 669 q 49 674 49 669 q 58 678 49 678 q 68 669 68 678 q 58 661 68 661 q 49 669 49 661 m 581 657 q 581 662 581 657 q 590 666 581 666 q 600 657 600 666 q 590 648 600 648 q 581 657 581 648 m 239 624 q 239 629 239 624 q 248 633 239 633 q 258 624 258 633 q 248 614 258 614 q 239 624 239 614 m 834 613 q 834 618 834 613 q 844 623 834 623 q 853 613 853 623 q 844 604 853 604 q 834 613 834 604 m 609 597 q 609 602 609 597 q 618 606 609 606 q 628 597 628 606 q 618 589 628 589 q 609 597 609 589 m 23 597 q 23 602 23 597 q 33 606 23 606 q 42 597 42 606 q 33 587 42 587 q 23 597 23 587 m 216 551 q 216 555 216 551 q 224 560 216 560 q 233 551 233 560 q 224 541 233 541 q 216 551 216 541 m 838 536 q 838 541 838 536 q 848 545 838 545 q 857 536 857 545 q 848 526 857 526 q 838 536 838 526 m 598 521 q 598 526 598 521 q 607 530 598 530 q 616 521 616 530 q 607 511 616 511 q 598 521 598 511 m 14 519 q 14 524 14 519 q 22 529 14 529 q 31 519 31 529 q 22 510 31 510 q 14 519 14 510 m 212 473 q 212 478 212 473 q 221 483 212 483 q 231 473 231 483 q 221 464 231 464 q 212 473 212 464 m 833 458 q 833 463 833 458 q 842 468 833 468 q 852 458 852 468 q 842 449 852 449 q 833 458 833 449 m 590 444 q 590 449 590 444 q 600 453 590 453 q 609 444 609 453 q 600 435 609 435 q 590 444 590 435 m 18 442 q 18 447 18 442 q 27 452 18 452 q 37 442 37 452 q 27 433 37 433 q 18 442 18 433 m 225 397 q 225 402 225 397 q 235 407 225 407 q 244 397 244 407 q 235 388 244 388 q 225 397 225 388 m 818 382 q 818 387 818 382 q 827 392 818 392 q 837 382 837 392 q 827 373 837 373 q 818 382 818 373 m 35 368 q 35 372 35 368 q 45 377 35 377 q 54 368 54 377 q 45 358 54 358 q 35 368 35 358 m 591 366 q 591 371 591 366 q 601 376 591 376 q 610 366 610 376 q 601 357 610 357 q 591 366 591 357 m 586 346 q 586 351 586 346 q 595 355 586 355 q 605 346 605 355 q 595 336 605 336 q 586 346 586 336 m 259 328 q 259 332 259 328 q 268 336 259 336 q 277 328 277 336 q 268 319 277 319 q 259 328 259 319 m 791 311 q 791 315 791 311 q 800 320 791 320 q 808 311 808 320 q 800 301 808 301 q 791 311 791 301 m 528 296 q 528 301 528 296 q 536 305 528 305 q 545 296 545 305 q 536 288 545 288 q 528 296 528 288 m 65 296 q 65 300 65 296 q 75 305 65 305 q 84 296 84 305 q 75 286 84 286 q 65 296 65 286 m 610 292 q 610 296 610 292 q 619 301 610 301 q 628 292 628 301 q 619 282 628 282 q 610 292 610 282 m 312 273 q 312 277 312 273 q 321 282 312 282 q 330 273 330 282 q 321 263 330 263 q 312 273 312 263 m 460 260 q 460 264 460 260 q 469 269 460 269 q 479 260 479 269 q 469 251 479 251 q 460 260 460 251 m 742 252 q 742 256 742 252 q 751 260 742 260 q 761 252 761 260 q 751 243 761 243 q 742 252 742 243 m 384 247 q 384 252 384 247 q 393 256 384 256 q 401 247 401 256 q 393 237 401 237 q 384 247 384 237 m 667 244 q 667 249 667 244 q 677 254 667 254 q 686 244 686 254 q 677 235 686 235 q 667 244 667 235 m 103 229 q 103 234 103 229 q 113 239 103 239 q 122 229 122 239 q 113 220 122 220 q 103 229 103 220 m 831 167 q 831 172 831 167 q 840 176 831 176 q 849 167 849 176 q 840 157 849 157 q 831 167 831 157 m 148 165 q 148 170 148 165 q 157 175 148 175 q 167 165 167 175 q 157 156 167 156 q 148 165 148 156 m 776 113 q 776 117 776 113 q 785 122 776 122 q 793 113 793 122 q 785 103 793 103 q 776 113 776 103 m 199 109 q 199 114 199 109 q 209 118 199 118 q 218 109 218 118 q 209 100 218 100 q 199 109 199 100 m 711 71 q 711 76 711 71 q 720 80 711 80 q 728 71 728 80 q 720 62 728 62 q 711 71 711 62 m 263 65 q 263 70 263 65 q 273 75 263 75 q 282 65 282 75 q 273 56 282 56 q 263 65 263 56 m 639 41 q 639 46 639 41 q 648 50 639 50 q 658 41 658 50 q 648 33 658 33 q 639 41 639 33 m 335 36 q 335 40 335 36 q 344 45 335 45 q 353 36 353 45 q 344 27 353 27 q 335 36 335 27 m 564 23 q 564 28 564 23 q 574 33 564 33 q 583 23 583 33 q 574 14 583 14 q 564 23 564 14 m 410 19 q 410 24 410 19 q 419 28 410 28 q 429 19 429 28 q 419 9 429 9 q 410 19 410 9 m 487 15 q 487 20 487 15 q 496 24 487 24 q 506 15 506 24 q 496 5 506 5 q 487 15 487 5 z "},"A":{"ha":943,"x_min":14,"x_max":817,"o":"m 374 951 q 374 956 374 951 q 384 960 374 960 q 393 951 393 960 q 384 943 393 943 q 374 951 374 943 m 427 902 q 427 907 427 902 q 437 911 427 911 q 446 902 446 911 q 437 892 446 892 q 427 902 427 892 m 330 892 q 330 896 330 892 q 339 901 330 901 q 349 892 349 901 q 339 883 349 883 q 330 892 330 883 m 458 831 q 458 835 458 831 q 468 840 458 840 q 477 831 477 840 q 468 822 477 822 q 458 831 458 822 m 297 822 q 297 827 297 822 q 306 831 297 831 q 315 822 315 831 q 306 812 315 812 q 297 822 297 812 m 487 759 q 487 763 487 759 q 496 768 487 768 q 506 759 506 768 q 496 750 506 750 q 487 759 487 750 m 267 751 q 267 755 267 751 q 276 760 267 760 q 285 751 285 760 q 276 742 285 742 q 267 751 267 742 m 517 688 q 517 692 517 688 q 526 697 517 697 q 536 688 536 697 q 526 678 536 678 q 517 688 517 678 m 240 678 q 240 683 240 678 q 249 688 240 688 q 258 678 258 688 q 249 669 258 669 q 240 678 240 669 m 548 616 q 548 621 548 616 q 557 625 548 625 q 567 616 567 625 q 557 608 567 608 q 548 616 548 608 m 214 605 q 214 610 214 605 q 224 614 214 614 q 233 605 233 614 q 224 595 233 595 q 214 605 214 595 m 579 546 q 579 550 579 546 q 589 555 579 555 q 598 546 598 555 q 589 537 598 537 q 579 546 579 537 m 191 532 q 191 536 191 532 q 201 541 191 541 q 210 532 210 541 q 201 522 210 522 q 191 532 191 522 m 612 476 q 612 481 612 476 q 621 486 612 486 q 631 476 631 486 q 621 467 631 467 q 612 476 612 467 m 168 457 q 168 462 168 457 q 178 467 168 467 q 187 457 187 467 q 178 448 187 448 q 168 457 168 448 m 644 406 q 644 410 644 406 q 654 415 644 415 q 663 406 663 415 q 654 396 663 396 q 644 406 644 396 m 146 384 q 146 389 146 384 q 155 393 146 393 q 164 384 164 393 q 155 374 164 374 q 146 384 146 374 m 677 336 q 677 340 677 336 q 686 345 677 345 q 696 336 696 345 q 686 327 696 327 q 677 336 677 327 m 123 310 q 123 314 123 310 q 132 319 123 319 q 141 310 141 319 q 132 301 141 301 q 123 310 123 301 m 145 294 q 145 299 145 294 q 155 304 145 304 q 164 294 164 304 q 155 285 164 285 q 145 294 145 285 m 685 290 q 685 294 685 290 q 694 298 685 298 q 704 290 704 298 q 694 281 704 281 q 685 290 685 281 m 222 286 q 222 291 222 286 q 231 296 222 296 q 240 286 240 296 q 231 277 240 277 q 222 286 222 277 m 608 283 q 608 288 608 283 q 617 293 608 293 q 627 283 627 293 q 617 274 627 274 q 608 283 608 274 m 298 280 q 298 284 298 280 q 308 289 298 289 q 317 280 317 289 q 308 271 317 271 q 298 280 298 271 m 530 278 q 530 283 530 278 q 540 288 530 288 q 549 278 549 288 q 540 269 549 269 q 530 278 530 269 m 376 277 q 376 281 376 277 q 385 286 376 286 q 395 277 395 286 q 385 267 395 267 q 376 277 376 267 m 453 276 q 453 280 453 276 q 463 285 453 285 q 472 276 472 285 q 463 267 472 267 q 453 276 453 267 m 709 265 q 709 270 709 265 q 718 274 709 274 q 727 265 727 274 q 718 256 727 256 q 709 265 709 256 m 99 236 q 99 241 99 236 q 109 245 99 245 q 118 236 118 245 q 109 227 118 227 q 99 236 99 227 m 741 195 q 741 199 741 195 q 749 203 741 203 q 758 195 758 203 q 749 186 758 186 q 741 195 741 186 m 73 163 q 73 168 73 163 q 82 172 73 172 q 91 163 91 172 q 82 155 91 155 q 73 163 73 155 m 770 123 q 770 128 770 123 q 780 133 770 133 q 789 123 789 133 q 780 114 789 114 q 770 123 770 114 m 45 92 q 45 96 45 92 q 54 100 45 100 q 64 92 64 100 q 54 83 64 83 q 45 92 45 83 m 799 52 q 799 56 799 52 q 808 61 799 61 q 817 52 817 61 q 808 42 817 42 q 799 52 799 42 m 14 21 q 14 25 14 21 q 22 30 14 30 q 31 21 31 30 q 22 12 31 12 q 14 21 14 12 z "},"B":{"ha":697,"x_min":14,"x_max":572,"o":"m 232 950 q 232 955 232 950 q 241 959 232 959 q 251 950 251 959 q 241 941 251 941 q 232 950 232 941 m 155 949 q 155 954 155 949 q 164 959 155 959 q 174 949 174 959 q 164 940 174 940 q 155 949 155 940 m 15 947 q 15 951 15 947 q 24 956 15 956 q 33 947 33 956 q 24 937 33 937 q 15 947 15 937 m 308 935 q 308 940 308 935 q 317 944 308 944 q 327 935 327 944 q 317 926 327 926 q 308 935 308 926 m 80 929 q 80 934 80 929 q 90 939 80 939 q 99 929 99 939 q 90 920 99 920 q 80 929 80 920 m 380 906 q 380 911 380 906 q 389 916 380 916 q 397 906 397 916 q 389 897 397 897 q 380 906 380 897 m 19 880 q 19 885 19 880 q 28 890 19 890 q 38 880 38 890 q 28 871 38 871 q 19 880 19 871 m 444 863 q 444 867 444 863 q 452 872 444 872 q 461 863 461 872 q 452 853 461 853 q 444 863 444 853 m 491 802 q 491 807 491 802 q 500 811 491 811 q 509 802 509 811 q 500 793 509 793 q 491 802 491 793 m 16 795 q 16 800 16 795 q 25 804 16 804 q 34 795 34 804 q 25 787 34 787 q 16 795 16 787 m 509 727 q 509 732 509 727 q 518 736 509 736 q 528 727 528 736 q 518 718 528 718 q 509 727 509 718 m 15 718 q 15 723 15 718 q 24 727 15 727 q 34 718 34 727 q 24 709 34 709 q 15 718 15 709 m 483 656 q 483 660 483 656 q 492 665 483 665 q 502 656 502 665 q 492 647 502 647 q 483 656 483 647 m 15 641 q 15 645 15 641 q 24 650 15 650 q 34 641 34 650 q 24 632 34 632 q 15 641 15 632 m 426 605 q 426 610 426 605 q 435 614 426 614 q 444 605 444 614 q 435 595 444 595 q 426 605 426 595 m 355 572 q 355 577 355 572 q 365 582 355 582 q 374 572 374 582 q 365 563 374 563 q 355 572 355 563 m 14 564 q 14 568 14 564 q 23 572 14 572 q 33 564 33 572 q 23 555 33 555 q 14 564 14 555 m 281 551 q 281 556 281 551 q 290 560 281 560 q 300 551 300 560 q 290 543 300 543 q 281 551 281 543 m 198 536 q 198 541 198 536 q 208 545 198 545 q 217 536 217 545 q 208 526 217 526 q 198 536 198 526 m 269 532 q 269 537 269 532 q 277 541 269 541 q 286 532 286 541 q 277 524 286 524 q 269 532 269 524 m 121 530 q 121 535 121 530 q 130 540 121 540 q 140 530 140 540 q 130 521 140 521 q 121 530 121 521 m 43 528 q 43 532 43 528 q 53 537 43 537 q 62 528 62 537 q 53 518 62 518 q 43 528 43 518 m 345 526 q 345 530 345 526 q 354 534 345 534 q 363 526 363 534 q 354 517 363 517 q 345 526 345 517 m 420 509 q 420 513 420 509 q 430 518 420 518 q 439 509 439 518 q 430 499 439 499 q 420 509 420 499 m 14 486 q 14 491 14 486 q 22 495 14 495 q 31 486 31 495 q 22 477 31 477 q 14 486 14 477 m 487 471 q 487 475 487 471 q 496 480 487 480 q 506 471 506 480 q 496 461 506 461 q 487 471 487 461 m 533 409 q 533 413 533 409 q 542 418 533 418 q 551 409 551 418 q 542 400 551 400 q 533 409 533 400 m 14 409 q 14 413 14 409 q 22 418 14 418 q 31 409 31 418 q 22 400 31 400 q 14 409 14 400 m 552 334 q 552 339 552 334 q 561 343 552 343 q 570 334 570 343 q 561 326 570 326 q 552 334 552 326 m 14 332 q 14 336 14 332 q 23 340 14 340 q 33 332 33 340 q 23 323 33 323 q 14 332 14 323 m 553 257 q 553 261 553 257 q 563 266 553 266 q 572 257 572 266 q 563 248 572 248 q 553 257 553 248 m 15 254 q 15 259 15 254 q 24 263 15 263 q 34 254 34 263 q 24 245 34 245 q 15 254 15 245 m 541 181 q 541 185 541 181 q 550 190 541 190 q 559 181 559 190 q 550 172 559 172 q 541 181 541 172 m 18 177 q 18 181 18 177 q 27 186 18 186 q 37 177 37 186 q 27 168 37 168 q 18 177 18 168 m 507 112 q 507 116 507 112 q 516 121 507 121 q 525 112 525 121 q 516 103 525 103 q 507 112 507 103 m 23 100 q 23 104 23 100 q 32 109 23 109 q 41 100 41 109 q 32 91 41 91 q 23 100 23 91 m 77 63 q 77 67 77 63 q 87 72 77 72 q 96 63 96 72 q 87 54 96 54 q 77 63 77 54 m 452 59 q 452 63 452 59 q 460 68 452 68 q 469 59 469 68 q 460 50 469 50 q 452 59 452 50 m 152 39 q 152 44 152 39 q 161 49 152 49 q 170 39 170 49 q 161 30 170 30 q 152 39 152 30 m 381 28 q 381 33 381 28 q 390 38 381 38 q 399 28 399 38 q 390 19 399 19 q 381 28 381 19 m 227 23 q 227 28 227 23 q 236 33 227 33 q 245 23 245 33 q 236 14 245 14 q 227 23 227 14 m 28 23 q 28 28 28 23 q 38 33 28 33 q 47 23 47 33 q 38 14 47 14 q 28 23 28 14 m 304 18 q 304 22 304 18 q 313 27 304 27 q 323 18 323 27 q 313 8 323 8 q 304 18 304 8 z "},"C":{"ha":807,"x_min":14,"x_max":682,"o":"m 399 954 q 399 959 399 954 q 408 963 399 963 q 418 954 418 963 q 408 945 418 945 q 399 954 399 945 m 477 954 q 477 958 477 954 q 486 963 477 963 q 495 954 495 963 q 486 944 495 944 q 477 954 477 944 m 324 936 q 324 941 324 936 q 334 945 324 945 q 343 936 343 945 q 334 926 343 926 q 324 936 324 926 m 551 930 q 551 935 551 930 q 559 940 551 940 q 568 930 568 940 q 559 921 568 921 q 551 930 551 921 m 255 903 q 255 908 255 903 q 264 913 255 913 q 273 903 273 913 q 264 894 273 894 q 255 903 255 894 m 613 886 q 613 890 613 886 q 623 895 613 895 q 632 886 632 895 q 623 876 632 876 q 613 886 613 876 m 191 860 q 191 865 191 860 q 200 869 191 869 q 209 860 209 869 q 200 850 209 850 q 191 860 191 850 m 134 807 q 134 812 134 807 q 144 817 134 817 q 153 807 153 817 q 144 798 153 798 q 134 807 134 798 m 87 746 q 87 751 87 746 q 96 755 87 755 q 106 746 106 755 q 96 736 106 736 q 87 746 87 736 m 50 678 q 50 683 50 678 q 59 688 50 688 q 68 678 68 688 q 59 669 68 669 q 50 678 50 669 m 26 605 q 26 610 26 605 q 35 614 26 614 q 45 605 45 614 q 35 595 45 595 q 26 605 26 595 m 14 529 q 14 534 14 529 q 23 538 14 538 q 33 529 33 538 q 23 519 33 519 q 14 529 14 519 m 14 452 q 14 456 14 452 q 22 461 14 461 q 31 452 31 461 q 22 442 31 442 q 14 452 14 442 m 24 375 q 24 379 24 375 q 34 384 24 384 q 43 375 43 384 q 34 366 43 366 q 24 375 24 366 m 47 301 q 47 306 47 301 q 56 311 47 311 q 65 301 65 311 q 56 292 65 292 q 47 301 47 292 m 80 232 q 80 237 80 232 q 90 241 80 241 q 99 232 99 241 q 90 222 99 222 q 80 232 80 222 m 123 168 q 123 173 123 168 q 133 178 123 178 q 142 168 142 178 q 133 159 142 159 q 123 168 123 159 m 663 115 q 663 119 663 115 q 673 123 663 123 q 682 115 682 123 q 673 106 682 106 q 663 115 663 106 m 178 112 q 178 116 178 112 q 186 121 178 121 q 195 112 195 121 q 186 103 195 103 q 178 112 178 103 m 239 66 q 239 71 239 66 q 248 76 239 76 q 258 66 258 76 q 248 57 258 57 q 239 66 239 57 m 604 66 q 604 70 604 66 q 613 75 604 75 q 623 66 623 75 q 613 57 623 57 q 604 66 604 57 m 309 33 q 309 38 309 33 q 318 42 309 42 q 327 33 327 42 q 318 24 327 24 q 309 33 309 24 m 536 28 q 536 33 536 28 q 545 38 536 38 q 555 28 555 38 q 545 19 555 19 q 536 28 536 19 m 384 15 q 384 20 384 15 q 393 24 384 24 q 403 15 403 24 q 393 5 403 5 q 384 15 384 5 m 461 12 q 461 17 461 12 q 471 22 461 22 q 480 12 480 22 q 471 3 480 3 q 461 12 461 3 z "},"D":{"ha":841,"x_min":14,"x_max":715,"o":"m 311 945 q 311 950 311 945 q 320 955 311 955 q 330 945 330 955 q 320 936 330 936 q 311 945 311 936 m 33 944 q 33 949 33 944 q 41 954 33 954 q 50 944 50 954 q 41 935 50 935 q 33 944 33 935 m 388 943 q 388 947 388 943 q 397 952 388 952 q 407 943 407 952 q 397 933 407 933 q 388 943 388 933 m 235 939 q 235 943 235 939 q 243 948 235 948 q 252 939 252 948 q 243 929 252 929 q 235 939 235 929 m 464 928 q 464 932 464 928 q 473 937 464 937 q 483 928 483 937 q 473 918 483 918 q 464 928 464 918 m 159 924 q 159 928 159 924 q 168 933 159 933 q 176 924 176 933 q 168 914 176 914 q 159 924 159 914 m 84 901 q 84 906 84 901 q 94 910 84 910 q 103 901 103 910 q 94 892 103 892 q 84 901 84 892 m 536 898 q 536 903 536 898 q 545 907 536 907 q 553 898 553 907 q 545 888 553 888 q 536 898 536 888 m 23 868 q 23 873 23 868 q 32 878 23 878 q 41 868 41 878 q 32 859 41 859 q 23 868 23 859 m 597 850 q 597 855 597 850 q 606 860 597 860 q 614 850 614 860 q 606 841 614 841 q 597 850 597 841 m 16 791 q 16 795 16 791 q 26 800 16 800 q 35 791 35 800 q 26 781 35 781 q 16 791 16 781 m 642 789 q 642 793 642 789 q 651 798 642 798 q 661 789 661 798 q 651 780 661 780 q 642 789 642 780 m 674 718 q 674 723 674 718 q 683 727 674 727 q 692 718 692 727 q 683 709 692 709 q 674 718 674 709 m 14 713 q 14 718 14 713 q 23 723 14 723 q 33 713 33 723 q 23 704 33 704 q 14 713 14 704 m 692 643 q 692 648 692 643 q 701 652 692 652 q 709 643 709 652 q 701 633 709 633 q 692 643 692 633 m 14 636 q 14 641 14 636 q 22 646 14 646 q 31 636 31 646 q 22 627 31 627 q 14 636 14 627 m 697 566 q 697 570 697 566 q 706 575 697 575 q 715 566 715 575 q 706 556 715 556 q 697 566 697 556 m 15 559 q 15 564 15 559 q 24 568 15 568 q 33 559 33 568 q 24 549 33 549 q 15 559 15 549 m 692 488 q 692 493 692 488 q 701 498 692 498 q 711 488 711 498 q 701 479 711 479 q 692 488 692 479 m 16 481 q 16 486 16 481 q 26 491 16 491 q 35 481 35 491 q 26 472 35 472 q 16 481 16 472 m 678 412 q 678 417 678 412 q 687 422 678 422 q 696 412 696 422 q 687 403 696 403 q 678 412 678 403 m 20 404 q 20 409 20 404 q 30 414 20 414 q 39 404 39 414 q 30 395 39 395 q 20 404 20 395 m 655 339 q 655 344 655 339 q 665 349 655 349 q 674 339 674 349 q 665 330 674 330 q 655 339 655 330 m 24 327 q 24 332 24 327 q 33 336 24 336 q 42 327 42 336 q 33 317 42 317 q 24 327 24 317 m 624 268 q 624 272 624 268 q 633 277 624 277 q 643 268 643 277 q 633 259 643 259 q 624 268 624 259 m 28 250 q 28 254 28 250 q 37 259 28 259 q 46 250 46 259 q 37 240 46 240 q 28 250 28 240 m 586 201 q 586 205 586 201 q 595 210 586 210 q 604 201 604 210 q 595 191 604 191 q 586 201 586 191 m 31 172 q 31 177 31 172 q 41 182 31 182 q 50 172 50 182 q 41 163 50 163 q 31 172 31 163 m 538 140 q 538 144 538 140 q 548 149 538 149 q 557 140 557 149 q 548 130 557 130 q 538 140 538 130 m 33 95 q 33 100 33 95 q 42 104 33 104 q 52 95 52 104 q 42 85 52 85 q 33 95 33 85 m 483 86 q 483 91 483 86 q 492 95 483 95 q 502 86 502 95 q 492 77 502 77 q 483 86 483 77 m 41 60 q 41 65 41 60 q 50 69 41 69 q 60 60 60 69 q 50 52 60 52 q 41 60 41 52 m 419 44 q 419 48 419 44 q 428 53 419 53 q 437 44 437 53 q 428 35 437 35 q 419 44 419 35 m 117 43 q 117 48 117 43 q 125 53 117 53 q 134 43 134 53 q 125 34 134 34 q 117 43 117 34 m 191 26 q 191 31 191 26 q 201 35 191 35 q 210 26 210 35 q 201 18 210 18 q 191 26 191 18 m 346 20 q 346 24 346 20 q 355 28 346 28 q 363 20 363 28 q 355 11 363 11 q 346 20 346 11 m 269 16 q 269 20 269 16 q 277 24 269 24 q 286 16 286 24 q 277 7 286 7 q 269 16 269 7 z "},"E":{"ha":680,"x_min":14,"x_max":553,"o":"m 227 952 q 227 957 227 952 q 235 962 227 962 q 244 952 244 962 q 235 943 244 943 q 227 952 227 943 m 304 951 q 304 956 304 951 q 313 960 304 960 q 321 951 321 960 q 313 943 321 943 q 304 951 304 943 m 381 950 q 381 955 381 950 q 390 959 381 959 q 399 950 399 959 q 390 941 399 941 q 381 950 381 941 m 149 950 q 149 955 149 950 q 158 959 149 959 q 167 950 167 959 q 158 941 167 941 q 149 950 149 941 m 536 949 q 536 953 536 949 q 545 958 536 958 q 553 949 553 958 q 545 940 553 940 q 536 949 536 940 m 458 948 q 458 953 458 948 q 467 958 458 958 q 476 948 476 958 q 467 939 476 939 q 458 948 458 939 m 72 943 q 72 948 72 943 q 81 952 72 952 q 91 943 91 952 q 81 935 91 935 q 72 943 72 935 m 23 907 q 23 912 23 907 q 32 917 23 917 q 41 907 41 917 q 32 898 41 898 q 23 907 23 898 m 19 830 q 19 835 19 830 q 28 840 19 840 q 38 830 38 840 q 28 821 38 821 q 19 830 19 821 m 16 753 q 16 758 16 753 q 26 762 16 762 q 35 753 35 762 q 26 743 35 743 q 16 753 16 743 m 15 675 q 15 680 15 675 q 24 685 15 685 q 34 675 34 685 q 24 666 34 666 q 15 675 15 666 m 14 598 q 14 603 14 598 q 23 608 14 608 q 33 598 33 608 q 23 589 33 589 q 14 598 14 589 m 340 529 q 340 534 340 529 q 350 538 340 538 q 359 529 359 538 q 350 519 359 519 q 340 529 340 519 m 263 526 q 263 530 263 526 q 273 534 263 534 q 282 526 282 534 q 273 517 282 517 q 263 526 263 517 m 14 521 q 14 526 14 521 q 23 530 14 530 q 33 521 33 530 q 23 511 33 511 q 14 521 14 511 m 416 519 q 416 523 416 519 q 426 528 416 528 q 435 519 435 528 q 426 510 435 510 q 416 519 416 510 m 186 518 q 186 523 186 518 q 195 528 186 528 q 205 518 205 528 q 195 509 205 509 q 186 518 186 509 m 37 517 q 37 522 37 517 q 46 526 37 526 q 56 517 56 526 q 46 507 56 507 q 37 517 37 507 m 109 513 q 109 517 109 513 q 118 522 109 522 q 127 513 127 522 q 118 503 127 503 q 109 513 109 503 m 14 444 q 14 448 14 444 q 22 453 14 453 q 31 444 31 453 q 22 434 31 434 q 14 444 14 434 m 14 366 q 14 371 14 366 q 22 376 14 376 q 31 366 31 376 q 22 357 31 357 q 14 366 14 357 m 14 289 q 14 294 14 289 q 23 298 14 298 q 33 289 33 298 q 23 279 33 279 q 14 289 14 279 m 15 212 q 15 216 15 212 q 24 221 15 221 q 33 212 33 221 q 24 202 33 202 q 15 212 15 202 m 15 134 q 15 139 15 134 q 24 144 15 144 q 34 134 34 144 q 24 125 34 125 q 15 134 15 125 m 16 57 q 16 62 16 57 q 26 66 16 66 q 35 57 35 66 q 26 47 35 47 q 16 57 16 47 m 515 31 q 515 36 515 31 q 525 41 515 41 q 534 31 534 41 q 525 22 534 22 q 515 31 515 22 m 438 30 q 438 35 438 30 q 448 39 438 39 q 457 30 457 39 q 448 20 457 20 q 438 30 438 20 m 361 28 q 361 33 361 28 q 370 38 361 38 q 380 28 380 38 q 370 19 380 19 q 361 28 361 19 m 283 27 q 283 32 283 27 q 293 37 283 37 q 302 27 302 37 q 293 18 302 18 q 283 27 283 18 m 206 24 q 206 29 206 24 q 216 34 206 34 q 225 24 225 34 q 216 15 225 15 q 206 24 206 15 m 129 21 q 129 25 129 21 q 138 30 129 30 q 148 21 148 30 q 138 12 148 12 q 129 21 129 12 m 52 16 q 52 21 52 16 q 61 26 52 26 q 71 16 71 26 q 61 7 71 7 q 52 16 52 7 z "},"F":{"ha":675,"x_min":14,"x_max":551,"o":"m 68 952 q 68 957 68 952 q 77 962 68 962 q 87 952 87 962 q 77 943 87 943 q 68 952 68 943 m 145 952 q 145 957 145 952 q 155 962 145 962 q 164 952 164 962 q 155 943 164 943 q 145 952 145 943 m 222 952 q 222 957 222 952 q 232 962 222 962 q 241 952 241 962 q 232 943 241 943 q 222 952 222 943 m 300 952 q 300 957 300 952 q 309 962 300 962 q 319 952 319 962 q 309 943 319 943 q 300 952 300 943 m 377 952 q 377 957 377 952 q 387 962 377 962 q 396 952 396 962 q 387 943 396 943 q 377 952 377 943 m 454 952 q 454 957 454 952 q 464 962 454 962 q 473 952 473 962 q 464 943 473 943 q 454 952 454 943 m 532 952 q 532 957 532 952 q 541 962 532 962 q 551 952 551 962 q 541 943 551 943 q 532 952 532 943 m 26 912 q 26 917 26 912 q 35 921 26 921 q 43 912 43 921 q 35 903 43 903 q 26 912 26 903 m 18 836 q 18 840 18 836 q 27 845 18 845 q 37 836 37 845 q 27 826 37 826 q 18 836 18 826 m 14 758 q 14 763 14 758 q 23 768 14 768 q 33 758 33 768 q 23 749 33 749 q 14 758 14 749 m 14 681 q 14 686 14 681 q 22 690 14 690 q 31 681 31 690 q 22 671 31 671 q 14 681 14 671 m 15 604 q 15 608 15 604 q 24 613 15 613 q 34 604 34 613 q 24 594 34 594 q 15 604 15 594 m 19 526 q 19 531 19 526 q 28 536 19 536 q 38 526 38 536 q 28 517 38 517 q 19 526 19 517 m 203 498 q 203 503 203 498 q 213 507 203 507 q 222 498 222 507 q 213 490 222 490 q 203 498 203 490 m 126 496 q 126 500 126 496 q 136 505 126 505 q 145 496 145 505 q 136 487 145 487 q 126 496 126 487 m 281 496 q 281 500 281 496 q 290 505 281 505 q 300 496 300 505 q 290 487 300 487 q 281 496 281 487 m 358 495 q 358 500 358 495 q 368 505 358 505 q 377 495 377 505 q 368 486 377 486 q 358 495 358 486 m 50 485 q 50 489 50 485 q 59 494 50 494 q 68 485 68 494 q 59 476 68 476 q 50 485 50 476 m 24 449 q 24 454 24 449 q 34 458 24 458 q 43 449 43 458 q 34 439 43 439 q 24 449 24 439 m 31 372 q 31 377 31 372 q 40 381 31 381 q 49 372 49 381 q 40 363 49 363 q 31 372 31 363 m 37 295 q 37 299 37 295 q 46 304 37 304 q 56 295 56 304 q 46 286 56 286 q 37 295 37 286 m 42 218 q 42 223 42 218 q 52 228 42 228 q 61 218 61 228 q 52 209 61 209 q 42 218 42 209 m 46 141 q 46 146 46 141 q 56 151 46 151 q 65 141 65 151 q 56 132 65 132 q 46 141 46 132 m 49 64 q 49 68 49 64 q 58 73 49 73 q 66 64 66 73 q 58 54 66 54 q 49 64 49 54 z "},"G":{"ha":884,"x_min":14,"x_max":758,"o":"m 457 958 q 457 962 457 958 q 467 967 457 967 q 476 958 476 967 q 467 948 476 948 q 457 958 457 948 m 380 955 q 380 960 380 955 q 389 964 380 964 q 399 955 399 964 q 389 945 399 945 q 380 955 380 945 m 534 949 q 534 954 534 949 q 544 959 534 959 q 553 949 553 959 q 544 940 553 940 q 534 949 534 940 m 304 940 q 304 945 304 940 q 313 949 304 949 q 323 940 323 949 q 313 930 323 930 q 304 940 304 930 m 609 930 q 609 934 609 930 q 618 939 609 939 q 628 930 628 939 q 618 921 628 921 q 609 930 609 921 m 232 911 q 232 916 232 911 q 241 921 232 921 q 251 911 251 921 q 241 902 251 902 q 232 911 232 902 m 680 898 q 680 903 680 898 q 688 907 680 907 q 697 898 697 907 q 688 888 697 888 q 680 898 680 888 m 168 869 q 168 874 168 869 q 177 879 168 879 q 186 869 186 879 q 177 860 186 860 q 168 869 168 860 m 741 851 q 741 856 741 851 q 749 860 741 860 q 758 851 758 860 q 749 842 758 842 q 741 851 741 842 m 115 814 q 115 819 115 814 q 124 823 115 823 q 133 814 133 823 q 124 804 133 804 q 115 814 115 804 m 75 747 q 75 752 75 747 q 84 757 75 757 q 94 747 94 757 q 84 738 94 738 q 75 747 75 738 m 45 676 q 45 681 45 676 q 54 685 45 685 q 64 676 64 685 q 54 667 64 667 q 45 676 45 667 m 24 602 q 24 607 24 602 q 34 612 24 612 q 43 602 43 612 q 34 593 43 593 q 24 602 24 593 m 14 525 q 14 530 14 525 q 23 534 14 534 q 33 525 33 534 q 23 515 33 515 q 14 525 14 515 m 442 504 q 442 508 442 504 q 451 513 442 513 q 460 504 460 513 q 451 495 460 495 q 442 504 442 495 m 513 500 q 513 505 513 500 q 522 510 513 510 q 532 500 532 510 q 522 491 532 491 q 513 500 513 491 m 590 497 q 590 502 590 497 q 600 506 590 506 q 609 497 609 506 q 600 488 609 488 q 590 497 590 488 m 667 493 q 667 497 667 493 q 677 502 667 502 q 686 493 686 502 q 677 484 686 484 q 667 493 667 484 m 728 475 q 728 479 728 475 q 738 484 728 484 q 747 475 747 484 q 738 465 747 465 q 728 475 728 465 m 14 448 q 14 452 14 448 q 22 457 14 457 q 31 448 31 457 q 22 438 31 438 q 14 448 14 438 m 728 397 q 728 402 728 397 q 738 407 728 407 q 747 397 747 407 q 738 388 747 388 q 728 397 728 388 m 23 372 q 23 376 23 372 q 33 381 23 381 q 42 372 42 381 q 33 362 42 362 q 23 372 23 362 m 728 320 q 728 325 728 320 q 738 330 728 330 q 747 320 747 330 q 738 311 747 311 q 728 320 728 311 m 45 297 q 45 302 45 297 q 54 307 45 307 q 62 297 62 307 q 54 288 62 288 q 45 297 45 288 m 728 243 q 728 248 728 243 q 738 252 728 252 q 747 243 747 252 q 738 233 747 233 q 728 243 728 233 m 76 227 q 76 231 76 227 q 85 236 76 236 q 95 227 95 236 q 85 217 95 217 q 76 227 76 217 m 715 171 q 715 176 715 171 q 724 180 715 180 q 732 171 732 180 q 724 161 732 161 q 715 171 715 161 m 119 163 q 119 168 119 163 q 129 172 119 172 q 138 163 138 172 q 129 153 138 153 q 119 163 119 153 m 659 117 q 659 121 659 117 q 669 126 659 126 q 678 117 678 126 q 669 107 678 107 q 659 117 659 107 m 172 106 q 172 111 172 106 q 181 115 172 115 q 190 106 190 115 q 181 96 190 96 q 172 106 172 96 m 597 71 q 597 75 597 71 q 606 80 597 80 q 616 71 616 80 q 606 61 616 61 q 597 71 597 61 m 233 59 q 233 63 233 59 q 242 68 233 68 q 251 59 251 68 q 242 50 251 50 q 233 59 233 50 m 529 35 q 529 39 529 35 q 538 43 529 43 q 548 35 548 43 q 538 26 548 26 q 529 35 529 26 m 302 25 q 302 30 302 25 q 311 34 302 34 q 320 25 320 34 q 311 16 320 16 q 302 25 302 16 m 454 13 q 454 17 454 13 q 464 22 454 22 q 473 13 473 22 q 464 4 473 4 q 454 13 454 4 m 377 9 q 377 14 377 9 q 387 19 377 19 q 396 9 396 19 q 387 0 396 0 q 377 9 377 0 z "},"H":{"ha":798,"x_min":14,"x_max":673,"o":"m 621 944 q 621 949 621 944 q 631 954 621 954 q 640 944 640 954 q 631 935 640 935 q 621 944 621 935 m 64 944 q 64 949 64 944 q 73 954 64 954 q 81 944 81 954 q 73 935 81 935 q 64 944 64 935 m 628 867 q 628 872 628 867 q 637 876 628 876 q 646 867 646 876 q 637 859 646 859 q 628 867 628 859 m 58 867 q 58 871 58 867 q 67 876 58 876 q 76 867 76 876 q 67 857 76 857 q 58 867 58 857 m 632 790 q 632 794 632 790 q 642 799 632 799 q 651 790 651 799 q 642 781 651 781 q 632 790 632 781 m 53 790 q 53 794 53 790 q 62 799 53 799 q 71 790 71 799 q 62 781 71 781 q 53 790 53 781 m 47 713 q 47 717 47 713 q 57 722 47 722 q 66 713 66 722 q 57 704 66 704 q 47 713 47 704 m 637 713 q 637 717 637 713 q 646 722 637 722 q 655 713 655 722 q 646 704 655 704 q 637 713 637 704 m 42 636 q 42 641 42 636 q 52 646 42 646 q 61 636 61 646 q 52 627 61 627 q 42 636 42 627 m 640 635 q 640 640 640 635 q 650 644 640 644 q 659 635 659 644 q 650 627 659 627 q 640 635 640 627 m 38 559 q 38 564 38 559 q 47 568 38 568 q 57 559 57 568 q 47 549 57 549 q 38 559 38 549 m 644 559 q 644 564 644 559 q 653 568 644 568 q 662 559 662 568 q 653 549 662 549 q 644 559 644 549 m 99 488 q 99 493 99 488 q 109 498 99 498 q 118 488 118 498 q 109 479 118 479 q 99 488 99 479 m 176 488 q 176 492 176 488 q 186 496 176 496 q 195 488 195 496 q 186 479 195 479 q 176 488 176 479 m 254 488 q 254 492 254 488 q 263 496 254 496 q 273 488 273 496 q 263 479 273 479 q 254 488 254 479 m 331 487 q 331 492 331 487 q 340 496 331 496 q 350 487 350 496 q 340 477 350 477 q 331 487 331 477 m 408 487 q 408 492 408 487 q 418 496 408 496 q 427 487 427 496 q 418 477 427 477 q 408 487 408 477 m 486 486 q 486 491 486 486 q 495 495 486 495 q 505 486 505 495 q 495 477 505 477 q 486 486 486 477 m 563 486 q 563 490 563 486 q 572 495 563 495 q 582 486 582 495 q 572 476 582 476 q 563 486 563 476 m 643 483 q 643 488 643 483 q 652 492 643 492 q 662 483 662 492 q 652 473 662 473 q 643 483 643 473 m 34 481 q 34 486 34 481 q 43 491 34 491 q 52 481 52 491 q 43 472 52 472 q 34 481 34 472 m 30 404 q 30 409 30 404 q 39 414 30 414 q 47 404 47 414 q 39 395 47 395 q 30 404 30 395 m 648 404 q 648 409 648 404 q 658 414 648 414 q 667 404 667 414 q 658 395 667 395 q 648 404 648 395 m 26 327 q 26 332 26 327 q 35 336 26 336 q 43 327 43 336 q 35 317 43 317 q 26 327 26 317 m 650 327 q 650 332 650 327 q 659 336 650 336 q 669 327 669 336 q 659 317 669 317 q 650 327 650 317 m 22 250 q 22 254 22 250 q 31 259 22 259 q 41 250 41 259 q 31 240 41 240 q 22 250 22 240 m 651 250 q 651 254 651 250 q 661 259 651 259 q 670 250 670 259 q 661 240 670 240 q 651 250 651 240 m 19 172 q 19 177 19 172 q 28 182 19 182 q 37 172 37 182 q 28 163 37 163 q 19 172 19 163 m 652 172 q 652 177 652 172 q 662 182 652 182 q 671 172 671 182 q 662 163 671 163 q 652 172 652 163 m 16 95 q 16 100 16 95 q 25 104 16 104 q 34 95 34 104 q 25 85 34 85 q 16 95 16 85 m 654 95 q 654 100 654 95 q 663 104 654 104 q 673 95 673 104 q 663 85 673 85 q 654 95 654 85 m 14 20 q 14 25 14 20 q 22 30 14 30 q 31 20 31 30 q 22 11 31 11 q 14 20 14 11 z "},"I":{"ha":193,"x_min":14,"x_max":66,"o":"m 14 944 q 14 949 14 944 q 22 954 14 954 q 31 944 31 954 q 22 935 31 935 q 14 944 14 935 m 20 867 q 20 872 20 867 q 30 876 20 876 q 39 867 39 876 q 30 859 39 859 q 20 867 20 859 m 26 791 q 26 795 26 791 q 35 800 26 800 q 45 791 45 800 q 35 781 45 781 q 26 791 26 781 m 30 713 q 30 718 30 713 q 39 723 30 723 q 49 713 49 723 q 39 704 49 704 q 30 713 30 704 m 33 636 q 33 641 33 636 q 41 646 33 646 q 50 636 50 646 q 41 627 50 627 q 33 636 33 627 m 33 559 q 33 564 33 559 q 42 568 33 568 q 52 559 52 568 q 42 549 52 549 q 33 559 33 549 m 34 481 q 34 486 34 481 q 43 491 34 491 q 53 481 53 491 q 43 472 53 472 q 34 481 34 472 m 34 404 q 34 409 34 404 q 43 414 34 414 q 53 404 53 414 q 43 395 53 395 q 34 404 34 395 m 35 327 q 35 332 35 327 q 45 336 35 336 q 54 327 54 336 q 45 317 54 317 q 35 327 35 317 m 37 250 q 37 254 37 250 q 46 259 37 259 q 56 250 56 259 q 46 240 56 240 q 37 250 37 240 m 39 172 q 39 177 39 172 q 48 182 39 182 q 57 172 57 182 q 48 163 57 163 q 39 172 39 163 m 43 95 q 43 100 43 95 q 52 104 43 104 q 61 95 61 104 q 52 85 61 85 q 43 95 43 85 m 49 20 q 49 25 49 20 q 58 30 49 30 q 66 20 66 30 q 58 11 66 11 q 49 20 49 11 z "},"J":{"ha":492,"x_min":14,"x_max":368,"o":"m 292 944 q 292 949 292 944 q 301 954 292 954 q 311 944 311 954 q 301 935 311 935 q 292 944 292 935 m 301 868 q 301 873 301 868 q 311 878 301 878 q 320 868 320 878 q 311 859 320 859 q 301 868 301 859 m 311 791 q 311 795 311 791 q 320 800 311 800 q 330 791 330 800 q 320 781 330 781 q 311 791 311 781 m 319 714 q 319 719 319 714 q 328 723 319 723 q 338 714 338 723 q 328 705 338 705 q 319 714 319 705 m 326 637 q 326 641 326 637 q 335 646 326 646 q 345 637 345 646 q 335 628 345 628 q 326 637 326 628 m 332 560 q 332 565 332 560 q 342 570 332 570 q 351 560 351 570 q 342 551 351 551 q 332 560 332 551 m 338 483 q 338 488 338 483 q 347 492 338 492 q 357 483 357 492 q 347 473 357 473 q 338 483 338 473 m 343 406 q 343 410 343 406 q 353 415 343 415 q 362 406 362 415 q 353 396 362 396 q 343 406 343 396 m 346 328 q 346 333 346 328 q 355 338 346 338 q 365 328 365 338 q 355 319 365 319 q 346 328 346 319 m 349 251 q 349 256 349 251 q 358 260 349 260 q 368 251 368 260 q 358 241 368 241 q 349 251 349 241 m 349 174 q 349 178 349 174 q 358 183 349 183 q 368 174 368 183 q 358 164 368 164 q 349 174 349 164 m 346 96 q 346 101 346 96 q 355 106 346 106 q 365 96 365 106 q 355 87 365 87 q 346 96 346 87 m 339 20 q 339 24 339 20 q 349 28 339 28 q 358 20 358 28 q 349 11 358 11 q 339 20 339 11 m 326 -57 q 326 -52 326 -57 q 335 -47 326 -47 q 345 -57 345 -47 q 335 -66 345 -66 q 326 -57 326 -66 m 14 -117 q 14 -112 14 -117 q 22 -107 14 -107 q 31 -117 31 -107 q 22 -126 31 -126 q 14 -117 14 -126 m 297 -128 q 297 -124 297 -128 q 306 -119 297 -119 q 315 -128 315 -119 q 306 -137 315 -137 q 297 -128 297 -137 m 79 -145 q 79 -140 79 -145 q 88 -136 79 -136 q 98 -145 98 -136 q 88 -155 98 -155 q 79 -145 79 -155 m 153 -163 q 153 -159 153 -163 q 163 -155 153 -155 q 172 -163 172 -155 q 163 -172 172 -172 q 153 -163 153 -172 m 232 -164 q 232 -159 232 -164 q 241 -155 232 -155 q 250 -164 250 -155 q 241 -174 250 -174 q 232 -164 232 -174 z "},"K":{"ha":780,"x_min":14,"x_max":655,"o":"m 574 947 q 574 952 574 947 q 583 956 574 956 q 593 947 593 956 q 583 939 593 939 q 574 947 574 939 m 43 947 q 43 951 43 947 q 52 956 43 956 q 61 947 61 956 q 52 937 61 937 q 43 947 43 937 m 513 899 q 513 904 513 899 q 522 909 513 909 q 532 899 532 909 q 522 890 532 890 q 513 899 513 890 m 37 871 q 37 876 37 871 q 45 880 37 880 q 54 871 54 880 q 45 863 54 863 q 37 871 37 863 m 456 848 q 456 852 456 848 q 465 857 456 857 q 475 848 475 857 q 465 838 475 838 q 456 848 456 838 m 31 794 q 31 799 31 794 q 41 803 31 803 q 50 794 50 803 q 41 785 50 785 q 31 794 31 785 m 401 793 q 401 797 401 793 q 410 802 401 802 q 419 793 419 802 q 410 784 419 784 q 401 793 401 784 m 349 736 q 349 741 349 736 q 357 746 349 746 q 366 736 366 746 q 357 727 366 727 q 349 736 349 727 m 28 717 q 28 721 28 717 q 38 726 28 726 q 47 717 47 726 q 38 708 47 708 q 28 717 28 708 m 296 680 q 296 684 296 680 q 305 689 296 689 q 315 680 315 689 q 305 670 315 670 q 296 680 296 670 m 28 640 q 28 644 28 640 q 37 648 28 648 q 46 640 46 648 q 37 631 46 631 q 28 640 28 631 m 244 623 q 244 627 244 623 q 253 632 244 632 q 262 623 262 632 q 253 613 262 613 q 244 623 244 613 m 190 568 q 190 572 190 568 q 199 576 190 576 q 208 568 208 576 q 199 559 208 559 q 190 568 190 559 m 27 562 q 27 567 27 562 q 37 571 27 571 q 46 562 46 571 q 37 553 46 553 q 27 562 27 553 m 153 518 q 153 523 153 518 q 162 528 153 528 q 171 518 171 528 q 162 509 171 509 q 153 518 153 509 m 133 515 q 133 519 133 515 q 142 524 133 524 q 152 515 152 524 q 142 506 152 506 q 133 515 133 506 m 28 485 q 28 489 28 485 q 38 494 28 494 q 47 485 47 494 q 38 476 47 476 q 28 485 28 476 m 210 467 q 210 471 210 467 q 220 476 210 476 q 229 467 229 476 q 220 457 229 457 q 210 467 210 457 m 73 465 q 73 470 73 465 q 83 475 73 475 q 92 465 92 475 q 83 456 92 456 q 73 465 73 456 m 267 414 q 267 419 267 414 q 277 423 267 423 q 286 414 286 423 q 277 406 286 406 q 267 414 267 406 m 28 408 q 28 412 28 408 q 38 416 28 416 q 47 408 47 416 q 38 399 47 399 q 28 408 28 399 m 321 359 q 321 364 321 359 q 331 369 321 369 q 340 359 340 369 q 331 350 340 350 q 321 359 321 350 m 28 330 q 28 335 28 330 q 38 339 28 339 q 47 330 47 339 q 38 321 47 321 q 28 330 28 321 m 372 300 q 372 305 372 300 q 381 309 372 309 q 391 300 391 309 q 381 292 391 292 q 372 300 372 292 m 27 253 q 27 257 27 253 q 37 262 27 262 q 46 253 46 262 q 37 244 46 244 q 27 253 27 244 m 423 242 q 423 247 423 242 q 432 251 423 251 q 441 242 441 251 q 432 233 441 233 q 423 242 423 233 m 473 183 q 473 188 473 183 q 483 193 473 193 q 492 183 492 193 q 483 174 492 174 q 473 183 473 174 m 26 176 q 26 181 26 176 q 35 186 26 186 q 43 176 43 186 q 35 167 43 167 q 26 176 26 167 m 525 126 q 525 131 525 126 q 534 136 525 136 q 544 126 544 136 q 534 117 544 117 q 525 126 525 117 m 20 99 q 20 104 20 99 q 30 109 20 109 q 39 99 39 109 q 30 90 39 90 q 20 99 20 90 m 578 71 q 578 75 578 71 q 587 80 578 80 q 597 71 597 80 q 587 61 597 61 q 578 71 578 61 m 14 22 q 14 26 14 22 q 22 31 14 31 q 31 22 31 31 q 22 12 31 12 q 14 22 14 12 m 636 19 q 636 24 636 19 q 646 28 636 28 q 655 19 655 28 q 646 9 655 9 q 636 19 636 9 z "},"L":{"ha":576,"x_min":14,"x_max":452,"o":"m 26 944 q 26 949 26 944 q 35 954 26 954 q 45 944 45 954 q 35 935 45 935 q 26 944 26 935 m 26 867 q 26 871 26 867 q 35 876 26 876 q 45 867 45 876 q 35 857 45 857 q 26 867 26 857 m 26 789 q 26 794 26 789 q 35 799 26 799 q 43 789 43 799 q 35 780 43 780 q 26 789 26 780 m 23 712 q 23 717 23 712 q 33 722 23 722 q 42 712 42 722 q 33 703 42 703 q 23 712 23 703 m 20 635 q 20 640 20 635 q 30 644 20 644 q 39 635 39 644 q 30 625 39 625 q 20 635 20 625 m 18 557 q 18 562 18 557 q 27 567 18 567 q 37 557 37 567 q 27 548 37 548 q 18 557 18 548 m 16 481 q 16 485 16 481 q 25 490 16 490 q 34 481 34 490 q 25 472 34 472 q 16 481 16 472 m 14 404 q 14 408 14 404 q 23 412 14 412 q 33 404 33 412 q 23 395 33 395 q 14 404 14 395 m 14 326 q 14 331 14 326 q 22 335 14 335 q 31 326 31 335 q 22 317 31 317 q 14 326 14 317 m 14 248 q 14 253 14 248 q 23 258 14 258 q 33 248 33 258 q 23 239 33 239 q 14 248 14 239 m 16 172 q 16 176 16 172 q 26 180 16 180 q 35 172 35 180 q 26 163 35 163 q 16 172 16 163 m 23 94 q 23 99 23 94 q 33 103 23 103 q 42 94 42 103 q 33 85 42 85 q 23 94 23 85 m 433 38 q 433 43 433 38 q 442 47 433 47 q 452 38 452 47 q 442 28 452 28 q 433 38 433 28 m 355 32 q 355 36 355 32 q 365 41 355 41 q 374 32 374 41 q 365 23 374 23 q 355 32 355 23 m 50 30 q 50 35 50 30 q 59 39 50 39 q 68 30 68 39 q 59 20 68 20 q 50 30 50 20 m 279 23 q 279 28 279 23 q 289 33 279 33 q 298 23 298 33 q 289 14 298 14 q 279 23 279 14 m 202 15 q 202 20 202 15 q 212 24 202 24 q 221 15 221 24 q 212 5 221 5 q 202 15 202 5 m 125 15 q 125 20 125 15 q 134 24 125 24 q 144 15 144 24 q 134 5 144 5 q 125 15 125 5 z "},"M":{"ha":898,"x_min":14,"x_max":772,"o":"m 88 949 q 88 954 88 949 q 98 959 88 959 q 107 949 107 959 q 98 940 107 940 q 88 949 88 940 m 719 948 q 719 953 719 948 q 728 958 719 958 q 736 948 736 958 q 728 939 736 939 q 719 948 719 939 m 677 895 q 677 900 677 895 q 686 905 677 905 q 696 895 696 905 q 686 886 696 886 q 677 895 677 886 m 115 884 q 115 889 115 884 q 125 894 115 894 q 134 884 134 894 q 125 875 134 875 q 115 884 115 875 m 80 871 q 80 876 80 871 q 89 880 80 880 q 98 871 98 880 q 89 861 98 861 q 80 871 80 861 m 731 871 q 731 876 731 871 q 740 880 731 880 q 749 871 749 880 q 740 861 749 861 q 731 871 731 861 m 640 827 q 640 832 640 827 q 649 837 640 837 q 658 827 658 837 q 649 818 658 818 q 640 827 640 818 m 145 813 q 145 818 145 813 q 155 822 145 822 q 164 813 164 822 q 155 804 164 804 q 145 813 145 804 m 72 793 q 72 798 72 793 q 81 803 72 803 q 91 793 91 803 q 81 784 91 784 q 72 793 72 784 m 735 793 q 735 798 735 793 q 745 803 735 803 q 754 793 754 803 q 745 784 754 784 q 735 793 735 784 m 604 758 q 604 763 604 758 q 613 768 604 768 q 623 758 623 768 q 613 749 623 749 q 604 758 604 749 m 176 743 q 176 747 176 743 q 186 751 176 751 q 195 743 195 751 q 186 734 195 734 q 176 743 176 734 m 66 717 q 66 721 66 717 q 75 726 66 726 q 84 717 84 726 q 75 708 84 708 q 66 717 66 708 m 736 716 q 736 721 736 716 q 746 726 736 726 q 755 716 755 726 q 746 707 755 707 q 736 716 736 707 m 570 689 q 570 694 570 689 q 579 699 570 699 q 589 689 589 699 q 579 680 589 680 q 570 689 570 680 m 208 671 q 208 676 208 671 q 217 681 208 681 q 227 671 227 681 q 217 662 227 662 q 208 671 208 662 m 60 640 q 60 644 60 640 q 69 648 60 648 q 79 640 79 648 q 69 631 79 631 q 60 640 60 631 m 735 639 q 735 644 735 639 q 744 648 735 648 q 753 639 753 648 q 744 629 753 629 q 735 639 735 629 m 537 619 q 537 624 537 619 q 546 628 537 628 q 555 619 555 628 q 546 610 555 610 q 537 619 537 610 m 240 601 q 240 606 240 601 q 249 610 240 610 q 258 601 258 610 q 249 591 258 591 q 240 601 240 591 m 53 563 q 53 568 53 563 q 62 572 53 572 q 72 563 72 572 q 62 553 72 553 q 53 563 53 553 m 734 562 q 734 566 734 562 q 743 571 734 571 q 753 562 753 571 q 743 552 753 552 q 734 562 734 552 m 505 549 q 505 554 505 549 q 513 559 505 559 q 522 549 522 559 q 513 540 522 540 q 505 549 505 540 m 270 530 q 270 535 270 530 q 279 540 270 540 q 289 530 289 540 q 279 521 289 521 q 270 530 270 521 m 47 486 q 47 490 47 486 q 57 495 47 495 q 66 486 66 495 q 57 476 66 476 q 47 486 47 476 m 736 484 q 736 489 736 484 q 746 494 736 494 q 755 484 755 494 q 746 475 755 475 q 736 484 736 475 m 472 479 q 472 484 472 479 q 481 488 472 488 q 491 479 491 488 q 481 469 491 469 q 472 479 472 469 m 300 459 q 300 464 300 459 q 309 468 300 468 q 319 459 319 468 q 309 450 319 450 q 300 459 300 450 m 42 408 q 42 413 42 408 q 52 418 42 418 q 61 408 61 418 q 52 399 61 399 q 42 408 42 399 m 441 408 q 441 412 441 408 q 450 416 441 416 q 460 408 460 416 q 450 399 460 399 q 441 408 441 399 m 741 407 q 741 412 741 407 q 749 416 741 416 q 758 407 758 416 q 749 397 758 397 q 741 407 741 397 m 328 387 q 328 392 328 387 q 338 396 328 396 q 347 387 347 396 q 338 378 347 378 q 328 387 328 378 m 411 336 q 411 341 411 336 q 420 346 411 346 q 429 336 429 346 q 420 327 429 327 q 411 336 411 327 m 37 331 q 37 336 37 331 q 45 340 37 340 q 54 331 54 340 q 45 321 54 321 q 37 331 37 321 m 745 330 q 745 334 745 330 q 754 339 745 339 q 764 330 764 339 q 754 320 764 320 q 745 330 745 320 m 355 315 q 355 319 355 315 q 364 324 355 324 q 373 315 373 324 q 364 305 373 305 q 355 315 355 305 m 380 266 q 380 271 380 266 q 389 275 380 275 q 399 266 399 275 q 389 256 399 256 q 380 266 380 256 m 31 254 q 31 259 31 254 q 40 263 31 263 q 49 254 49 263 q 40 245 49 245 q 31 254 31 245 m 749 252 q 749 257 749 252 q 758 262 749 262 q 768 252 768 262 q 758 243 768 243 q 749 252 749 243 m 24 177 q 24 181 24 177 q 34 186 24 186 q 43 177 43 186 q 34 168 43 168 q 24 177 24 168 m 753 175 q 753 180 753 175 q 762 184 753 184 q 770 175 770 184 q 762 165 770 165 q 753 175 753 165 m 19 100 q 19 105 19 100 q 28 110 19 110 q 38 100 38 110 q 28 91 38 91 q 19 100 19 91 m 754 98 q 754 102 754 98 q 763 107 754 107 q 772 98 772 107 q 763 88 772 88 q 754 98 754 88 m 14 23 q 14 28 14 23 q 22 33 14 33 q 31 23 31 33 q 22 14 31 14 q 14 23 14 14 m 753 22 q 753 26 753 22 q 762 31 753 31 q 770 22 770 31 q 762 12 770 12 q 753 22 753 12 z "},"N":{"ha":757,"x_min":14,"x_max":631,"o":"m 56 949 q 56 954 56 949 q 65 959 56 959 q 75 949 75 959 q 65 940 75 940 q 56 949 56 940 m 612 926 q 612 931 612 926 q 621 936 612 936 q 631 926 631 936 q 621 917 631 917 q 612 926 612 917 m 91 887 q 91 892 91 887 q 100 897 91 897 q 110 887 110 897 q 100 878 110 878 q 91 887 91 878 m 46 872 q 46 877 46 872 q 56 882 46 882 q 65 872 65 882 q 56 863 65 863 q 46 872 46 863 m 612 849 q 612 854 612 849 q 621 859 612 859 q 629 849 629 859 q 621 840 629 840 q 612 849 612 840 m 126 818 q 126 823 126 818 q 136 827 126 827 q 145 818 145 827 q 136 808 145 808 q 126 818 126 808 m 42 795 q 42 800 42 795 q 51 804 42 804 q 60 795 60 804 q 51 785 60 785 q 42 795 42 785 m 609 772 q 609 777 609 772 q 618 781 609 781 q 628 772 628 781 q 618 762 628 762 q 609 772 609 762 m 160 748 q 160 752 160 748 q 169 757 160 757 q 178 748 178 757 q 169 739 178 739 q 160 748 160 739 m 38 718 q 38 723 38 718 q 47 727 38 727 q 57 718 57 727 q 47 709 57 709 q 38 718 38 709 m 608 694 q 608 699 608 694 q 617 704 608 704 q 627 694 627 704 q 617 685 627 685 q 608 694 608 685 m 191 678 q 191 683 191 678 q 201 688 191 688 q 210 678 210 688 q 201 669 210 669 q 191 678 191 669 m 37 641 q 37 645 37 641 q 46 650 37 650 q 56 641 56 650 q 46 632 56 632 q 37 641 37 632 m 606 617 q 606 622 606 617 q 616 627 606 627 q 625 617 625 627 q 616 608 625 608 q 606 617 606 608 m 224 607 q 224 611 224 607 q 233 616 224 616 q 241 607 241 616 q 233 598 241 598 q 224 607 224 598 m 35 564 q 35 568 35 564 q 44 572 35 572 q 53 564 53 572 q 44 555 53 555 q 35 564 35 555 m 605 540 q 605 545 605 540 q 614 549 605 549 q 624 540 624 549 q 614 530 624 530 q 605 540 605 530 m 255 536 q 255 541 255 536 q 264 545 255 545 q 273 536 273 545 q 264 528 273 528 q 255 536 255 528 m 34 486 q 34 491 34 486 q 43 495 34 495 q 52 486 52 495 q 43 477 52 477 q 34 486 34 477 m 286 466 q 286 470 286 466 q 296 475 286 475 q 305 466 305 475 q 296 457 305 457 q 286 466 286 457 m 604 463 q 604 467 604 463 q 613 472 604 472 q 623 463 623 472 q 613 453 623 453 q 604 463 604 453 m 33 409 q 33 413 33 409 q 41 418 33 418 q 50 409 50 418 q 41 400 50 400 q 33 409 33 400 m 319 396 q 319 401 319 396 q 328 406 319 406 q 338 396 338 406 q 328 387 338 387 q 319 396 319 387 m 604 385 q 604 390 604 385 q 613 395 604 395 q 623 385 623 395 q 613 376 623 376 q 604 385 604 376 m 30 332 q 30 336 30 332 q 39 340 30 340 q 49 332 49 340 q 39 323 49 323 q 30 332 30 323 m 353 327 q 353 332 353 327 q 362 336 353 336 q 372 327 372 336 q 362 317 372 317 q 353 327 353 317 m 605 308 q 605 313 605 308 q 614 317 605 317 q 623 308 623 317 q 614 298 623 298 q 605 308 605 298 m 389 258 q 389 262 389 258 q 398 267 389 267 q 407 258 407 267 q 398 248 407 248 q 389 258 389 248 m 27 254 q 27 259 27 254 q 37 263 27 263 q 46 254 46 263 q 37 245 46 245 q 27 254 27 245 m 606 231 q 606 235 606 231 q 616 240 606 240 q 625 231 625 240 q 616 221 625 221 q 606 231 606 221 m 427 191 q 427 195 427 191 q 436 199 427 199 q 445 191 445 199 q 436 182 445 182 q 427 191 427 182 m 24 177 q 24 181 24 177 q 34 186 24 186 q 43 177 43 186 q 34 168 43 168 q 24 177 24 168 m 610 153 q 610 158 610 153 q 619 163 610 163 q 628 153 628 163 q 619 144 628 144 q 610 153 610 144 m 469 126 q 469 131 469 126 q 479 136 469 136 q 488 126 488 136 q 479 117 488 117 q 469 126 469 117 m 20 100 q 20 104 20 100 q 29 109 20 109 q 38 100 38 109 q 29 91 38 91 q 20 100 20 91 m 612 76 q 612 81 612 76 q 621 85 612 85 q 631 76 631 85 q 621 66 631 66 q 612 76 612 66 m 517 65 q 517 70 517 65 q 526 75 517 75 q 536 65 536 75 q 526 56 536 56 q 517 65 517 56 m 14 23 q 14 28 14 23 q 22 33 14 33 q 31 23 31 33 q 22 14 31 14 q 14 23 14 14 m 576 19 q 576 24 576 19 q 585 28 576 28 q 594 19 594 28 q 585 9 594 9 q 576 19 576 9 z "},"O":{"ha":823,"x_min":14,"x_max":697,"o":"m 368 954 q 368 959 368 954 q 377 963 368 963 q 387 954 387 963 q 377 945 387 945 q 368 954 368 945 m 290 947 q 290 951 290 947 q 300 956 290 956 q 309 947 309 956 q 300 937 309 937 q 290 947 290 937 m 444 939 q 444 943 444 939 q 452 948 444 948 q 461 939 461 948 q 452 929 461 929 q 444 939 444 929 m 217 924 q 217 928 217 924 q 227 933 217 933 q 236 924 236 933 q 227 914 236 914 q 217 924 217 914 m 505 894 q 505 899 505 894 q 514 903 505 903 q 524 894 524 903 q 514 884 524 884 q 505 894 505 884 m 152 882 q 152 887 152 882 q 161 891 152 891 q 171 882 171 891 q 161 873 171 873 q 152 882 152 873 m 555 834 q 555 839 555 834 q 564 844 555 844 q 572 834 572 844 q 564 825 572 825 q 555 834 555 825 m 100 825 q 100 830 100 825 q 110 834 100 834 q 119 825 119 834 q 110 817 119 817 q 100 825 100 817 m 593 768 q 593 772 593 768 q 602 777 593 777 q 612 768 612 777 q 602 758 612 758 q 593 768 593 758 m 62 758 q 62 763 62 758 q 72 768 62 768 q 81 758 81 768 q 72 749 81 749 q 62 758 62 749 m 624 696 q 624 701 624 696 q 633 705 624 705 q 643 696 643 705 q 633 688 643 688 q 624 696 624 688 m 37 685 q 37 690 37 685 q 46 694 37 694 q 56 685 56 694 q 46 675 56 675 q 37 685 37 675 m 30 654 q 30 659 30 654 q 39 663 30 663 q 47 654 47 663 q 39 646 47 646 q 30 654 30 646 m 647 623 q 647 627 647 623 q 656 632 647 632 q 666 623 666 632 q 656 613 666 613 q 647 623 647 613 m 18 578 q 18 583 18 578 q 26 587 18 587 q 35 578 35 587 q 26 570 35 570 q 18 578 18 570 m 665 548 q 665 553 665 548 q 674 557 665 557 q 684 548 684 557 q 674 538 684 538 q 665 548 665 538 m 14 501 q 14 506 14 501 q 22 510 14 510 q 31 501 31 510 q 22 492 31 492 q 14 501 14 492 m 675 471 q 675 475 675 471 q 684 480 675 480 q 693 471 693 480 q 684 461 693 461 q 675 471 675 461 m 16 424 q 16 428 16 424 q 25 433 16 433 q 34 424 34 433 q 25 415 34 415 q 16 424 16 415 m 678 394 q 678 398 678 394 q 688 403 678 403 q 697 394 697 403 q 688 385 697 385 q 678 394 678 385 m 26 347 q 26 352 26 347 q 35 357 26 357 q 45 347 45 357 q 35 338 45 338 q 26 347 26 338 m 675 317 q 675 321 675 317 q 684 326 675 326 q 693 317 693 326 q 684 308 693 308 q 675 317 675 308 m 43 272 q 43 276 43 272 q 52 281 43 281 q 61 272 61 281 q 52 263 61 263 q 43 272 43 263 m 662 240 q 662 245 662 240 q 671 250 662 250 q 680 240 680 250 q 671 231 680 231 q 662 240 662 231 m 69 199 q 69 204 69 199 q 79 209 69 209 q 88 199 88 209 q 79 190 88 190 q 69 199 69 190 m 633 168 q 633 173 633 168 q 643 178 633 178 q 652 168 652 178 q 643 159 652 159 q 633 168 633 159 m 107 132 q 107 136 107 132 q 116 141 107 141 q 125 132 125 141 q 116 122 125 122 q 107 132 107 122 m 587 107 q 587 112 587 107 q 597 117 587 117 q 606 107 606 117 q 597 98 606 98 q 587 107 587 98 m 157 74 q 157 78 157 74 q 167 83 157 83 q 176 74 176 83 q 167 65 176 65 q 157 74 157 65 m 524 64 q 524 68 524 64 q 533 73 524 73 q 543 64 543 73 q 533 54 543 54 q 524 64 524 54 m 452 38 q 452 43 452 38 q 460 47 452 47 q 469 38 469 47 q 460 28 469 28 q 452 38 452 28 m 224 34 q 224 39 224 34 q 233 43 224 43 q 241 34 241 43 q 233 24 241 24 q 224 34 224 24 m 376 22 q 376 26 376 22 q 385 31 376 31 q 395 22 395 31 q 385 12 395 12 q 376 22 376 12 m 298 17 q 298 21 298 17 q 308 26 298 26 q 317 17 317 26 q 308 8 317 8 q 298 17 298 8 z "},"P":{"ha":646,"x_min":14,"x_max":521,"o":"m 102 955 q 102 960 102 955 q 111 964 102 964 q 119 955 119 964 q 111 945 119 945 q 102 955 102 945 m 179 953 q 179 957 179 953 q 188 962 179 962 q 197 953 197 962 q 188 944 197 944 q 179 953 179 944 m 24 952 q 24 957 24 952 q 33 962 24 962 q 42 952 42 962 q 33 943 42 943 q 24 952 24 943 m 255 944 q 255 949 255 944 q 264 954 255 954 q 274 944 274 954 q 264 935 274 935 q 255 944 255 935 m 330 925 q 330 930 330 925 q 339 935 330 935 q 349 925 349 935 q 339 916 349 916 q 330 925 330 916 m 399 891 q 399 896 399 891 q 408 901 399 901 q 418 891 418 901 q 408 882 418 882 q 399 891 399 882 m 14 886 q 14 890 14 886 q 22 895 14 895 q 31 886 31 895 q 22 876 31 876 q 14 886 14 876 m 454 838 q 454 842 454 838 q 464 846 454 846 q 473 838 473 846 q 464 829 473 829 q 454 838 454 829 m 14 808 q 14 813 14 808 q 22 818 14 818 q 31 808 31 818 q 22 799 31 799 q 14 808 14 799 m 488 769 q 488 774 488 769 q 498 779 488 779 q 507 769 507 779 q 498 760 507 760 q 488 769 488 760 m 14 731 q 14 736 14 731 q 22 741 14 741 q 31 731 31 741 q 22 722 31 722 q 14 731 14 722 m 502 693 q 502 698 502 693 q 511 703 502 703 q 521 693 521 703 q 511 684 521 684 q 502 693 502 684 m 14 654 q 14 659 14 654 q 22 663 14 663 q 31 654 31 663 q 22 644 31 644 q 14 654 14 644 m 495 616 q 495 621 495 616 q 504 625 495 625 q 513 616 513 625 q 504 606 513 606 q 495 616 495 606 m 14 576 q 14 581 14 576 q 22 586 14 586 q 31 576 31 586 q 22 567 31 567 q 14 576 14 567 m 458 548 q 458 553 458 548 q 468 557 458 557 q 477 548 477 557 q 468 538 477 538 q 458 548 458 538 m 399 500 q 399 504 399 500 q 408 509 399 509 q 418 500 418 509 q 408 491 418 491 q 399 500 399 491 m 14 499 q 14 504 14 499 q 22 509 14 509 q 31 499 31 509 q 22 490 31 490 q 14 499 14 490 m 328 471 q 328 475 328 471 q 337 480 328 480 q 346 471 346 480 q 337 461 346 461 q 328 471 328 461 m 20 456 q 20 461 20 456 q 30 465 20 465 q 39 456 39 465 q 30 448 39 448 q 20 456 20 448 m 252 454 q 252 459 252 454 q 262 464 252 464 q 271 454 271 464 q 262 445 271 445 q 252 454 252 445 m 98 449 q 98 454 98 449 q 107 458 98 458 q 117 449 117 458 q 107 439 117 439 q 98 449 98 439 m 175 448 q 175 453 175 448 q 184 457 175 457 q 194 448 194 457 q 184 439 194 439 q 175 448 175 439 m 14 422 q 14 427 14 422 q 22 431 14 431 q 31 422 31 431 q 22 412 31 412 q 14 422 14 412 m 14 345 q 14 349 14 345 q 22 354 14 354 q 31 345 31 354 q 22 335 31 335 q 14 345 14 335 m 14 267 q 14 272 14 267 q 22 277 14 277 q 31 267 31 277 q 22 258 31 258 q 14 267 14 258 m 14 190 q 14 195 14 190 q 22 199 14 199 q 31 190 31 199 q 22 180 31 180 q 14 190 14 180 m 14 113 q 14 117 14 113 q 22 122 14 122 q 31 113 31 122 q 22 103 31 103 q 14 113 14 103 m 14 35 q 14 40 14 35 q 22 45 14 45 q 31 35 31 45 q 22 26 31 26 q 14 35 14 26 z "},"Q":{"ha":918,"x_min":14,"x_max":792,"o":"m 385 956 q 385 961 385 956 q 394 966 385 966 q 403 956 403 966 q 394 947 403 947 q 385 956 385 947 m 308 948 q 308 953 308 948 q 317 958 308 958 q 327 948 327 958 q 317 939 327 939 q 308 948 308 939 m 461 947 q 461 951 461 947 q 471 956 461 956 q 480 947 480 956 q 471 937 480 937 q 461 947 461 937 m 534 922 q 534 926 534 922 q 544 930 534 930 q 553 922 553 930 q 544 913 553 913 q 534 922 534 913 m 236 922 q 236 926 236 922 q 245 930 236 930 q 254 922 254 930 q 245 913 254 913 q 236 922 236 913 m 601 883 q 601 888 601 883 q 610 892 601 892 q 620 883 620 892 q 610 873 620 873 q 601 883 601 873 m 171 880 q 171 884 171 880 q 180 888 171 888 q 190 880 190 888 q 180 871 190 871 q 171 880 171 871 m 659 832 q 659 837 659 832 q 669 841 659 841 q 678 832 678 841 q 669 823 678 823 q 659 832 659 823 m 117 825 q 117 830 117 825 q 125 834 117 834 q 134 825 134 834 q 125 817 134 817 q 117 825 117 817 m 707 772 q 707 777 707 772 q 716 781 707 781 q 726 772 726 781 q 716 762 726 762 q 707 772 707 762 m 72 762 q 72 767 72 762 q 81 772 72 772 q 91 762 91 772 q 81 753 91 753 q 72 762 72 753 m 743 704 q 743 709 743 704 q 753 713 743 713 q 762 704 762 713 q 753 694 762 694 q 743 704 743 694 m 41 692 q 41 696 41 692 q 50 701 41 701 q 58 692 58 701 q 50 682 58 682 q 41 692 41 682 m 766 630 q 766 634 766 630 q 776 639 766 639 q 785 630 785 639 q 776 621 785 621 q 766 630 766 621 m 20 617 q 20 622 20 617 q 30 627 20 627 q 39 617 39 627 q 30 608 39 608 q 20 617 20 608 m 774 548 q 774 553 774 548 q 783 557 774 557 q 792 548 792 557 q 783 538 792 538 q 774 548 774 538 m 14 540 q 14 545 14 540 q 22 549 14 549 q 31 540 31 549 q 22 530 31 530 q 14 540 14 530 m 770 466 q 770 470 770 466 q 780 475 770 475 q 789 466 789 475 q 780 457 789 457 q 770 466 770 457 m 16 463 q 16 467 16 463 q 26 472 16 472 q 35 463 35 472 q 26 453 35 453 q 16 463 16 453 m 765 389 q 765 393 765 389 q 774 397 765 397 q 783 389 783 397 q 774 380 783 380 q 765 389 765 380 m 30 387 q 30 391 30 387 q 39 396 30 396 q 49 387 49 396 q 39 377 49 377 q 30 387 30 377 m 53 313 q 53 317 53 313 q 62 321 53 321 q 72 313 72 321 q 62 304 72 304 q 53 313 53 304 m 754 312 q 754 317 754 312 q 763 321 754 321 q 772 312 772 321 q 763 302 772 302 q 754 312 754 302 m 85 243 q 85 248 85 243 q 95 252 85 252 q 104 243 104 252 q 95 233 104 233 q 85 243 85 233 m 736 237 q 736 241 736 237 q 745 245 736 245 q 754 237 754 245 q 745 228 754 228 q 736 237 736 228 m 408 232 q 408 237 408 232 q 418 241 408 241 q 427 232 427 241 q 418 222 427 222 q 408 232 408 222 m 127 178 q 127 182 127 178 q 137 187 127 187 q 146 178 146 187 q 137 168 146 168 q 127 178 127 168 m 709 164 q 709 169 709 164 q 719 174 709 174 q 728 164 728 174 q 719 155 728 155 q 709 164 709 155 m 438 160 q 438 165 438 160 q 448 170 438 170 q 457 160 457 170 q 448 151 457 151 q 438 160 438 151 m 179 121 q 179 125 179 121 q 189 130 179 130 q 198 121 198 130 q 189 111 198 111 q 179 121 179 111 m 669 99 q 669 104 669 99 q 677 109 669 109 q 686 99 686 109 q 677 90 686 90 q 669 99 669 90 m 479 94 q 479 99 479 94 q 488 103 479 103 q 496 94 496 103 q 488 85 496 85 q 479 94 479 85 m 240 73 q 240 78 240 73 q 250 83 240 83 q 259 73 259 83 q 250 64 259 64 q 240 73 240 64 m 610 50 q 610 54 610 50 q 619 58 610 58 q 628 50 628 58 q 619 41 628 41 q 610 50 610 41 m 309 38 q 309 43 309 38 q 318 47 309 47 q 327 38 327 47 q 318 28 327 28 q 309 38 309 28 m 530 29 q 530 34 530 29 q 539 38 530 38 q 548 29 548 38 q 539 20 548 20 q 530 29 530 20 m 384 18 q 384 23 384 18 q 393 27 384 27 q 401 18 401 27 q 393 9 401 9 q 384 18 384 9 m 461 14 q 461 19 461 14 q 470 23 461 23 q 479 14 479 23 q 470 5 479 5 q 461 14 461 5 m 574 -27 q 574 -22 574 -27 q 583 -18 574 -18 q 593 -27 593 -18 q 583 -37 593 -37 q 574 -27 574 -37 m 623 -87 q 623 -82 623 -87 q 632 -77 623 -77 q 642 -87 642 -77 q 632 -96 642 -96 q 623 -87 623 -96 m 670 -149 q 670 -144 670 -149 q 679 -140 670 -140 q 688 -149 688 -140 q 679 -157 688 -157 q 670 -149 670 -157 z "},"R":{"ha":689,"x_min":14,"x_max":564,"o":"m 263 951 q 263 956 263 951 q 272 960 263 960 q 281 951 281 960 q 272 943 281 943 q 263 951 263 943 m 186 950 q 186 955 186 950 q 195 959 186 959 q 203 950 203 959 q 195 941 203 941 q 186 950 186 941 m 20 945 q 20 949 20 945 q 30 954 20 954 q 39 945 39 954 q 30 936 39 936 q 20 945 20 936 m 339 939 q 339 944 339 939 q 349 948 339 948 q 358 939 358 948 q 349 930 358 930 q 339 939 339 930 m 109 937 q 109 942 109 937 q 118 947 109 947 q 127 937 127 947 q 118 928 127 928 q 109 937 109 928 m 35 914 q 35 919 35 914 q 45 924 35 924 q 54 914 54 924 q 45 905 54 905 q 35 914 35 905 m 411 911 q 411 916 411 911 q 420 921 411 921 q 430 911 430 921 q 420 902 430 902 q 411 911 411 902 m 20 872 q 20 877 20 872 q 30 882 20 882 q 39 872 39 882 q 30 863 39 863 q 20 872 20 863 m 475 867 q 475 872 475 867 q 484 876 475 876 q 492 867 492 876 q 484 859 492 859 q 475 867 475 859 m 524 808 q 524 813 524 808 q 532 818 524 818 q 541 808 541 818 q 532 799 541 799 q 524 808 524 799 m 22 795 q 22 800 22 795 q 31 804 22 804 q 39 795 39 804 q 31 785 39 785 q 22 795 22 785 m 545 735 q 545 740 545 735 q 555 745 545 745 q 564 735 564 745 q 555 726 564 726 q 545 735 545 726 m 22 718 q 22 722 22 718 q 31 727 22 727 q 41 718 41 727 q 31 708 41 708 q 22 718 22 708 m 533 659 q 533 664 533 659 q 543 669 533 669 q 552 659 552 669 q 543 650 552 650 q 533 659 533 650 m 23 640 q 23 645 23 640 q 33 650 23 650 q 42 640 42 650 q 33 631 42 631 q 23 640 23 631 m 496 592 q 496 596 496 592 q 505 601 496 601 q 514 592 514 601 q 505 583 514 583 q 496 592 496 583 m 24 563 q 24 568 24 563 q 34 572 24 572 q 43 563 43 572 q 34 553 43 553 q 24 563 24 553 m 444 536 q 444 541 444 536 q 452 545 444 545 q 461 536 461 545 q 452 526 461 526 q 444 536 444 526 m 381 489 q 381 493 381 489 q 391 498 381 498 q 400 489 400 498 q 391 480 400 480 q 381 489 381 480 m 26 486 q 26 490 26 486 q 35 495 26 495 q 43 486 43 495 q 35 476 43 476 q 26 486 26 476 m 313 452 q 313 456 313 452 q 323 461 313 461 q 332 452 332 461 q 323 442 332 442 q 313 452 313 442 m 247 422 q 247 427 247 422 q 256 431 247 431 q 266 422 266 431 q 256 412 266 412 q 247 422 247 412 m 165 409 q 165 413 165 409 q 175 418 165 418 q 184 409 184 418 q 175 400 184 400 q 165 409 165 400 m 26 408 q 26 413 26 408 q 35 418 26 418 q 45 408 45 418 q 35 399 45 399 q 26 408 26 399 m 88 404 q 88 409 88 404 q 98 414 88 414 q 107 404 107 414 q 98 395 107 395 q 88 404 88 395 m 298 359 q 298 364 298 359 q 308 369 298 369 q 317 359 317 369 q 308 350 317 350 q 298 359 298 350 m 26 331 q 26 336 26 331 q 35 340 26 340 q 43 331 43 340 q 35 321 43 321 q 26 331 26 321 m 340 294 q 340 299 340 294 q 350 304 340 304 q 359 294 359 304 q 350 285 359 285 q 340 294 340 285 m 24 254 q 24 258 24 254 q 34 263 24 263 q 43 254 43 263 q 34 244 43 244 q 24 254 24 244 m 378 227 q 378 232 378 227 q 388 236 378 236 q 397 227 397 236 q 388 218 397 218 q 378 227 378 218 m 22 176 q 22 181 22 176 q 31 186 22 186 q 41 176 41 186 q 31 167 41 167 q 22 176 22 167 m 416 160 q 416 165 416 160 q 426 170 416 170 q 435 160 435 170 q 426 151 435 151 q 416 160 416 151 m 19 99 q 19 104 19 99 q 28 109 19 109 q 37 99 37 109 q 28 90 37 90 q 19 99 19 90 m 460 96 q 460 101 460 96 q 469 106 460 106 q 479 96 479 106 q 469 87 479 87 q 460 96 460 87 m 511 39 q 511 44 511 39 q 521 49 511 49 q 530 39 530 49 q 521 30 530 30 q 511 39 511 30 m 14 22 q 14 26 14 22 q 22 31 14 31 q 31 22 31 31 q 22 12 31 12 q 14 22 14 12 z "},"S":{"ha":718,"x_min":14,"x_max":591,"o":"m 243 957 q 243 961 243 957 q 252 966 243 966 q 260 957 260 966 q 252 948 260 948 q 243 957 243 948 m 320 955 q 320 960 320 955 q 330 964 320 964 q 339 955 339 964 q 330 945 339 945 q 320 955 320 945 m 167 941 q 167 946 167 941 q 176 951 167 951 q 186 941 186 951 q 176 932 186 932 q 167 941 167 932 m 395 935 q 395 940 395 935 q 404 944 395 944 q 412 935 412 944 q 404 926 412 926 q 395 935 395 926 m 98 907 q 98 911 98 907 q 107 916 98 916 q 117 907 117 916 q 107 898 117 898 q 98 907 98 898 m 461 897 q 461 901 461 897 q 471 906 461 906 q 480 897 480 906 q 471 887 480 887 q 461 897 461 887 m 43 852 q 43 857 43 852 q 53 861 43 861 q 62 852 62 861 q 53 844 62 844 q 43 852 43 844 m 514 841 q 514 846 514 841 q 524 850 514 850 q 533 841 533 850 q 524 831 533 831 q 514 841 514 831 m 16 781 q 16 786 16 781 q 26 791 16 791 q 35 781 35 791 q 26 772 35 772 q 16 781 16 772 m 22 704 q 22 709 22 704 q 31 713 22 713 q 41 704 41 713 q 31 694 41 694 q 22 704 22 694 m 68 644 q 68 649 68 644 q 77 654 68 654 q 87 644 87 654 q 77 635 87 635 q 68 644 68 635 m 134 606 q 134 610 134 606 q 144 614 134 614 q 153 606 153 614 q 144 597 153 597 q 134 606 134 597 m 208 579 q 208 584 208 579 q 217 589 208 589 q 227 579 227 589 q 217 570 227 570 q 208 579 208 570 m 281 557 q 281 561 281 557 q 290 566 281 566 q 300 557 300 566 q 290 548 300 548 q 281 557 281 548 m 355 534 q 355 538 355 534 q 365 543 355 543 q 374 534 374 543 q 365 525 374 525 q 355 534 355 525 m 427 507 q 427 511 427 507 q 437 515 427 515 q 446 507 446 515 q 437 498 446 498 q 427 507 427 498 m 496 471 q 496 475 496 471 q 505 480 496 480 q 514 471 514 480 q 505 461 514 461 q 496 471 496 461 m 547 414 q 547 418 547 414 q 556 423 547 423 q 566 414 566 423 q 556 404 566 404 q 547 414 547 404 m 571 340 q 571 345 571 340 q 581 350 571 350 q 590 340 590 350 q 581 331 590 331 q 571 340 571 331 m 572 263 q 572 268 572 263 q 582 273 572 273 q 591 263 591 273 q 582 254 591 254 q 572 263 572 254 m 556 188 q 556 192 556 188 q 566 197 556 197 q 575 188 575 197 q 566 179 575 179 q 556 188 556 179 m 14 174 q 14 178 14 174 q 22 183 14 183 q 31 174 31 183 q 22 164 31 164 q 14 174 14 164 m 525 117 q 525 122 525 117 q 534 126 525 126 q 544 117 544 126 q 534 109 544 109 q 525 117 525 109 m 52 107 q 52 112 52 107 q 60 117 52 117 q 69 107 69 117 q 60 98 69 98 q 52 107 52 98 m 477 57 q 477 62 477 57 q 486 66 477 66 q 495 57 495 66 q 486 47 495 47 q 477 57 477 47 m 109 57 q 109 62 109 57 q 118 66 109 66 q 127 57 127 66 q 118 47 127 47 q 109 57 109 47 m 180 26 q 180 31 180 26 q 189 35 180 35 q 198 26 198 35 q 189 18 198 18 q 180 26 180 18 m 411 20 q 411 24 411 20 q 420 28 411 28 q 429 20 429 28 q 420 11 429 11 q 411 20 411 11 m 256 14 q 256 18 256 14 q 265 23 256 23 q 274 14 274 23 q 265 4 274 4 q 256 14 256 4 m 334 12 q 334 17 334 12 q 342 22 334 22 q 351 12 351 22 q 342 3 351 3 q 334 12 334 3 z "},"T":{"ha":929,"x_min":14,"x_max":803,"o":"m 244 952 q 244 957 244 952 q 254 962 244 962 q 263 952 263 962 q 254 943 263 943 q 244 952 244 943 m 321 951 q 321 956 321 951 q 331 960 321 960 q 340 951 340 960 q 331 943 340 943 q 321 951 321 943 m 167 950 q 167 955 167 950 q 176 959 167 959 q 186 950 186 959 q 176 941 186 941 q 167 950 167 941 m 399 948 q 399 953 399 948 q 408 958 399 958 q 418 948 418 958 q 408 939 418 939 q 399 948 399 939 m 90 945 q 90 949 90 945 q 99 954 90 954 q 109 945 109 954 q 99 936 109 936 q 90 945 90 936 m 476 944 q 476 949 476 944 q 486 954 476 954 q 495 944 495 954 q 486 935 495 935 q 476 944 476 935 m 553 940 q 553 945 553 940 q 563 949 553 949 q 572 940 572 949 q 563 930 572 930 q 553 940 553 930 m 631 936 q 631 941 631 936 q 640 945 631 945 q 648 936 648 945 q 640 926 648 926 q 631 936 631 926 m 14 935 q 14 939 14 935 q 22 944 14 944 q 31 935 31 944 q 22 925 31 925 q 14 935 14 925 m 708 933 q 708 938 708 933 q 717 943 708 943 q 726 933 726 943 q 717 924 726 924 q 708 933 708 924 m 785 933 q 785 938 785 933 q 794 943 785 943 q 803 933 803 943 q 794 924 803 924 q 785 933 785 924 m 414 926 q 414 931 414 926 q 423 936 414 936 q 433 926 433 936 q 423 917 433 917 q 414 926 414 917 m 407 849 q 407 854 407 849 q 416 859 407 859 q 426 849 426 859 q 416 840 426 840 q 407 849 407 840 m 400 772 q 400 777 400 772 q 410 781 400 781 q 419 772 419 781 q 410 762 419 762 q 400 772 400 762 m 395 694 q 395 699 395 694 q 404 704 395 704 q 412 694 412 704 q 404 685 412 685 q 395 694 395 685 m 388 618 q 388 622 388 618 q 397 627 388 627 q 407 618 407 627 q 397 609 407 609 q 388 618 388 609 m 382 541 q 382 545 382 541 q 391 549 382 549 q 400 541 400 549 q 391 532 400 532 q 382 541 382 532 m 377 464 q 377 469 377 464 q 386 473 377 473 q 395 464 395 473 q 386 454 395 454 q 377 464 377 454 m 372 387 q 372 391 372 387 q 381 396 372 396 q 391 387 391 396 q 381 377 391 377 q 372 387 372 377 m 368 309 q 368 314 368 309 q 376 319 368 319 q 385 309 385 319 q 376 300 385 300 q 368 309 368 300 m 363 232 q 363 237 363 232 q 372 241 363 241 q 381 232 381 241 q 372 222 381 222 q 363 232 363 222 m 361 155 q 361 159 361 155 q 370 164 361 164 q 378 155 378 164 q 370 145 378 145 q 361 155 361 145 m 358 77 q 358 82 358 77 q 368 87 358 87 q 377 77 377 87 q 368 68 377 68 q 358 77 358 68 z "},"U":{"ha":705,"x_min":14,"x_max":579,"o":"m 42 944 q 42 949 42 944 q 52 954 42 954 q 61 944 61 954 q 52 935 61 935 q 42 944 42 935 m 532 918 q 532 922 532 918 q 541 926 532 926 q 551 918 551 926 q 541 909 551 909 q 532 918 532 909 m 34 867 q 34 872 34 867 q 43 876 34 876 q 53 867 53 876 q 43 859 53 859 q 34 867 34 859 m 548 842 q 548 846 548 842 q 557 850 548 850 q 566 842 566 850 q 557 833 566 833 q 548 842 548 833 m 26 791 q 26 795 26 791 q 35 800 26 800 q 45 791 45 800 q 35 781 45 781 q 26 791 26 781 m 556 765 q 556 770 556 765 q 566 774 556 774 q 575 765 575 774 q 566 755 575 755 q 556 765 556 755 m 19 713 q 19 718 19 713 q 28 723 19 723 q 38 713 38 723 q 28 704 38 704 q 19 713 19 704 m 562 688 q 562 692 562 688 q 570 697 562 697 q 579 688 579 697 q 570 678 579 678 q 562 688 562 678 m 15 636 q 15 641 15 636 q 24 646 15 646 q 34 636 34 646 q 24 627 34 627 q 15 636 15 627 m 560 610 q 560 615 560 610 q 570 620 560 620 q 579 610 579 620 q 570 601 579 601 q 560 610 560 601 m 14 559 q 14 564 14 559 q 22 568 14 568 q 31 559 31 568 q 22 549 31 549 q 14 559 14 549 m 557 533 q 557 538 557 533 q 567 543 557 543 q 576 533 576 543 q 567 524 576 524 q 557 533 557 524 m 15 481 q 15 486 15 481 q 24 491 15 491 q 34 481 34 491 q 24 472 34 472 q 15 481 15 472 m 552 456 q 552 460 552 456 q 562 465 552 465 q 571 456 571 465 q 562 446 571 446 q 552 456 552 446 m 23 405 q 23 409 23 405 q 32 414 23 414 q 41 405 41 414 q 32 396 41 396 q 23 405 23 396 m 545 379 q 545 384 545 379 q 554 388 545 388 q 563 379 563 388 q 554 370 563 370 q 545 379 545 370 m 35 328 q 35 333 35 328 q 45 338 35 338 q 54 328 54 338 q 45 319 54 319 q 35 328 35 319 m 536 302 q 536 307 536 302 q 545 312 536 312 q 555 302 555 312 q 545 293 555 293 q 536 302 536 293 m 56 254 q 56 258 56 254 q 65 263 56 263 q 75 254 75 263 q 65 244 75 244 q 56 254 56 244 m 522 227 q 522 231 522 227 q 531 236 522 236 q 540 227 540 236 q 531 217 540 217 q 522 227 522 217 m 84 182 q 84 187 84 182 q 94 191 84 191 q 103 182 103 191 q 94 174 103 174 q 84 182 84 174 m 495 154 q 495 158 495 154 q 505 163 495 163 q 514 154 514 163 q 505 145 514 145 q 495 154 495 145 m 122 115 q 122 120 122 115 q 132 125 122 125 q 141 115 141 125 q 132 106 141 106 q 122 115 122 106 m 453 89 q 453 93 453 89 q 463 98 453 98 q 472 89 472 98 q 463 80 472 80 q 453 89 453 80 m 179 62 q 179 67 179 62 q 188 72 179 72 q 197 62 197 72 q 188 53 197 53 q 179 62 179 53 m 395 39 q 395 44 395 39 q 404 49 395 49 q 414 39 414 49 q 404 30 414 30 q 395 39 395 30 m 245 25 q 245 30 245 25 q 255 34 245 34 q 264 25 264 34 q 255 16 264 16 q 245 25 245 16 m 323 15 q 323 20 323 15 q 332 24 323 24 q 340 15 340 24 q 332 5 340 5 q 323 15 323 5 z "},"V":{"ha":887,"x_min":14,"x_max":761,"o":"m 14 945 q 14 950 14 945 q 22 955 14 955 q 31 945 31 955 q 22 936 31 936 q 14 945 14 936 m 742 940 q 742 945 742 940 q 751 949 742 949 q 761 940 761 949 q 751 930 761 930 q 742 940 742 930 m 45 874 q 45 879 45 874 q 54 883 45 883 q 62 874 62 883 q 54 865 62 865 q 45 874 45 865 m 718 867 q 718 871 718 867 q 726 876 718 876 q 735 867 735 876 q 726 857 735 857 q 718 867 718 857 m 73 802 q 73 807 73 802 q 82 811 73 811 q 91 802 91 811 q 82 793 91 793 q 73 802 73 793 m 694 793 q 694 797 694 793 q 703 802 694 802 q 712 793 712 802 q 703 784 712 784 q 694 793 694 784 m 99 730 q 99 734 99 730 q 109 739 99 739 q 118 730 118 739 q 109 720 118 720 q 99 730 99 720 m 671 719 q 671 724 671 719 q 681 728 671 728 q 690 719 690 728 q 681 709 690 709 q 671 719 671 709 m 125 656 q 125 661 125 656 q 134 666 125 666 q 142 656 142 666 q 134 647 142 647 q 125 656 125 647 m 650 644 q 650 649 650 644 q 659 654 650 654 q 669 644 669 654 q 659 635 669 635 q 650 644 650 635 m 149 583 q 149 588 149 583 q 158 593 149 593 q 167 583 167 593 q 158 574 167 574 q 149 583 149 574 m 627 571 q 627 576 627 571 q 635 581 627 581 q 644 571 644 581 q 635 562 644 562 q 627 571 627 562 m 172 510 q 172 515 172 510 q 182 519 172 519 q 191 510 191 519 q 182 500 191 500 q 172 510 172 500 m 600 498 q 600 503 600 498 q 609 507 600 507 q 618 498 618 507 q 609 490 618 490 q 600 498 600 490 m 197 436 q 197 440 197 436 q 206 445 197 445 q 216 436 216 445 q 206 427 216 427 q 197 436 197 427 m 568 427 q 568 432 568 427 q 578 437 568 437 q 587 427 587 437 q 578 418 587 418 q 568 427 568 418 m 221 363 q 221 367 221 363 q 231 372 221 372 q 240 363 240 372 q 231 354 240 354 q 221 363 221 354 m 538 356 q 538 360 538 356 q 548 365 538 365 q 557 356 557 365 q 548 347 557 347 q 538 356 538 347 m 247 290 q 247 295 247 290 q 256 300 247 300 q 264 290 264 300 q 256 281 264 281 q 247 290 247 281 m 510 285 q 510 290 510 285 q 519 294 510 294 q 528 285 528 294 q 519 275 528 275 q 510 285 510 275 m 274 218 q 274 222 274 218 q 283 227 274 227 q 292 218 292 227 q 283 209 292 209 q 274 218 274 209 m 479 214 q 479 218 479 214 q 488 222 479 222 q 498 214 498 222 q 488 205 498 205 q 479 214 479 205 m 302 146 q 302 150 302 146 q 312 155 302 155 q 321 146 321 155 q 312 137 321 137 q 302 146 302 137 m 446 144 q 446 149 446 144 q 456 153 446 153 q 465 144 465 153 q 456 134 465 134 q 446 144 446 134 m 335 76 q 335 81 335 76 q 345 85 335 85 q 354 76 354 85 q 345 66 354 66 q 335 76 335 66 m 411 75 q 411 79 411 75 q 420 84 411 84 q 430 75 430 84 q 420 65 430 65 q 411 75 411 65 m 372 10 q 372 15 372 10 q 380 19 372 19 q 389 10 389 19 q 380 1 389 1 q 372 10 372 1 z "},"W":{"ha":1199,"x_min":14,"x_max":1074,"o":"m 522 949 q 522 953 522 949 q 532 958 522 958 q 541 949 541 958 q 532 940 541 940 q 522 949 522 940 m 14 944 q 14 949 14 944 q 22 954 14 954 q 31 944 31 954 q 22 935 31 935 q 14 944 14 935 m 1055 926 q 1055 930 1055 926 q 1065 935 1055 935 q 1074 926 1074 935 q 1065 917 1074 917 q 1055 926 1055 917 m 538 882 q 538 886 538 882 q 547 891 538 891 q 556 882 556 891 q 547 872 556 872 q 538 882 538 872 m 502 873 q 502 877 502 873 q 511 882 502 882 q 519 873 519 882 q 511 864 519 864 q 502 873 502 864 m 22 867 q 22 872 22 867 q 31 876 22 876 q 39 867 39 876 q 31 859 39 859 q 22 867 22 859 m 1043 849 q 1043 854 1043 849 q 1052 859 1043 859 q 1061 849 1061 859 q 1052 840 1061 840 q 1043 849 1043 840 m 552 806 q 552 810 552 806 q 562 815 552 815 q 571 806 571 815 q 562 796 571 796 q 552 806 552 796 m 480 798 q 480 803 480 798 q 489 807 480 807 q 498 798 498 807 q 489 789 498 789 q 480 798 480 789 m 34 791 q 34 795 34 791 q 43 800 34 800 q 52 791 52 800 q 43 781 52 781 q 34 791 34 781 m 1027 774 q 1027 778 1027 774 q 1036 783 1027 783 q 1046 774 1046 783 q 1036 765 1046 765 q 1027 774 1027 765 m 566 729 q 566 733 566 729 q 574 738 566 738 q 583 729 583 738 q 574 720 583 720 q 566 729 566 720 m 457 724 q 457 729 457 724 q 467 734 457 734 q 476 724 476 734 q 467 715 476 715 q 457 724 457 715 m 49 715 q 49 720 49 715 q 58 724 49 724 q 68 715 68 724 q 58 707 68 707 q 49 715 49 707 m 1009 699 q 1009 703 1009 699 q 1019 708 1009 708 q 1028 699 1028 708 q 1019 689 1028 689 q 1009 699 1009 689 m 579 653 q 579 657 579 653 q 588 662 579 662 q 597 653 597 662 q 588 644 597 644 q 579 653 579 644 m 435 650 q 435 655 435 650 q 445 659 435 659 q 454 650 454 659 q 445 642 454 642 q 435 650 435 642 m 68 640 q 68 645 68 640 q 77 650 68 650 q 85 640 85 650 q 77 631 85 631 q 68 640 68 631 m 990 624 q 990 629 990 624 q 1000 633 990 633 q 1009 624 1009 633 q 1000 614 1009 614 q 990 624 990 614 m 593 577 q 593 582 593 577 q 602 586 593 586 q 612 577 612 586 q 602 568 612 568 q 593 577 593 568 m 414 576 q 414 581 414 576 q 422 586 414 586 q 431 576 431 586 q 422 567 431 567 q 414 576 414 567 m 87 566 q 87 570 87 566 q 96 575 87 575 q 106 566 106 575 q 96 556 106 556 q 87 566 87 556 m 970 549 q 970 554 970 549 q 979 559 970 559 q 987 549 987 559 q 979 540 987 540 q 970 549 970 540 m 391 502 q 391 507 391 502 q 400 511 391 511 q 410 502 410 511 q 400 492 410 492 q 391 502 391 492 m 609 502 q 609 507 609 502 q 618 511 609 511 q 628 502 628 511 q 618 492 628 492 q 609 502 609 492 m 110 492 q 110 496 110 492 q 119 500 110 500 q 127 492 127 500 q 119 483 127 483 q 110 492 110 483 m 948 475 q 948 479 948 475 q 957 484 948 484 q 966 475 966 484 q 957 465 966 465 q 948 475 948 465 m 369 428 q 369 432 369 428 q 378 437 369 437 q 388 428 388 437 q 378 419 388 419 q 369 428 369 419 m 628 427 q 628 431 628 427 q 637 435 628 435 q 647 427 647 435 q 637 418 647 418 q 628 427 628 418 m 133 418 q 133 422 133 418 q 142 427 133 427 q 151 418 151 427 q 142 408 151 408 q 133 418 133 408 m 925 401 q 925 405 925 401 q 935 410 925 410 q 944 401 944 410 q 935 392 944 392 q 925 401 925 392 m 347 354 q 347 359 347 354 q 357 363 347 363 q 366 354 366 363 q 357 345 366 345 q 347 354 347 345 m 651 353 q 651 357 651 353 q 660 362 651 362 q 669 353 669 362 q 660 343 669 343 q 651 353 651 343 m 156 345 q 156 349 156 345 q 165 354 156 354 q 175 345 175 354 q 165 335 175 335 q 156 345 156 335 m 903 327 q 903 332 903 327 q 913 336 903 336 q 922 327 922 336 q 913 317 922 317 q 903 327 903 317 m 677 279 q 677 284 677 279 q 686 289 677 289 q 694 279 694 289 q 686 270 694 270 q 677 279 677 270 m 327 279 q 327 284 327 279 q 336 289 327 289 q 346 279 346 289 q 336 270 346 270 q 327 279 327 270 m 180 271 q 180 276 180 271 q 190 281 180 281 q 199 271 199 281 q 190 262 199 262 q 180 271 180 262 m 882 252 q 882 257 882 252 q 890 262 882 262 q 899 252 899 262 q 890 243 899 243 q 882 252 882 243 m 701 206 q 701 211 701 206 q 711 216 701 216 q 720 206 720 216 q 711 197 720 197 q 701 206 701 197 m 307 205 q 307 210 307 205 q 316 214 307 214 q 326 205 326 214 q 316 195 326 195 q 307 205 307 195 m 205 197 q 205 202 205 197 q 214 206 205 206 q 224 197 224 206 q 214 189 224 189 q 205 197 205 189 m 860 178 q 860 183 860 178 q 869 187 860 187 q 879 178 879 187 q 869 170 879 170 q 860 178 860 170 m 727 134 q 727 138 727 134 q 736 142 727 142 q 746 134 746 142 q 736 125 746 125 q 727 134 727 125 m 288 130 q 288 135 288 130 q 297 140 288 140 q 307 130 307 140 q 297 121 307 121 q 288 130 288 121 m 228 123 q 228 128 228 123 q 237 133 228 133 q 247 123 247 133 q 237 114 247 114 q 228 123 228 114 m 840 104 q 840 108 840 104 q 848 113 840 113 q 857 104 857 113 q 848 95 857 95 q 840 104 840 95 m 758 63 q 758 67 758 63 q 768 72 758 72 q 777 63 777 72 q 768 54 777 54 q 758 63 758 54 m 270 54 q 270 59 270 54 q 279 64 270 64 q 288 54 288 64 q 279 45 288 45 q 270 54 270 45 m 251 50 q 251 54 251 50 q 260 58 251 58 q 269 50 269 58 q 260 41 269 41 q 251 50 251 41 m 814 31 q 814 36 814 31 q 823 41 814 41 q 833 31 833 41 q 823 22 833 22 q 814 31 814 22 z "},"X":{"ha":807,"x_min":14,"x_max":681,"o":"m 628 945 q 628 950 628 945 q 637 955 628 955 q 647 945 647 955 q 637 936 647 936 q 628 945 628 936 m 33 894 q 33 899 33 894 q 42 903 33 903 q 52 894 52 903 q 42 884 52 884 q 33 894 33 884 m 583 882 q 583 887 583 882 q 593 891 583 891 q 602 882 602 891 q 593 873 602 873 q 583 882 583 873 m 66 825 q 66 829 66 825 q 75 834 66 834 q 84 825 84 834 q 75 815 84 815 q 66 825 66 815 m 538 819 q 538 824 538 819 q 548 829 538 829 q 557 819 557 829 q 548 810 557 810 q 538 819 538 810 m 107 759 q 107 763 107 759 q 117 768 107 768 q 126 759 126 768 q 117 750 126 750 q 107 759 107 750 m 494 757 q 494 762 494 757 q 503 766 494 766 q 511 757 511 766 q 503 747 511 747 q 494 757 494 747 m 153 697 q 153 702 153 697 q 163 707 153 707 q 172 697 172 707 q 163 688 172 688 q 153 697 153 688 m 448 694 q 448 699 448 694 q 457 704 448 704 q 467 694 467 704 q 457 685 467 685 q 448 694 448 685 m 203 639 q 203 644 203 639 q 213 648 203 648 q 222 639 222 648 q 213 629 222 629 q 203 639 203 629 m 403 632 q 403 637 403 632 q 412 642 403 642 q 420 632 420 642 q 412 623 420 623 q 403 632 403 623 m 256 582 q 256 587 256 582 q 266 591 256 591 q 275 582 275 591 q 266 572 275 572 q 256 582 256 572 m 357 570 q 357 574 357 570 q 366 579 357 579 q 376 570 376 579 q 366 560 376 560 q 357 570 357 560 m 311 516 q 311 520 311 516 q 319 525 311 525 q 328 516 328 525 q 319 507 328 507 q 311 516 311 507 m 361 468 q 361 473 361 468 q 370 477 361 477 q 380 468 380 477 q 370 458 380 458 q 361 468 361 458 m 267 444 q 267 448 267 444 q 276 453 267 453 q 285 444 285 453 q 276 434 285 434 q 267 444 267 434 m 408 407 q 408 412 408 407 q 418 416 408 416 q 427 407 427 416 q 418 397 427 397 q 408 407 408 397 m 222 380 q 222 385 222 380 q 231 389 222 389 q 240 380 240 389 q 231 372 240 372 q 222 380 222 372 m 452 343 q 452 348 452 343 q 461 353 452 353 q 471 343 471 353 q 461 334 471 334 q 452 343 452 334 m 178 317 q 178 321 178 317 q 187 326 178 326 q 197 317 197 326 q 187 308 197 308 q 178 317 178 308 m 492 277 q 492 281 492 277 q 501 286 492 286 q 510 277 510 286 q 501 267 510 267 q 492 277 492 267 m 136 252 q 136 257 136 252 q 144 262 136 262 q 153 252 153 262 q 144 243 153 243 q 136 252 136 243 m 532 210 q 532 215 532 210 q 541 220 532 220 q 549 210 549 220 q 541 201 549 201 q 532 210 532 201 m 94 188 q 94 192 94 188 q 102 197 94 197 q 111 188 111 197 q 102 179 111 179 q 94 188 94 179 m 571 144 q 571 149 571 144 q 580 153 571 153 q 589 144 589 153 q 580 134 589 134 q 571 144 571 134 m 53 122 q 53 127 53 122 q 62 132 53 132 q 71 122 71 132 q 62 113 71 113 q 53 122 53 113 m 613 79 q 613 83 613 79 q 622 88 613 88 q 631 79 631 88 q 622 69 631 69 q 613 79 613 69 m 14 56 q 14 60 14 56 q 22 65 14 65 q 31 56 31 65 q 22 46 31 46 q 14 56 14 46 m 662 20 q 662 25 662 20 q 671 30 662 30 q 681 20 681 30 q 671 11 681 11 q 662 20 662 11 z "},"Y":{"ha":788,"x_min":14,"x_max":662,"o":"m 14 945 q 14 950 14 945 q 22 955 14 955 q 31 945 31 955 q 22 936 31 936 q 14 945 14 936 m 643 936 q 643 941 643 936 q 652 945 643 945 q 662 936 662 945 q 652 926 662 926 q 643 936 643 926 m 56 882 q 56 886 56 882 q 65 891 56 891 q 75 882 75 891 q 65 872 75 872 q 56 882 56 872 m 605 869 q 605 873 605 869 q 614 878 605 878 q 624 869 624 878 q 614 860 624 860 q 605 869 605 860 m 99 817 q 99 821 99 817 q 108 826 99 826 q 117 817 117 826 q 108 807 117 807 q 99 817 99 807 m 562 804 q 562 809 562 804 q 571 814 562 814 q 581 804 581 814 q 571 795 581 795 q 562 804 562 795 m 141 751 q 141 756 141 751 q 150 761 141 761 q 159 751 159 761 q 150 742 159 742 q 141 751 141 742 m 515 743 q 515 747 515 743 q 525 751 515 751 q 534 743 534 751 q 525 734 534 734 q 515 743 515 734 m 182 686 q 182 691 182 686 q 191 696 182 696 q 201 686 201 696 q 191 677 201 677 q 182 686 182 677 m 469 681 q 469 686 469 681 q 478 690 469 690 q 487 681 487 690 q 478 671 487 671 q 469 681 469 671 m 222 621 q 222 626 222 621 q 232 631 222 631 q 241 621 241 631 q 232 612 241 612 q 222 621 222 612 m 423 618 q 423 623 423 618 q 433 628 423 628 q 442 618 442 628 q 433 609 442 609 q 423 618 423 609 m 263 555 q 263 560 263 555 q 273 564 263 564 q 282 555 282 564 q 273 547 282 547 q 263 555 263 547 m 381 553 q 381 558 381 553 q 391 563 381 563 q 400 553 400 563 q 391 544 400 544 q 381 553 381 544 m 304 489 q 304 493 304 489 q 313 498 304 498 q 321 489 321 498 q 313 480 321 480 q 304 489 304 480 m 346 485 q 346 489 346 485 q 355 494 346 494 q 365 485 365 494 q 355 476 365 476 q 346 485 346 476 m 330 411 q 330 416 330 411 q 339 420 330 420 q 349 411 349 420 q 339 401 349 401 q 330 411 330 401 m 330 334 q 330 338 330 334 q 339 343 330 343 q 349 334 349 343 q 339 324 349 324 q 330 334 330 324 m 330 256 q 330 261 330 256 q 339 266 330 266 q 349 256 349 266 q 339 247 349 247 q 330 256 330 247 m 330 179 q 330 184 330 179 q 339 189 330 189 q 349 179 349 189 q 339 170 349 170 q 330 179 330 170 m 330 102 q 330 106 330 102 q 339 111 330 111 q 349 102 349 111 q 339 92 349 92 q 330 102 330 92 m 330 24 q 330 29 330 24 q 339 34 330 34 q 349 24 349 34 q 339 15 349 15 q 330 24 330 15 z "},"Z":{"ha":777,"x_min":14,"x_max":652,"o":"m 414 952 q 414 957 414 952 q 423 962 414 962 q 433 952 433 962 q 423 943 433 943 q 414 952 414 943 m 492 951 q 492 956 492 951 q 501 960 492 960 q 510 951 510 960 q 501 941 510 941 q 492 951 492 941 m 338 949 q 338 953 338 949 q 347 958 338 958 q 355 949 355 958 q 347 940 355 940 q 338 949 338 940 m 260 944 q 260 949 260 944 q 269 954 260 954 q 278 944 278 954 q 269 935 278 935 q 260 944 260 935 m 568 941 q 568 946 568 941 q 578 951 568 951 q 587 941 587 951 q 578 932 587 932 q 568 941 568 932 m 183 940 q 183 945 183 940 q 192 949 183 949 q 201 940 201 949 q 192 930 201 930 q 183 940 183 930 m 28 939 q 28 943 28 939 q 37 948 28 948 q 46 939 46 948 q 37 929 46 929 q 28 939 28 929 m 106 937 q 106 942 106 937 q 115 947 106 947 q 123 937 123 947 q 115 928 123 928 q 106 937 106 928 m 633 913 q 633 918 633 913 q 643 922 633 922 q 652 913 652 922 q 643 905 652 905 q 633 913 633 905 m 589 849 q 589 854 589 849 q 598 859 589 859 q 608 849 608 859 q 598 840 608 840 q 589 849 589 840 m 544 787 q 544 791 544 787 q 553 796 544 796 q 563 787 563 796 q 553 777 563 777 q 544 787 544 777 m 496 725 q 496 729 496 725 q 506 734 496 734 q 515 725 515 734 q 506 716 515 716 q 496 725 496 716 m 449 665 q 449 669 449 665 q 458 674 449 674 q 468 665 468 674 q 458 655 468 655 q 449 665 449 655 m 401 604 q 401 608 401 604 q 411 613 401 613 q 420 604 420 613 q 411 594 420 594 q 401 604 401 594 m 353 543 q 353 548 353 543 q 362 552 353 552 q 372 543 372 552 q 362 534 372 534 q 353 543 353 534 m 307 481 q 307 486 307 481 q 315 491 307 491 q 324 481 324 491 q 315 472 324 472 q 307 481 307 472 m 262 419 q 262 424 262 419 q 271 429 262 429 q 279 419 279 429 q 271 410 279 410 q 262 419 262 410 m 217 355 q 217 360 217 355 q 227 365 217 365 q 236 355 236 365 q 227 346 236 346 q 217 355 217 346 m 174 292 q 174 296 174 292 q 183 301 174 301 q 193 292 193 301 q 183 282 193 282 q 174 292 174 282 m 132 227 q 132 231 132 227 q 141 236 132 236 q 151 227 151 236 q 141 217 151 217 q 132 227 132 217 m 90 161 q 90 166 90 161 q 99 171 90 171 q 109 161 109 171 q 99 152 109 152 q 90 161 90 152 m 49 96 q 49 101 49 96 q 58 106 49 106 q 68 96 68 106 q 58 87 68 87 q 49 96 49 87 m 308 39 q 308 44 308 39 q 317 49 308 49 q 327 39 327 49 q 317 30 327 30 q 308 39 308 30 m 385 38 q 385 43 385 38 q 395 47 385 47 q 404 38 404 47 q 395 28 404 28 q 385 38 385 28 m 231 37 q 231 42 231 37 q 240 46 231 46 q 250 37 250 46 q 240 28 250 28 q 231 37 231 28 m 463 34 q 463 39 463 34 q 472 43 463 43 q 481 34 481 43 q 472 24 481 24 q 463 34 463 24 m 153 33 q 153 38 153 33 q 163 42 153 42 q 172 33 172 42 q 163 24 172 24 q 153 33 153 24 m 540 28 q 540 33 540 28 q 549 38 540 38 q 557 28 557 38 q 549 19 557 19 q 540 28 540 19 m 14 28 q 14 33 14 28 q 22 38 14 38 q 31 28 31 38 q 22 19 31 19 q 14 28 14 19 m 76 26 q 76 31 76 26 q 85 35 76 35 q 95 26 95 35 q 85 16 95 16 q 76 26 76 16 m 616 20 q 616 25 616 20 q 625 30 616 30 q 635 20 635 30 q 625 11 635 11 q 616 20 616 11 z "},"[":{"ha":354,"x_min":14,"x_max":228,"o":"m 132 1031 q 132 1036 132 1031 q 141 1040 132 1040 q 151 1031 151 1040 q 141 1021 151 1021 q 132 1031 132 1021 m 54 1029 q 54 1034 54 1029 q 64 1039 54 1039 q 73 1029 73 1039 q 64 1020 73 1020 q 54 1029 54 1020 m 209 1028 q 209 1033 209 1028 q 218 1038 209 1038 q 228 1028 228 1038 q 218 1019 228 1019 q 209 1028 209 1019 m 20 985 q 20 990 20 985 q 30 994 20 994 q 39 985 39 994 q 30 977 39 977 q 20 985 20 977 m 20 908 q 20 912 20 908 q 30 917 20 917 q 39 908 39 917 q 30 899 39 899 q 20 908 20 899 m 19 831 q 19 835 19 831 q 28 840 19 840 q 38 831 38 840 q 28 822 38 822 q 19 831 19 822 m 18 753 q 18 758 18 753 q 27 762 18 762 q 37 753 37 762 q 27 745 37 745 q 18 753 18 745 m 16 676 q 16 681 16 676 q 26 685 16 685 q 35 676 35 685 q 26 667 35 667 q 16 676 16 667 m 15 599 q 15 603 15 599 q 24 608 15 608 q 34 599 34 608 q 24 590 34 590 q 15 599 15 590 m 14 522 q 14 526 14 522 q 23 530 14 530 q 33 522 33 530 q 23 513 33 513 q 14 522 14 513 m 14 444 q 14 449 14 444 q 22 453 14 453 q 31 444 31 453 q 22 435 31 435 q 14 444 14 435 m 14 367 q 14 371 14 367 q 22 376 14 376 q 31 367 31 376 q 22 358 31 358 q 14 367 14 358 m 14 290 q 14 294 14 290 q 23 298 14 298 q 33 290 33 298 q 23 281 33 281 q 14 290 14 281 m 15 212 q 15 217 15 212 q 24 221 15 221 q 34 212 34 221 q 24 203 34 203 q 15 212 15 203 m 16 135 q 16 139 16 135 q 26 144 16 144 q 35 135 35 144 q 26 126 35 126 q 16 135 16 126 m 19 58 q 19 62 19 58 q 28 66 19 66 q 37 58 37 66 q 28 49 37 49 q 19 58 19 49 m 132 18 q 132 23 132 18 q 141 27 132 27 q 151 18 151 27 q 141 9 151 9 q 132 18 132 9 m 56 16 q 56 21 56 16 q 64 26 56 26 q 73 16 73 26 q 64 7 73 7 q 56 16 56 7 m 209 15 q 209 20 209 15 q 218 24 209 24 q 228 15 228 24 q 218 5 228 5 q 209 15 209 5 z "},"\\":{"ha":557,"x_min":14,"x_max":431,"o":"m 14 1021 q 14 1026 14 1021 q 22 1031 14 1031 q 31 1021 31 1031 q 22 1012 31 1012 q 14 1021 14 1012 m 43 950 q 43 955 43 950 q 53 959 43 959 q 62 950 62 959 q 53 941 62 941 q 43 950 43 941 m 73 879 q 73 884 73 879 q 83 888 73 888 q 92 879 92 888 q 83 869 92 869 q 73 879 73 869 m 103 807 q 103 812 103 807 q 112 817 103 817 q 121 807 121 817 q 112 798 121 798 q 103 807 103 798 m 130 735 q 130 740 130 735 q 140 745 130 745 q 149 735 149 745 q 140 726 149 726 q 130 735 130 726 m 157 663 q 157 667 157 663 q 167 671 157 671 q 176 663 176 671 q 167 654 176 654 q 157 663 157 654 m 184 590 q 184 595 184 590 q 194 600 184 600 q 203 590 203 600 q 194 581 203 581 q 184 590 184 581 m 212 517 q 212 522 212 517 q 220 526 212 526 q 229 517 229 526 q 220 509 229 509 q 212 517 212 509 m 237 445 q 237 450 237 445 q 247 454 237 454 q 256 445 256 454 q 247 435 256 435 q 237 445 237 435 m 264 372 q 264 377 264 372 q 273 381 264 381 q 282 372 282 381 q 273 363 282 363 q 264 372 264 363 m 292 300 q 292 304 292 300 q 300 309 292 309 q 309 300 309 309 q 300 290 309 290 q 292 300 292 290 m 320 228 q 320 233 320 228 q 329 237 320 237 q 338 228 338 237 q 329 218 338 218 q 320 228 320 218 m 349 156 q 349 161 349 156 q 358 165 349 165 q 368 156 368 165 q 358 146 368 146 q 349 156 349 146 m 381 85 q 381 90 381 85 q 390 95 381 95 q 399 85 399 95 q 390 76 399 76 q 381 85 381 76 m 412 19 q 412 24 412 19 q 422 28 412 28 q 431 19 431 28 q 422 9 431 9 q 412 19 412 9 z "},"]":{"ha":354,"x_min":14,"x_max":228,"o":"m 91 1031 q 91 1036 91 1031 q 100 1040 91 1040 q 110 1031 110 1040 q 100 1021 110 1021 q 91 1031 91 1021 m 168 1029 q 168 1034 168 1029 q 178 1039 168 1039 q 187 1029 187 1039 q 178 1020 187 1020 q 168 1029 168 1020 m 14 1028 q 14 1033 14 1028 q 23 1038 14 1038 q 33 1028 33 1038 q 23 1019 33 1019 q 14 1028 14 1019 m 202 985 q 202 990 202 985 q 212 994 202 994 q 221 985 221 994 q 212 977 221 977 q 202 985 202 977 m 202 908 q 202 912 202 908 q 212 917 202 917 q 221 908 221 917 q 212 899 221 899 q 202 908 202 899 m 203 831 q 203 835 203 831 q 212 840 203 840 q 221 831 221 840 q 212 822 221 822 q 203 831 203 822 m 205 753 q 205 758 205 753 q 214 762 205 762 q 222 753 222 762 q 214 745 222 745 q 205 753 205 745 m 206 676 q 206 681 206 676 q 216 685 206 685 q 225 676 225 685 q 216 667 225 667 q 206 676 206 667 m 208 599 q 208 603 208 599 q 217 608 208 608 q 227 599 227 608 q 217 590 227 590 q 208 599 208 590 m 209 522 q 209 526 209 522 q 218 530 209 530 q 228 522 228 530 q 218 513 228 513 q 209 522 209 513 m 209 444 q 209 449 209 444 q 218 453 209 453 q 228 444 228 453 q 218 435 228 435 q 209 444 209 435 m 209 367 q 209 371 209 367 q 218 376 209 376 q 228 367 228 376 q 218 358 228 358 q 209 367 209 358 m 209 290 q 209 294 209 290 q 218 298 209 298 q 228 290 228 298 q 218 281 228 281 q 209 290 209 281 m 208 212 q 208 217 208 212 q 217 221 208 221 q 227 212 227 221 q 217 203 227 203 q 208 212 208 203 m 206 135 q 206 139 206 135 q 216 144 206 144 q 225 135 225 144 q 216 126 225 126 q 206 135 206 126 m 203 58 q 203 62 203 58 q 213 66 203 66 q 222 58 222 66 q 213 49 222 49 q 203 58 203 49 m 91 18 q 91 23 91 18 q 100 27 91 27 q 109 18 109 27 q 100 9 109 9 q 91 18 91 9 m 168 16 q 168 21 168 16 q 177 26 168 26 q 186 16 186 26 q 177 7 186 7 q 168 16 168 7 m 14 15 q 14 20 14 15 q 22 24 14 24 q 31 15 31 24 q 22 5 31 5 q 14 15 14 5 z "},"^":{"ha":309,"x_min":14,"x_max":183,"o":"m 76 920 q 76 924 76 920 q 85 929 76 929 q 95 920 95 929 q 85 910 95 910 q 76 920 76 910 m 107 913 q 107 918 107 913 q 117 922 107 922 q 126 913 126 922 q 117 905 126 905 q 107 913 107 905 m 43 850 q 43 855 43 850 q 52 860 43 860 q 61 850 61 860 q 52 841 61 841 q 43 850 43 841 m 138 843 q 138 847 138 843 q 148 852 138 852 q 157 843 157 852 q 148 834 157 834 q 138 843 138 834 m 14 779 q 14 784 14 779 q 22 788 14 788 q 31 779 31 788 q 22 770 31 770 q 14 779 14 770 m 164 770 q 164 775 164 770 q 174 780 164 780 q 183 770 183 780 q 174 761 183 761 q 164 770 164 761 z "},"_":{"ha":621,"x_min":14,"x_max":495,"o":"m 91 -72 q 91 -67 91 -72 q 100 -62 91 -62 q 109 -72 109 -62 q 100 -81 109 -81 q 91 -72 91 -81 m 168 -72 q 168 -67 168 -72 q 177 -62 168 -62 q 186 -72 186 -62 q 177 -81 186 -81 q 168 -72 168 -81 m 245 -73 q 245 -68 245 -73 q 254 -64 245 -64 q 263 -73 263 -64 q 254 -83 263 -83 q 245 -73 245 -83 m 14 -75 q 14 -70 14 -75 q 22 -65 14 -65 q 31 -75 31 -65 q 22 -84 31 -84 q 14 -75 14 -84 m 323 -76 q 323 -71 323 -76 q 332 -66 323 -66 q 340 -76 340 -66 q 332 -85 340 -85 q 323 -76 323 -85 m 477 -76 q 477 -71 477 -76 q 486 -66 477 -66 q 495 -76 495 -66 q 486 -85 495 -85 q 477 -76 477 -85 m 400 -77 q 400 -73 400 -77 q 409 -68 400 -68 q 418 -77 418 -68 q 409 -87 418 -87 q 400 -77 400 -87 z "},"`":{"ha":194,"x_min":14,"x_max":69,"o":"m 14 944 q 14 949 14 944 q 22 954 14 954 q 31 944 31 954 q 22 935 31 935 q 14 944 14 935 m 50 876 q 50 881 50 876 q 60 886 50 886 q 69 876 69 886 q 60 867 69 867 q 50 876 50 867 z "},"a":{"ha":654,"x_min":14,"x_max":529,"o":"m 281 720 q 281 725 281 720 q 290 730 281 730 q 300 720 300 730 q 290 711 300 711 q 281 720 281 711 m 358 712 q 358 717 358 712 q 368 722 358 722 q 377 712 377 722 q 368 703 377 703 q 358 712 358 703 m 205 708 q 205 713 205 708 q 214 718 205 718 q 224 708 224 718 q 214 699 224 699 q 205 708 205 699 m 429 682 q 429 686 429 682 q 438 690 429 690 q 448 682 448 690 q 438 673 448 673 q 429 682 429 673 m 134 677 q 134 682 134 677 q 144 686 134 686 q 153 677 153 686 q 144 669 153 669 q 134 677 134 669 m 76 628 q 76 633 76 628 q 85 637 76 637 q 95 628 95 637 q 85 618 95 618 q 76 628 76 618 m 483 627 q 483 632 483 627 q 492 636 483 636 q 502 627 502 636 q 492 618 502 618 q 483 627 483 618 m 39 561 q 39 565 39 561 q 48 570 39 570 q 57 561 57 570 q 48 552 57 552 q 39 561 39 552 m 510 555 q 510 560 510 555 q 519 564 510 564 q 528 555 528 564 q 519 547 528 547 q 510 555 510 547 m 510 478 q 510 483 510 478 q 519 487 510 487 q 529 478 529 487 q 519 469 529 469 q 510 478 510 469 m 338 439 q 338 443 338 439 q 347 448 338 448 q 357 439 357 448 q 347 430 357 430 q 338 439 338 430 m 260 437 q 260 442 260 437 q 270 446 260 446 q 279 437 279 446 q 270 429 279 429 q 260 437 260 429 m 415 431 q 415 435 415 431 q 425 439 415 439 q 434 431 434 439 q 425 422 434 422 q 415 431 415 422 m 184 425 q 184 429 184 425 q 194 434 184 434 q 203 425 203 434 q 194 415 203 415 q 184 425 184 415 m 495 407 q 495 412 495 407 q 505 416 495 416 q 514 407 514 416 q 505 397 514 397 q 495 407 495 397 m 113 397 q 113 402 113 397 q 122 407 113 407 q 132 397 132 407 q 122 388 132 388 q 113 397 113 388 m 52 350 q 52 355 52 350 q 61 359 52 359 q 71 350 71 359 q 61 340 71 340 q 52 350 52 340 m 494 324 q 494 329 494 324 q 503 334 494 334 q 513 324 513 334 q 503 315 513 315 q 494 324 494 315 m 16 282 q 16 287 16 282 q 26 292 16 292 q 35 282 35 292 q 26 273 35 273 q 16 282 16 273 m 487 248 q 487 252 487 248 q 496 256 487 256 q 506 248 506 256 q 496 239 506 239 q 487 248 487 239 m 14 205 q 14 210 14 205 q 22 214 14 214 q 31 205 31 214 q 22 195 31 195 q 14 205 14 195 m 481 170 q 481 175 481 170 q 490 179 481 179 q 499 170 499 179 q 490 161 499 161 q 481 170 481 161 m 39 133 q 39 138 39 133 q 48 142 39 142 q 57 133 57 142 q 48 123 57 123 q 39 133 39 123 m 477 94 q 477 98 477 94 q 487 103 477 103 q 496 94 496 103 q 487 84 496 84 q 477 94 477 84 m 87 73 q 87 78 87 73 q 96 83 87 83 q 106 73 106 83 q 96 64 106 64 q 87 73 87 64 m 456 68 q 456 73 456 68 q 465 77 456 77 q 473 68 473 77 q 465 58 473 58 q 456 68 456 58 m 382 42 q 382 47 382 42 q 392 52 382 52 q 401 42 401 52 q 392 33 401 33 q 382 42 382 33 m 155 35 q 155 40 155 35 q 163 45 155 45 q 172 35 172 45 q 163 26 172 26 q 155 35 155 26 m 307 24 q 307 29 307 24 q 316 34 307 34 q 326 24 326 34 q 316 15 326 15 q 307 24 307 15 m 229 20 q 229 25 229 20 q 239 30 229 30 q 248 20 248 30 q 239 11 248 11 q 229 20 229 11 m 477 16 q 477 20 477 16 q 487 24 477 24 q 496 16 496 24 q 487 7 496 7 q 477 16 477 7 z "},"b":{"ha":689,"x_min":14,"x_max":563,"o":"m 23 1019 q 23 1024 23 1019 q 33 1028 23 1028 q 42 1019 42 1028 q 33 1010 42 1010 q 23 1019 23 1010 m 34 943 q 34 947 34 943 q 43 952 34 952 q 53 943 53 952 q 43 933 53 933 q 34 943 34 933 m 35 865 q 35 870 35 865 q 44 875 35 875 q 53 865 53 875 q 44 856 53 856 q 35 865 35 856 m 33 788 q 33 793 33 788 q 42 798 33 798 q 52 788 52 798 q 42 779 52 779 q 33 788 33 779 m 244 719 q 244 724 244 719 q 254 728 244 728 q 263 719 263 728 q 254 709 263 709 q 244 719 244 709 m 321 714 q 321 719 321 714 q 331 723 321 723 q 340 714 340 723 q 331 705 340 705 q 321 714 321 705 m 28 711 q 28 715 28 711 q 38 720 28 720 q 47 711 47 720 q 38 701 47 701 q 28 711 28 701 m 170 703 q 170 708 170 703 q 178 712 170 712 q 187 703 187 712 q 178 694 187 694 q 170 703 170 694 m 395 690 q 395 694 395 690 q 404 699 395 699 q 414 690 414 699 q 404 681 414 681 q 395 690 395 681 m 102 667 q 102 671 102 667 q 111 675 102 675 q 121 667 121 675 q 111 658 121 658 q 102 667 102 658 m 458 646 q 458 651 458 646 q 468 655 458 655 q 477 646 477 655 q 468 637 477 637 q 458 646 458 637 m 26 633 q 26 638 26 633 q 35 643 26 643 q 45 633 45 643 q 35 624 45 624 q 26 633 26 624 m 52 608 q 52 613 52 608 q 61 617 52 617 q 71 608 71 617 q 61 600 71 600 q 52 608 52 600 m 506 586 q 506 591 506 586 q 515 595 506 595 q 525 586 525 595 q 515 576 525 576 q 506 586 506 576 m 26 556 q 26 561 26 556 q 35 566 26 566 q 43 556 43 566 q 35 547 43 547 q 26 556 26 547 m 27 536 q 27 541 27 536 q 37 545 27 545 q 46 536 46 545 q 37 526 46 526 q 27 536 27 526 m 534 514 q 534 519 534 514 q 544 524 534 524 q 553 514 553 524 q 544 505 553 505 q 534 514 534 505 m 20 479 q 20 484 20 479 q 30 488 20 488 q 39 479 39 488 q 30 471 39 471 q 20 479 20 471 m 545 438 q 545 443 545 438 q 554 448 545 448 q 563 438 563 448 q 554 429 563 429 q 545 438 545 429 m 15 402 q 15 407 15 402 q 24 411 15 411 q 34 402 34 411 q 24 393 34 393 q 15 402 15 393 m 540 361 q 540 366 540 361 q 549 370 540 370 q 559 361 559 370 q 549 351 559 351 q 540 361 540 351 m 14 325 q 14 329 14 325 q 22 334 14 334 q 31 325 31 334 q 22 316 31 316 q 14 325 14 316 m 522 286 q 522 290 522 286 q 532 294 522 294 q 541 286 541 294 q 532 277 541 277 q 522 286 522 277 m 14 248 q 14 252 14 248 q 23 256 14 256 q 33 248 33 256 q 23 239 33 239 q 14 248 14 239 m 495 214 q 495 218 495 214 q 504 222 495 222 q 513 214 513 222 q 504 205 513 205 q 495 214 495 205 m 15 170 q 15 175 15 170 q 24 179 15 179 q 34 170 34 179 q 24 161 34 161 q 15 170 15 161 m 23 152 q 23 157 23 152 q 33 161 23 161 q 42 152 42 161 q 33 142 42 142 q 23 152 23 142 m 456 146 q 456 151 456 146 q 465 156 456 156 q 475 146 475 156 q 465 137 475 137 q 456 146 456 137 m 66 96 q 66 101 66 96 q 76 106 66 106 q 85 96 85 106 q 76 87 85 87 q 66 96 66 87 m 16 93 q 16 97 16 93 q 26 102 16 102 q 35 93 35 102 q 26 84 35 84 q 16 93 16 84 m 406 88 q 406 93 406 88 q 415 98 406 98 q 425 88 425 98 q 415 79 425 79 q 406 88 406 79 m 126 46 q 126 51 126 46 q 135 56 126 56 q 144 46 144 56 q 135 37 144 37 q 126 46 126 37 m 345 41 q 345 45 345 41 q 354 50 345 50 q 363 41 363 50 q 354 31 363 31 q 345 41 345 31 m 16 16 q 16 20 16 16 q 26 24 16 24 q 35 16 35 24 q 26 7 35 7 q 16 16 16 7 m 195 15 q 195 20 195 15 q 205 24 195 24 q 214 15 214 24 q 205 5 214 5 q 195 15 195 5 m 273 14 q 273 18 273 14 q 282 23 273 23 q 292 14 292 23 q 282 4 292 4 q 273 14 273 4 z "},"c":{"ha":681,"x_min":14,"x_max":555,"o":"m 313 725 q 313 729 313 725 q 322 734 313 734 q 331 725 331 734 q 322 716 331 716 q 313 725 313 716 m 236 718 q 236 722 236 718 q 245 727 236 727 q 255 718 255 727 q 245 708 255 708 q 236 718 236 708 m 389 716 q 389 721 389 716 q 399 726 389 726 q 408 716 408 726 q 399 707 408 707 q 389 716 389 707 m 164 690 q 164 695 164 690 q 173 700 164 700 q 182 690 182 700 q 173 681 182 681 q 164 690 164 681 m 463 690 q 463 695 463 690 q 471 700 463 700 q 480 690 480 700 q 471 681 480 681 q 463 690 463 681 m 522 643 q 522 648 522 643 q 532 652 522 652 q 541 643 541 652 q 532 633 541 633 q 522 643 522 633 m 106 641 q 106 645 106 641 q 115 650 106 650 q 123 641 123 650 q 115 632 123 632 q 106 641 106 632 m 62 577 q 62 582 62 577 q 71 586 62 586 q 80 577 80 586 q 71 568 80 568 q 62 577 62 568 m 33 506 q 33 511 33 506 q 41 515 33 515 q 50 506 50 515 q 41 496 50 496 q 33 506 33 496 m 16 430 q 16 435 16 430 q 25 439 16 439 q 34 430 34 439 q 25 420 34 420 q 16 430 16 420 m 14 353 q 14 357 14 353 q 22 362 14 362 q 31 353 31 362 q 22 343 31 343 q 14 353 14 343 m 24 277 q 24 281 24 277 q 34 286 24 286 q 43 277 43 286 q 34 267 43 267 q 24 277 24 267 m 50 203 q 50 208 50 203 q 59 213 50 213 q 68 203 68 213 q 59 194 68 194 q 50 203 50 194 m 90 138 q 90 143 90 138 q 99 148 90 148 q 109 138 109 148 q 99 129 109 129 q 90 138 90 129 m 537 129 q 537 134 537 129 q 546 138 537 138 q 555 129 555 138 q 546 119 555 119 q 537 129 537 119 m 144 83 q 144 87 144 83 q 153 92 144 92 q 163 83 163 92 q 153 73 163 73 q 144 83 144 73 m 500 70 q 500 74 500 70 q 509 79 500 79 q 518 70 518 79 q 509 61 518 61 q 500 70 500 61 m 209 42 q 209 47 209 42 q 218 52 209 52 q 228 42 228 52 q 218 33 228 33 q 209 42 209 33 m 435 28 q 435 33 435 28 q 445 38 435 38 q 454 28 454 38 q 445 19 454 19 q 435 28 435 19 m 283 19 q 283 24 283 19 q 292 28 283 28 q 301 19 301 28 q 292 9 301 9 q 283 19 283 9 m 361 14 q 361 18 361 14 q 370 23 361 23 q 378 14 378 23 q 370 4 378 4 q 361 14 361 4 z "},"d":{"ha":757,"x_min":14,"x_max":632,"o":"m 610 1022 q 610 1026 610 1022 q 620 1031 610 1031 q 629 1022 629 1031 q 620 1013 629 1013 q 610 1022 610 1013 m 613 945 q 613 949 613 945 q 622 954 613 954 q 631 945 631 954 q 622 936 631 936 q 613 945 613 936 m 613 867 q 613 872 613 867 q 623 876 613 876 q 632 867 632 876 q 623 859 632 859 q 613 867 613 859 m 612 790 q 612 794 612 790 q 621 799 612 799 q 631 790 631 799 q 621 781 631 781 q 612 790 612 781 m 335 720 q 335 725 335 720 q 345 730 335 730 q 354 720 354 730 q 345 711 354 711 q 335 720 335 711 m 610 713 q 610 717 610 713 q 620 722 610 722 q 629 713 629 722 q 620 704 629 704 q 610 713 610 704 m 258 711 q 258 716 258 711 q 267 720 258 720 q 277 711 277 720 q 267 703 277 703 q 258 711 258 703 m 412 711 q 412 716 412 711 q 421 720 412 720 q 430 711 430 720 q 421 703 430 703 q 412 711 412 703 m 484 686 q 484 691 484 686 q 494 696 484 696 q 503 686 503 696 q 494 677 503 677 q 484 686 484 677 m 187 682 q 187 687 187 682 q 196 692 187 692 q 205 682 205 692 q 196 673 205 673 q 187 682 187 673 m 549 644 q 549 649 549 644 q 559 654 549 654 q 568 644 568 654 q 559 635 568 635 q 549 644 549 635 m 608 635 q 608 640 608 635 q 617 644 608 644 q 627 635 627 644 q 617 627 627 627 q 608 635 608 627 m 127 634 q 127 638 127 634 q 136 643 127 643 q 145 634 145 643 q 136 625 145 625 q 127 634 127 625 m 594 591 q 594 596 594 591 q 604 601 594 601 q 613 591 613 601 q 604 582 613 582 q 594 591 594 582 m 80 572 q 80 577 80 572 q 90 582 80 582 q 99 572 99 582 q 90 563 99 563 q 80 572 80 563 m 605 559 q 605 564 605 559 q 614 568 605 568 q 624 559 624 568 q 614 549 624 549 q 605 559 605 549 m 45 504 q 45 508 45 504 q 54 513 45 513 q 64 504 64 513 q 54 495 64 495 q 45 504 45 495 m 602 481 q 602 486 602 481 q 611 491 602 491 q 620 481 620 491 q 611 472 620 472 q 602 481 602 472 m 23 430 q 23 435 23 430 q 33 439 23 439 q 42 430 42 439 q 33 420 42 420 q 23 430 23 420 m 600 404 q 600 409 600 404 q 608 414 600 414 q 617 404 617 414 q 608 395 617 395 q 600 404 600 395 m 14 353 q 14 358 14 353 q 22 362 14 362 q 31 353 31 362 q 22 345 31 345 q 14 353 14 345 m 597 327 q 597 332 597 327 q 606 336 597 336 q 614 327 614 336 q 606 317 614 317 q 597 327 597 317 m 18 276 q 18 280 18 276 q 26 285 18 285 q 35 276 35 285 q 26 267 35 267 q 18 276 18 267 m 594 250 q 594 254 594 250 q 604 259 594 259 q 613 250 613 259 q 604 240 613 240 q 594 250 594 240 m 37 201 q 37 206 37 201 q 46 210 37 210 q 56 201 56 210 q 46 193 56 193 q 37 201 37 193 m 587 180 q 587 184 587 180 q 597 189 587 189 q 606 180 606 189 q 597 171 606 171 q 587 180 587 171 m 72 133 q 72 138 72 133 q 81 142 72 142 q 91 133 91 142 q 81 123 91 123 q 72 133 72 123 m 543 121 q 543 125 543 121 q 551 130 543 130 q 560 121 560 130 q 551 111 560 111 q 543 121 543 111 m 593 95 q 593 100 593 95 q 602 104 593 104 q 612 95 612 104 q 602 85 612 85 q 593 95 593 85 m 123 76 q 123 81 123 76 q 133 85 123 85 q 142 76 142 85 q 133 66 142 66 q 123 76 123 66 m 484 71 q 484 75 484 71 q 493 80 484 80 q 502 71 502 80 q 493 61 502 61 q 484 71 484 61 m 415 35 q 415 40 415 35 q 425 45 415 45 q 434 35 434 45 q 425 26 434 26 q 415 35 415 26 m 189 35 q 189 39 189 35 q 198 43 189 43 q 208 35 208 43 q 198 26 208 26 q 189 35 189 26 m 594 19 q 594 24 594 19 q 604 28 594 28 q 613 19 613 28 q 604 9 613 9 q 594 19 594 9 m 340 16 q 340 21 340 16 q 350 26 340 26 q 359 16 359 26 q 350 7 359 7 q 340 16 340 7 m 263 15 q 263 20 263 15 q 273 24 263 24 q 282 15 282 24 q 273 5 282 5 q 263 15 263 5 z "},"e":{"ha":716,"x_min":14,"x_max":590,"o":"m 294 722 q 294 726 294 722 q 303 731 294 731 q 312 722 312 731 q 303 712 312 712 q 294 722 294 712 m 372 720 q 372 725 372 720 q 380 730 372 730 q 389 720 389 730 q 380 711 389 711 q 372 720 372 711 m 220 701 q 220 706 220 701 q 229 711 220 711 q 239 701 239 711 q 229 692 239 692 q 220 701 220 692 m 445 697 q 445 702 445 697 q 454 707 445 707 q 463 697 463 707 q 454 688 463 688 q 445 697 445 688 m 153 661 q 153 665 153 661 q 163 670 153 670 q 172 661 172 670 q 163 651 172 651 q 153 661 153 651 m 506 651 q 506 656 506 651 q 515 661 506 661 q 525 651 525 661 q 515 642 525 642 q 506 651 506 642 m 100 605 q 100 610 100 605 q 110 614 100 614 q 119 605 119 614 q 110 595 119 595 q 100 605 100 595 m 548 587 q 548 591 548 587 q 557 595 548 595 q 566 587 566 595 q 557 578 566 578 q 548 587 548 578 m 60 540 q 60 545 60 540 q 69 549 60 549 q 79 540 79 549 q 69 530 79 530 q 60 540 60 530 m 564 511 q 564 516 564 511 q 573 521 564 521 q 582 511 582 521 q 573 502 582 502 q 564 511 564 502 m 30 469 q 30 473 30 469 q 39 477 30 477 q 47 469 47 477 q 39 460 47 460 q 30 469 30 460 m 557 434 q 557 439 557 434 q 567 444 557 444 q 576 434 576 444 q 567 425 576 425 q 557 434 557 425 m 494 401 q 494 406 494 401 q 503 411 494 411 q 511 401 511 411 q 503 392 511 392 q 494 401 494 392 m 14 393 q 14 398 14 393 q 22 403 14 403 q 31 393 31 403 q 22 384 31 384 q 14 393 14 384 m 416 392 q 416 397 416 392 q 426 401 416 401 q 435 392 435 401 q 426 382 435 382 q 416 392 416 382 m 339 387 q 339 392 339 387 q 349 396 339 396 q 358 387 358 396 q 349 378 358 378 q 339 387 339 378 m 262 385 q 262 390 262 385 q 271 395 262 395 q 281 385 281 395 q 271 376 281 376 q 262 385 262 376 m 184 384 q 184 389 184 384 q 194 393 184 393 q 203 384 203 393 q 194 374 203 374 q 184 384 184 374 m 107 382 q 107 387 107 382 q 117 392 107 392 q 126 382 126 392 q 117 373 126 373 q 107 382 107 373 m 30 380 q 30 385 30 380 q 39 389 30 389 q 49 380 49 389 q 39 372 49 372 q 30 380 30 372 m 14 316 q 14 321 14 316 q 22 326 14 326 q 31 316 31 326 q 22 307 31 307 q 14 316 14 307 m 30 241 q 30 245 30 241 q 39 250 30 250 q 49 241 49 250 q 39 232 49 232 q 30 241 30 232 m 65 172 q 65 176 65 172 q 75 180 65 180 q 84 172 84 180 q 75 163 84 163 q 65 172 65 163 m 572 151 q 572 156 572 151 q 581 160 572 160 q 590 151 590 160 q 581 142 590 142 q 572 151 572 142 m 115 113 q 115 118 115 113 q 124 122 115 122 q 133 113 133 122 q 124 104 133 104 q 115 113 115 104 m 534 84 q 534 89 534 84 q 544 94 534 94 q 553 84 553 94 q 544 75 553 75 q 534 84 534 75 m 178 67 q 178 72 178 67 q 186 76 178 76 q 195 67 195 76 q 186 58 195 58 q 178 67 178 58 m 473 38 q 473 43 473 38 q 483 47 473 47 q 492 38 492 47 q 483 28 492 28 q 473 38 473 28 m 247 35 q 247 40 247 35 q 256 45 247 45 q 266 35 266 45 q 256 26 266 26 q 247 35 247 26 m 321 18 q 321 22 321 18 q 331 27 321 27 q 340 18 340 27 q 331 8 340 8 q 321 18 321 8 m 400 16 q 400 21 400 16 q 409 26 400 26 q 418 16 418 26 q 409 7 418 7 q 400 16 400 7 z "},"f":{"ha":556,"x_min":14,"x_max":431,"o":"m 340 1029 q 340 1034 340 1029 q 350 1039 340 1039 q 359 1029 359 1039 q 350 1020 359 1020 q 340 1029 340 1020 m 263 1024 q 263 1029 263 1024 q 273 1034 263 1034 q 282 1024 282 1034 q 273 1015 282 1015 q 263 1024 263 1015 m 412 1002 q 412 1007 412 1002 q 422 1012 412 1012 q 431 1002 431 1012 q 422 993 431 993 q 412 1002 412 993 m 198 985 q 198 989 198 985 q 207 994 198 994 q 216 985 216 994 q 207 975 216 975 q 198 985 198 975 m 151 924 q 151 928 151 924 q 160 933 151 933 q 170 924 170 933 q 160 914 170 914 q 151 924 151 914 m 122 852 q 122 857 122 852 q 132 861 122 861 q 141 852 141 861 q 132 842 141 842 q 122 852 122 842 m 113 776 q 113 781 113 776 q 121 785 113 785 q 130 776 130 785 q 121 766 130 766 q 113 776 113 766 m 117 699 q 117 703 117 699 q 125 708 117 708 q 134 699 134 708 q 125 689 134 689 q 117 699 117 689 m 90 662 q 90 667 90 662 q 99 671 90 671 q 109 662 109 671 q 99 652 109 652 q 90 662 90 652 m 321 661 q 321 666 321 661 q 331 670 321 670 q 340 661 340 670 q 331 652 340 652 q 321 661 321 652 m 167 659 q 167 664 167 659 q 176 669 167 669 q 186 659 186 669 q 176 650 186 650 q 167 659 167 650 m 244 656 q 244 661 244 656 q 254 666 244 666 q 263 656 263 666 q 254 647 263 647 q 244 656 244 647 m 14 654 q 14 659 14 654 q 22 663 14 663 q 31 654 31 663 q 22 644 31 644 q 14 654 14 644 m 119 621 q 119 626 119 621 q 128 631 119 631 q 137 621 137 631 q 128 612 137 612 q 119 621 119 612 m 121 544 q 121 549 121 544 q 130 553 121 553 q 140 544 140 553 q 130 534 140 534 q 121 544 121 534 m 123 467 q 123 471 123 467 q 133 476 123 476 q 142 467 142 476 q 133 457 142 457 q 123 467 123 457 m 126 389 q 126 394 126 389 q 136 399 126 399 q 145 389 145 399 q 136 380 145 380 q 126 389 126 380 m 129 312 q 129 317 129 312 q 138 321 129 321 q 148 312 148 321 q 138 302 148 302 q 129 312 129 302 m 132 235 q 132 239 132 235 q 141 244 132 244 q 151 235 151 244 q 141 225 151 225 q 132 235 132 225 m 134 157 q 134 162 134 157 q 144 167 134 167 q 153 157 153 167 q 144 148 153 148 q 134 157 134 148 m 137 80 q 137 85 137 80 q 146 90 137 90 q 155 80 155 90 q 146 71 155 71 q 137 80 137 71 z "},"g":{"ha":675,"x_min":14,"x_max":549,"o":"m 323 724 q 323 728 323 724 q 332 732 323 732 q 340 724 340 732 q 332 715 340 715 q 323 724 323 715 m 530 715 q 530 720 530 715 q 540 724 530 724 q 549 715 549 724 q 540 705 549 705 q 530 715 530 705 m 247 711 q 247 715 247 711 q 256 720 247 720 q 264 711 264 720 q 256 701 264 701 q 247 711 247 701 m 397 709 q 397 713 397 709 q 407 718 397 718 q 416 709 416 718 q 407 700 416 700 q 397 709 397 700 m 178 677 q 178 682 178 677 q 186 686 178 686 q 195 677 195 686 q 186 667 195 667 q 178 677 178 667 m 460 665 q 460 669 460 665 q 469 674 460 674 q 479 665 479 674 q 469 655 479 655 q 460 665 460 655 m 518 638 q 518 643 518 638 q 528 647 518 647 q 537 638 537 647 q 528 629 537 629 q 518 638 518 629 m 118 627 q 118 632 118 627 q 127 636 118 636 q 137 627 137 636 q 127 618 137 618 q 118 627 118 618 m 502 600 q 502 605 502 600 q 511 609 502 609 q 521 600 521 609 q 511 591 521 591 q 502 600 502 591 m 72 566 q 72 570 72 566 q 81 575 72 575 q 90 566 90 575 q 81 556 90 556 q 72 566 72 556 m 513 562 q 513 566 513 562 q 522 571 513 571 q 532 562 532 571 q 522 552 532 552 q 513 562 513 552 m 38 496 q 38 501 38 496 q 47 506 38 506 q 57 496 57 506 q 47 487 57 487 q 38 496 38 487 m 513 484 q 513 488 513 484 q 522 492 513 492 q 530 484 530 492 q 522 475 530 475 q 513 484 513 475 m 19 422 q 19 427 19 422 q 28 431 19 431 q 38 422 38 431 q 28 412 38 412 q 19 422 19 412 m 514 407 q 514 412 514 407 q 524 416 514 416 q 533 407 533 416 q 524 397 533 397 q 514 407 514 397 m 14 345 q 14 349 14 345 q 22 354 14 354 q 31 345 31 354 q 22 335 31 335 q 14 345 14 335 m 517 330 q 517 334 517 330 q 526 339 517 339 q 536 330 536 339 q 526 320 536 320 q 517 330 517 320 m 20 267 q 20 272 20 267 q 30 277 20 277 q 39 267 39 277 q 30 258 39 258 q 20 267 20 258 m 519 252 q 519 257 519 252 q 529 262 519 262 q 538 252 538 262 q 529 243 538 243 q 519 252 519 243 m 41 193 q 41 197 41 193 q 50 202 41 202 q 60 193 60 202 q 50 183 60 183 q 41 193 41 183 m 515 172 q 515 176 515 172 q 525 180 515 180 q 534 172 534 180 q 525 163 534 163 q 515 172 515 163 m 76 125 q 76 130 76 125 q 85 134 76 134 q 95 125 95 134 q 85 115 95 115 q 76 125 76 115 m 479 102 q 479 106 479 102 q 488 111 479 111 q 496 102 496 111 q 488 92 496 92 q 479 102 479 92 m 517 98 q 517 102 517 98 q 526 107 517 107 q 534 98 534 107 q 526 88 534 88 q 517 98 517 88 m 127 67 q 127 72 127 67 q 137 76 127 76 q 146 67 146 76 q 137 58 146 58 q 127 67 127 58 m 418 56 q 418 60 418 56 q 427 65 418 65 q 435 56 435 65 q 427 46 435 46 q 418 56 418 46 m 194 28 q 194 32 194 28 q 203 37 194 37 q 212 28 212 37 q 203 19 212 19 q 194 28 194 19 m 346 27 q 346 32 346 27 q 355 37 346 37 q 363 27 363 37 q 355 18 363 18 q 346 27 346 18 m 507 20 q 507 25 507 20 q 517 30 507 30 q 526 20 526 30 q 517 11 526 11 q 507 20 507 11 m 270 14 q 270 19 270 14 q 279 23 270 23 q 288 14 288 23 q 279 5 288 5 q 270 14 270 5 m 491 -55 q 491 -51 491 -55 q 500 -46 491 -46 q 509 -55 509 -46 q 500 -64 509 -64 q 491 -55 491 -64 m 463 -127 q 463 -122 463 -127 q 472 -118 463 -118 q 481 -127 481 -118 q 472 -136 481 -136 q 463 -127 463 -136 m 34 -131 q 34 -126 34 -131 q 43 -122 34 -122 q 53 -131 53 -122 q 43 -140 53 -140 q 34 -131 34 -140 m 419 -189 q 419 -185 419 -189 q 428 -180 419 -180 q 437 -189 437 -180 q 428 -198 437 -198 q 419 -189 419 -198 m 77 -194 q 77 -189 77 -194 q 87 -184 77 -184 q 96 -194 96 -184 q 87 -203 96 -203 q 77 -194 77 -203 m 358 -237 q 358 -233 358 -237 q 368 -228 358 -228 q 377 -237 377 -228 q 368 -247 377 -247 q 358 -237 358 -247 m 137 -243 q 137 -238 137 -243 q 146 -233 137 -233 q 156 -243 156 -233 q 146 -252 156 -252 q 137 -243 137 -252 m 288 -267 q 288 -262 288 -267 q 296 -258 288 -258 q 305 -267 305 -258 q 296 -275 305 -275 q 288 -267 288 -275 m 210 -269 q 210 -264 210 -269 q 219 -259 210 -259 q 228 -269 228 -259 q 219 -278 228 -278 q 210 -269 210 -278 z "},"h":{"ha":655,"x_min":14,"x_max":529,"o":"m 14 1022 q 14 1026 14 1022 q 22 1031 14 1031 q 31 1022 31 1031 q 22 1013 31 1013 q 14 1022 14 1013 m 14 945 q 14 949 14 945 q 22 954 14 954 q 31 945 31 954 q 22 936 31 936 q 14 945 14 936 m 14 867 q 14 872 14 867 q 22 876 14 876 q 31 867 31 876 q 22 859 31 859 q 14 867 14 859 m 14 790 q 14 794 14 790 q 22 799 14 799 q 31 790 31 799 q 22 781 31 781 q 14 790 14 781 m 281 725 q 281 729 281 725 q 290 734 281 734 q 300 725 300 734 q 290 716 300 716 q 281 725 281 716 m 14 713 q 14 717 14 713 q 22 722 14 722 q 31 713 31 722 q 22 704 31 704 q 14 713 14 704 m 206 709 q 206 714 206 709 q 216 719 206 719 q 225 709 225 719 q 216 700 225 700 q 206 709 206 700 m 357 708 q 357 713 357 708 q 366 718 357 718 q 374 708 374 718 q 366 699 374 699 q 357 708 357 699 m 140 670 q 140 675 140 670 q 149 680 140 680 q 159 670 159 680 q 149 661 159 661 q 140 670 140 661 m 418 662 q 418 667 418 662 q 427 671 418 671 q 435 662 435 671 q 427 652 435 652 q 418 662 418 652 m 14 635 q 14 640 14 635 q 22 644 14 644 q 31 635 31 644 q 22 627 31 627 q 14 635 14 627 m 85 615 q 85 620 85 615 q 95 624 85 624 q 104 615 104 624 q 95 606 104 606 q 85 615 85 606 m 463 599 q 463 603 463 599 q 471 608 463 608 q 480 599 480 608 q 471 590 480 590 q 463 599 463 590 m 14 558 q 14 563 14 558 q 22 567 14 567 q 31 558 31 567 q 22 549 31 549 q 14 558 14 549 m 43 551 q 43 555 43 551 q 52 560 43 560 q 61 551 61 560 q 52 541 61 541 q 43 551 43 541 m 491 528 q 491 532 491 528 q 500 537 491 537 q 510 528 510 537 q 500 518 510 518 q 491 528 491 518 m 15 479 q 15 484 15 479 q 24 488 15 488 q 34 479 34 488 q 24 469 34 469 q 15 479 15 469 m 507 452 q 507 456 507 452 q 516 461 507 461 q 525 452 525 461 q 516 442 525 442 q 507 452 507 442 m 14 404 q 14 408 14 404 q 22 412 14 412 q 31 404 31 412 q 22 395 31 395 q 14 404 14 395 m 511 374 q 511 379 511 374 q 520 384 511 384 q 529 374 529 384 q 520 365 529 365 q 511 374 511 365 m 14 326 q 14 331 14 326 q 22 335 14 335 q 31 326 31 335 q 22 317 31 317 q 14 326 14 317 m 507 297 q 507 302 507 297 q 517 307 507 307 q 526 297 526 307 q 517 288 526 288 q 507 297 507 288 m 14 249 q 14 253 14 249 q 22 258 14 258 q 31 249 31 258 q 22 240 31 240 q 14 249 14 240 m 499 220 q 499 225 499 220 q 509 229 499 229 q 518 220 518 229 q 509 212 518 212 q 499 220 499 212 m 14 172 q 14 176 14 172 q 22 180 14 180 q 31 172 31 180 q 22 163 31 163 q 14 172 14 163 m 488 144 q 488 149 488 144 q 498 153 488 153 q 507 144 507 153 q 498 134 507 134 q 488 144 488 134 m 14 94 q 14 99 14 94 q 22 103 14 103 q 31 94 31 103 q 22 85 31 85 q 14 94 14 85 m 477 68 q 477 73 477 68 q 486 77 477 77 q 495 68 495 77 q 486 58 495 58 q 477 68 477 58 m 14 19 q 14 24 14 19 q 22 28 14 28 q 31 19 31 28 q 22 9 31 9 q 14 19 14 9 z "},"i":{"ha":172,"x_min":14,"x_max":46,"o":"m 14 950 q 14 957 14 950 q 26 963 14 963 q 39 950 39 963 q 26 937 39 937 q 14 950 14 937 m 14 715 q 14 720 14 715 q 23 724 14 724 q 33 715 33 724 q 23 707 33 707 q 14 715 14 707 m 19 638 q 19 643 19 638 q 28 647 19 647 q 38 638 38 647 q 28 629 38 629 q 19 638 19 629 m 24 561 q 24 565 24 561 q 33 570 24 570 q 42 561 42 570 q 33 552 42 552 q 24 561 24 552 m 27 484 q 27 489 27 484 q 36 494 27 494 q 45 484 45 494 q 36 475 45 475 q 27 484 27 475 m 27 407 q 27 412 27 407 q 37 416 27 416 q 46 407 46 416 q 37 397 46 397 q 27 407 27 397 m 27 329 q 27 333 27 329 q 36 338 27 338 q 45 329 45 338 q 36 320 45 320 q 27 329 27 320 m 24 252 q 24 257 24 252 q 34 262 24 262 q 43 252 43 262 q 34 243 43 243 q 24 252 24 243 m 20 175 q 20 180 20 175 q 30 184 20 184 q 39 175 39 184 q 30 165 39 165 q 20 175 20 165 m 16 98 q 16 102 16 98 q 26 107 16 107 q 35 98 35 107 q 26 88 35 88 q 16 98 16 88 m 14 20 q 14 25 14 20 q 23 30 14 30 q 33 20 33 30 q 23 11 33 11 q 14 20 14 11 z "},"j":{"ha":479,"x_min":14,"x_max":354,"o":"m 327 950 q 327 957 327 950 q 340 963 327 963 q 354 950 354 963 q 340 937 354 937 q 327 950 327 937 m 327 715 q 327 720 327 715 q 336 724 327 724 q 346 715 346 724 q 336 707 346 707 q 327 715 327 707 m 324 638 q 324 643 324 638 q 334 647 324 647 q 343 638 343 647 q 334 629 343 629 q 324 638 324 629 m 326 561 q 326 565 326 561 q 334 570 326 570 q 343 561 343 570 q 334 552 343 552 q 326 561 326 552 m 327 484 q 327 488 327 484 q 336 492 327 492 q 345 484 345 492 q 336 475 345 475 q 327 484 327 475 m 328 406 q 328 411 328 406 q 338 415 328 415 q 347 406 347 415 q 338 397 347 397 q 328 406 328 397 m 331 329 q 331 333 331 329 q 340 338 331 338 q 350 329 350 338 q 340 320 350 320 q 331 329 331 320 m 334 252 q 334 256 334 252 q 342 260 334 260 q 351 252 351 260 q 342 243 351 243 q 334 252 334 243 m 334 174 q 334 179 334 174 q 343 183 334 183 q 353 174 353 183 q 343 165 353 165 q 334 174 334 165 m 334 97 q 334 101 334 97 q 343 106 334 106 q 353 97 353 106 q 343 88 353 88 q 334 97 334 88 m 331 20 q 331 24 331 20 q 340 28 331 28 q 350 20 350 28 q 340 11 350 11 q 331 20 331 11 m 324 -57 q 324 -52 324 -57 q 334 -47 324 -47 q 343 -57 343 -47 q 334 -66 343 -66 q 324 -57 324 -66 m 309 -133 q 309 -128 309 -133 q 319 -123 309 -123 q 328 -133 328 -123 q 319 -142 328 -142 q 309 -133 309 -142 m 14 -203 q 14 -198 14 -203 q 22 -194 14 -194 q 31 -203 31 -194 q 22 -212 31 -212 q 14 -203 14 -212 m 279 -204 q 279 -200 279 -204 q 289 -195 279 -195 q 298 -204 298 -195 q 289 -213 298 -213 q 279 -204 279 -213 m 75 -248 q 75 -243 75 -248 q 84 -239 75 -239 q 94 -248 94 -239 q 84 -258 94 -258 q 75 -248 75 -258 m 224 -256 q 224 -252 224 -256 q 233 -247 224 -247 q 243 -256 243 -247 q 233 -266 243 -266 q 224 -256 224 -266 m 148 -271 q 148 -266 148 -271 q 157 -262 148 -262 q 167 -271 167 -262 q 157 -279 167 -279 q 148 -271 148 -279 z "},"k":{"ha":647,"x_min":14,"x_max":522,"o":"m 33 1022 q 33 1026 33 1022 q 42 1031 33 1031 q 52 1022 52 1031 q 42 1013 52 1013 q 33 1022 33 1013 m 33 945 q 33 949 33 945 q 41 954 33 954 q 50 945 50 954 q 41 936 50 936 q 33 945 33 936 m 30 867 q 30 872 30 867 q 39 876 30 876 q 49 867 49 876 q 39 859 49 859 q 30 867 30 859 m 28 790 q 28 794 28 790 q 37 799 28 799 q 46 790 46 799 q 37 781 46 781 q 28 790 28 781 m 26 713 q 26 717 26 713 q 35 722 26 722 q 45 713 45 722 q 35 704 45 704 q 26 713 26 704 m 408 696 q 408 701 408 696 q 418 705 408 705 q 427 696 427 705 q 418 686 427 686 q 408 696 408 686 m 23 636 q 23 641 23 636 q 33 646 23 646 q 42 636 42 646 q 33 627 42 627 q 23 636 23 627 m 362 633 q 362 638 362 633 q 372 643 362 643 q 381 633 381 643 q 372 624 381 624 q 362 633 362 624 m 311 576 q 311 581 311 576 q 320 586 311 586 q 330 576 330 586 q 320 567 330 567 q 311 576 311 567 m 20 559 q 20 564 20 559 q 30 568 20 568 q 39 559 39 568 q 30 549 39 549 q 20 559 20 549 m 255 522 q 255 527 255 522 q 264 532 255 532 q 274 522 274 532 q 264 513 274 513 q 255 522 255 513 m 18 481 q 18 486 18 481 q 27 491 18 491 q 37 481 37 491 q 27 472 37 472 q 18 481 18 472 m 198 471 q 198 475 198 471 q 208 480 198 480 q 217 471 217 480 q 208 461 217 461 q 198 471 198 461 m 191 453 q 191 458 191 453 q 201 463 191 463 q 210 453 210 463 q 201 444 210 444 q 191 453 191 444 m 140 420 q 140 424 140 420 q 149 429 140 429 q 159 420 159 429 q 149 411 159 411 q 140 420 140 411 m 16 404 q 16 409 16 404 q 25 414 16 414 q 34 404 34 414 q 25 395 34 395 q 16 404 16 395 m 232 395 q 232 400 232 395 q 241 404 232 404 q 250 395 250 404 q 241 387 250 387 q 232 395 232 387 m 80 370 q 80 375 80 370 q 90 380 80 380 q 99 370 99 380 q 90 361 99 361 q 80 370 80 361 m 275 332 q 275 336 275 332 q 285 340 275 340 q 294 332 294 340 q 285 323 294 323 q 275 332 275 323 m 19 323 q 19 328 19 323 q 28 332 19 332 q 37 323 37 332 q 28 313 37 313 q 19 323 19 313 m 320 269 q 320 273 320 269 q 330 278 320 278 q 339 269 339 278 q 330 259 339 259 q 320 269 320 259 m 14 250 q 14 254 14 250 q 23 259 14 259 q 33 250 33 259 q 23 240 33 240 q 14 250 14 240 m 365 205 q 365 210 365 205 q 374 214 365 214 q 384 205 384 214 q 374 197 384 197 q 365 205 365 197 m 14 172 q 14 177 14 172 q 22 182 14 182 q 31 172 31 182 q 22 163 31 163 q 14 172 14 163 m 410 142 q 410 147 410 142 q 419 152 410 152 q 429 142 429 152 q 419 133 429 133 q 410 142 410 133 m 14 95 q 14 100 14 95 q 23 104 14 104 q 33 95 33 104 q 23 85 33 85 q 14 95 14 85 m 456 81 q 456 85 456 81 q 465 90 456 90 q 475 81 475 90 q 465 72 475 72 q 456 81 456 72 m 503 19 q 503 24 503 19 q 513 28 503 28 q 522 19 522 28 q 513 9 522 9 q 503 19 503 9 m 15 19 q 15 24 15 19 q 24 28 15 28 q 34 19 34 28 q 24 9 34 9 q 15 19 15 9 z "},"l":{"ha":212,"x_min":14,"x_max":87,"o":"m 53 1022 q 53 1026 53 1022 q 62 1031 53 1031 q 72 1022 72 1031 q 62 1013 72 1013 q 53 1022 53 1013 m 54 945 q 54 949 54 945 q 64 954 54 954 q 73 945 73 954 q 64 936 73 936 q 54 945 54 936 m 52 867 q 52 872 52 867 q 61 876 52 876 q 71 867 71 876 q 61 859 71 859 q 52 867 52 859 m 46 791 q 46 795 46 791 q 56 800 46 800 q 65 791 65 800 q 56 781 65 781 q 46 791 46 781 m 39 713 q 39 718 39 713 q 49 723 39 723 q 58 713 58 723 q 49 704 58 704 q 39 713 39 704 m 33 636 q 33 641 33 636 q 41 646 33 646 q 50 636 50 646 q 41 627 50 627 q 33 636 33 627 m 24 559 q 24 564 24 559 q 34 568 24 568 q 43 559 43 568 q 34 551 43 551 q 24 559 24 551 m 19 483 q 19 488 19 483 q 28 492 19 492 q 38 483 38 492 q 28 473 38 473 q 19 483 19 473 m 15 406 q 15 410 15 406 q 24 415 15 415 q 34 406 34 415 q 24 396 34 396 q 15 406 15 396 m 14 328 q 14 333 14 328 q 22 338 14 338 q 31 328 31 338 q 22 319 31 319 q 14 328 14 319 m 15 251 q 15 256 15 251 q 24 260 15 260 q 34 251 34 260 q 24 241 34 241 q 15 251 15 241 m 20 174 q 20 178 20 174 q 30 183 20 183 q 39 174 39 183 q 30 164 39 164 q 20 174 20 164 m 34 98 q 34 102 34 98 q 43 107 34 107 q 52 98 52 107 q 43 88 52 88 q 34 98 34 88 m 68 31 q 68 35 68 31 q 77 39 68 39 q 87 31 87 39 q 77 22 87 22 q 68 31 68 22 z "},"m":{"ha":909,"x_min":14,"x_max":783,"o":"m 244 724 q 244 729 244 724 q 253 734 244 734 q 262 724 262 734 q 253 715 262 715 q 244 724 244 715 m 637 719 q 637 724 637 719 q 647 728 637 728 q 656 719 656 728 q 647 709 656 709 q 637 719 637 709 m 33 715 q 33 720 33 715 q 42 724 33 724 q 52 715 52 724 q 42 707 52 707 q 33 715 33 707 m 168 713 q 168 717 168 713 q 177 722 168 722 q 186 713 186 722 q 177 704 186 704 q 168 713 168 704 m 560 713 q 560 717 560 713 q 570 722 560 722 q 579 713 579 722 q 570 704 579 704 q 560 713 560 704 m 313 693 q 313 698 313 693 q 322 703 313 703 q 331 693 331 703 q 322 684 331 684 q 313 693 313 684 m 704 683 q 704 687 704 683 q 713 692 704 692 q 723 683 723 692 q 713 674 723 674 q 704 683 704 674 m 491 679 q 491 683 491 679 q 500 688 491 688 q 510 679 510 688 q 500 670 510 670 q 491 679 491 670 m 100 675 q 100 679 100 675 q 110 684 100 684 q 119 675 119 684 q 110 666 119 666 q 100 675 100 666 m 23 639 q 23 644 23 639 q 33 648 23 648 q 42 639 42 648 q 33 629 42 629 q 23 639 23 629 m 359 632 q 359 637 359 632 q 368 642 359 642 q 377 632 377 642 q 368 623 377 623 q 359 632 359 623 m 434 627 q 434 632 434 627 q 444 636 434 636 q 453 627 453 636 q 444 618 453 618 q 434 627 434 618 m 41 625 q 41 630 41 625 q 50 635 41 635 q 60 625 60 635 q 50 616 60 616 q 41 625 41 616 m 741 616 q 741 621 741 616 q 750 625 741 625 q 760 616 760 625 q 750 606 760 606 q 741 616 741 606 m 16 562 q 16 566 16 562 q 26 571 16 571 q 35 562 35 571 q 26 552 35 552 q 16 562 16 552 m 392 562 q 392 566 392 562 q 401 571 392 571 q 410 562 410 571 q 401 552 410 552 q 392 562 392 552 m 755 540 q 755 545 755 540 q 765 549 755 549 q 774 540 774 549 q 765 530 774 530 q 755 540 755 530 m 403 484 q 403 489 403 484 q 412 494 403 494 q 422 484 422 494 q 412 475 422 475 q 403 484 403 475 m 14 484 q 14 489 14 484 q 23 494 14 494 q 33 484 33 494 q 23 475 33 475 q 14 484 14 475 m 762 463 q 762 467 762 463 q 772 472 762 472 q 781 463 781 472 q 772 453 781 453 q 762 463 762 453 m 408 408 q 408 412 408 408 q 417 416 408 416 q 426 408 426 416 q 417 399 426 399 q 408 408 408 399 m 14 407 q 14 412 14 407 q 22 416 14 416 q 31 407 31 416 q 22 397 31 397 q 14 407 14 397 m 764 385 q 764 390 764 385 q 773 395 764 395 q 783 385 783 395 q 773 376 783 376 q 764 385 764 376 m 407 330 q 407 334 407 330 q 416 339 407 339 q 425 330 425 339 q 416 320 425 320 q 407 330 407 320 m 15 330 q 15 334 15 330 q 24 339 15 339 q 34 330 34 339 q 24 320 34 320 q 15 330 15 320 m 762 308 q 762 313 762 308 q 772 317 762 317 q 781 308 781 317 q 772 298 781 298 q 762 308 762 298 m 403 253 q 403 257 403 253 q 412 262 403 262 q 422 253 422 262 q 412 244 422 244 q 403 253 403 244 m 18 252 q 18 257 18 252 q 27 262 18 262 q 37 252 37 262 q 27 243 37 243 q 18 252 18 243 m 757 231 q 757 236 757 231 q 766 240 757 240 q 776 231 776 240 q 766 222 776 222 q 757 231 757 222 m 399 176 q 399 180 399 176 q 408 184 399 184 q 418 176 418 184 q 408 167 418 167 q 399 176 399 167 m 23 175 q 23 180 23 175 q 32 184 23 184 q 41 175 41 184 q 32 165 41 165 q 23 175 23 165 m 749 155 q 749 159 749 155 q 758 164 749 164 q 768 155 768 164 q 758 145 768 145 q 749 155 749 145 m 399 98 q 399 103 399 98 q 408 107 399 107 q 416 98 416 107 q 408 90 416 90 q 399 98 399 90 m 28 98 q 28 103 28 98 q 37 107 28 107 q 46 98 46 107 q 37 90 46 90 q 28 98 28 90 m 738 77 q 738 82 738 77 q 747 87 738 87 q 757 77 757 87 q 747 68 757 68 q 738 77 738 68 m 34 21 q 34 25 34 21 q 43 30 34 30 q 52 21 52 30 q 43 12 52 12 q 34 21 34 12 m 400 21 q 400 25 400 21 q 410 30 400 30 q 419 21 419 30 q 410 12 419 12 q 400 21 400 12 z "},"n":{"ha":654,"x_min":14,"x_max":529,"o":"m 251 723 q 251 728 251 723 q 260 732 251 732 q 270 723 270 732 q 260 713 270 713 q 251 723 251 713 m 328 719 q 328 724 328 719 q 338 728 328 728 q 347 719 347 728 q 338 709 347 709 q 328 719 328 709 m 14 718 q 14 722 14 718 q 22 727 14 727 q 31 718 31 727 q 22 708 31 708 q 14 718 14 708 m 179 696 q 179 701 179 696 q 189 705 179 705 q 198 696 198 705 q 189 688 198 688 q 179 696 179 688 m 396 682 q 396 687 396 682 q 405 692 396 692 q 414 682 414 692 q 405 673 414 673 q 396 682 396 673 m 118 650 q 118 655 118 650 q 127 659 118 659 q 136 650 136 659 q 127 642 136 642 q 118 650 118 642 m 14 640 q 14 645 14 640 q 22 650 14 650 q 31 640 31 650 q 22 631 31 631 q 14 640 14 631 m 446 625 q 446 630 446 625 q 456 635 446 635 q 465 625 465 635 q 456 616 465 616 q 446 625 446 616 m 68 591 q 68 596 68 591 q 77 601 68 601 q 85 591 85 601 q 77 582 85 582 q 68 591 68 582 m 14 563 q 14 568 14 563 q 22 572 14 572 q 31 563 31 572 q 22 553 31 553 q 14 563 14 553 m 481 556 q 481 561 481 556 q 491 566 481 566 q 500 556 500 566 q 491 547 500 547 q 481 556 481 547 m 30 524 q 30 528 30 524 q 39 533 30 533 q 49 524 49 533 q 39 514 49 514 q 30 524 30 514 m 14 486 q 14 490 14 486 q 22 495 14 495 q 31 486 31 495 q 22 476 31 476 q 14 486 14 476 m 502 481 q 502 486 502 481 q 511 491 502 491 q 521 481 521 491 q 511 472 521 472 q 502 481 502 472 m 14 408 q 14 413 14 408 q 22 418 14 418 q 31 408 31 418 q 22 399 31 399 q 14 408 14 399 m 510 405 q 510 409 510 405 q 519 414 510 414 q 529 405 529 414 q 519 396 529 396 q 510 405 510 396 m 14 331 q 14 336 14 331 q 22 340 14 340 q 31 331 31 340 q 22 321 31 321 q 14 331 14 321 m 510 328 q 510 332 510 328 q 519 336 510 336 q 528 328 528 336 q 519 319 528 319 q 510 328 510 319 m 14 254 q 14 258 14 254 q 22 263 14 263 q 31 254 31 263 q 22 244 31 244 q 14 254 14 244 m 503 251 q 503 256 503 251 q 513 260 503 260 q 522 251 522 260 q 513 241 522 241 q 503 251 503 241 m 14 176 q 14 181 14 176 q 22 186 14 186 q 31 176 31 186 q 22 167 31 167 q 14 176 14 167 m 492 174 q 492 178 492 174 q 502 183 492 183 q 511 174 511 183 q 502 164 511 164 q 492 174 492 164 m 14 99 q 14 104 14 99 q 22 109 14 109 q 31 99 31 109 q 22 90 31 90 q 14 99 14 90 m 481 98 q 481 102 481 98 q 491 107 481 107 q 500 98 500 107 q 491 88 500 88 q 481 98 481 88 m 14 22 q 14 26 14 22 q 22 31 14 31 q 31 22 31 31 q 22 12 31 12 q 14 22 14 12 m 471 21 q 471 25 471 21 q 480 30 471 30 q 490 21 490 30 q 480 12 490 12 q 471 21 471 12 z "},"o":{"ha":715,"x_min":14,"x_max":590,"o":"m 243 728 q 243 732 243 728 q 252 736 243 736 q 262 728 262 736 q 252 719 262 719 q 243 728 243 719 m 320 721 q 320 725 320 721 q 330 730 320 730 q 339 721 339 730 q 330 712 339 712 q 320 721 320 712 m 170 706 q 170 710 170 706 q 179 715 170 715 q 189 706 189 715 q 179 697 189 697 q 170 706 170 697 m 392 692 q 392 696 392 692 q 401 701 392 701 q 410 692 410 701 q 401 682 410 682 q 392 692 392 682 m 110 659 q 110 663 110 659 q 119 667 110 667 q 127 659 127 667 q 119 650 127 650 q 110 659 110 650 m 453 646 q 453 650 453 646 q 463 655 453 655 q 472 646 472 655 q 463 636 472 636 q 453 646 453 636 m 65 595 q 65 600 65 595 q 75 605 65 605 q 84 595 84 605 q 75 586 84 586 q 65 595 65 586 m 502 586 q 502 591 502 586 q 511 595 502 595 q 521 586 521 595 q 511 576 521 576 q 502 586 502 576 m 35 524 q 35 529 35 524 q 45 533 35 533 q 54 524 54 533 q 45 515 54 515 q 35 524 35 515 m 538 518 q 538 523 538 518 q 547 528 538 528 q 556 518 556 528 q 547 509 556 509 q 538 518 538 509 m 19 449 q 19 454 19 449 q 28 458 19 458 q 37 449 37 458 q 28 439 37 439 q 19 449 19 439 m 562 444 q 562 449 562 444 q 570 453 562 453 q 579 444 579 453 q 570 435 579 435 q 562 444 562 435 m 14 388 q 14 393 14 388 q 22 397 14 397 q 31 388 31 397 q 22 378 31 378 q 14 388 14 378 m 571 368 q 571 372 571 368 q 581 377 571 377 q 590 368 590 377 q 581 358 590 358 q 571 368 571 358 m 22 311 q 22 315 22 311 q 31 320 22 320 q 39 311 39 320 q 31 301 39 301 q 22 311 22 301 m 567 290 q 567 295 567 290 q 576 300 567 300 q 586 290 586 300 q 576 281 586 281 q 567 290 567 281 m 45 237 q 45 242 45 237 q 54 247 45 247 q 62 237 62 247 q 54 228 62 228 q 45 237 45 228 m 548 216 q 548 220 548 216 q 557 225 548 225 q 567 216 567 225 q 557 206 567 206 q 548 216 548 206 m 79 168 q 79 173 79 168 q 88 178 79 178 q 98 168 98 178 q 88 159 98 159 q 79 168 79 159 m 514 146 q 514 151 514 146 q 523 156 514 156 q 532 146 532 156 q 523 137 532 137 q 514 146 514 137 m 125 106 q 125 111 125 106 q 134 115 125 115 q 144 106 144 115 q 134 98 144 98 q 125 106 125 98 m 464 88 q 464 93 464 88 q 473 98 464 98 q 483 88 483 98 q 473 79 483 79 q 464 88 464 79 m 183 56 q 183 60 183 56 q 193 65 183 65 q 202 56 202 65 q 193 46 202 46 q 183 56 183 46 m 401 42 q 401 47 401 42 q 411 52 401 52 q 420 42 420 52 q 411 33 420 33 q 401 42 401 33 m 252 22 q 252 27 252 22 q 262 31 252 31 q 271 22 271 31 q 262 14 271 14 q 252 22 252 14 m 330 17 q 330 21 330 17 q 339 26 330 26 q 349 17 349 26 q 339 8 349 8 q 330 17 330 8 z "},"p":{"ha":686,"x_min":14,"x_max":560,"o":"m 236 719 q 236 724 236 719 q 245 728 236 728 q 255 719 255 728 q 245 709 255 709 q 236 719 236 709 m 313 718 q 313 722 313 718 q 323 727 313 727 q 332 718 332 727 q 323 708 332 708 q 313 718 313 708 m 34 717 q 34 721 34 717 q 43 726 34 726 q 52 717 52 726 q 43 708 52 708 q 34 717 34 708 m 163 697 q 163 702 163 697 q 172 707 163 707 q 182 697 182 707 q 172 688 182 688 q 163 697 163 688 m 387 690 q 387 695 387 690 q 395 700 387 700 q 404 690 404 700 q 395 681 404 681 q 387 690 387 681 m 96 656 q 96 661 96 656 q 106 666 96 666 q 115 656 115 666 q 106 647 115 647 q 96 656 96 647 m 444 640 q 444 645 444 640 q 453 650 444 650 q 463 640 463 650 q 453 631 463 631 q 444 640 444 631 m 34 640 q 34 644 34 640 q 43 648 34 648 q 53 640 53 648 q 43 631 53 631 q 34 640 34 631 m 46 599 q 46 603 46 599 q 56 608 46 608 q 65 599 65 608 q 56 590 65 590 q 46 599 46 590 m 486 575 q 486 580 486 575 q 494 585 486 585 q 503 575 503 585 q 494 566 503 566 q 486 575 486 566 m 34 562 q 34 567 34 562 q 43 571 34 571 q 53 562 53 571 q 43 553 53 553 q 34 562 34 553 m 515 504 q 515 508 515 504 q 524 513 515 513 q 533 504 533 513 q 524 495 533 495 q 515 504 515 495 m 33 485 q 33 489 33 485 q 42 494 33 494 q 52 485 52 494 q 42 476 52 476 q 33 485 33 476 m 534 429 q 534 434 534 429 q 544 438 534 438 q 553 429 553 438 q 544 420 553 420 q 534 429 534 420 m 30 408 q 30 412 30 408 q 39 416 30 416 q 49 408 49 416 q 39 399 49 399 q 30 408 30 399 m 543 353 q 543 357 543 353 q 551 362 543 362 q 560 353 560 362 q 551 343 560 343 q 543 353 543 343 m 27 330 q 27 335 27 330 q 37 339 27 339 q 46 330 46 339 q 37 321 46 321 q 27 330 27 321 m 536 275 q 536 280 536 275 q 545 285 536 285 q 555 275 555 285 q 545 266 555 266 q 536 275 536 266 m 24 253 q 24 257 24 253 q 33 262 24 262 q 42 253 42 262 q 33 244 42 244 q 24 253 24 244 m 517 201 q 517 205 517 201 q 526 210 517 210 q 536 201 536 210 q 526 191 536 191 q 517 201 517 191 m 20 176 q 20 180 20 176 q 30 184 20 184 q 39 176 39 184 q 30 167 39 167 q 20 176 20 167 m 27 133 q 27 138 27 133 q 37 142 27 142 q 46 133 46 142 q 37 123 46 123 q 27 133 27 123 m 481 132 q 481 136 481 132 q 491 141 481 141 q 500 132 500 141 q 491 122 500 122 q 481 132 481 122 m 18 98 q 18 103 18 98 q 27 107 18 107 q 37 98 37 107 q 27 90 37 90 q 18 98 18 90 m 80 77 q 80 81 80 77 q 90 85 80 85 q 99 77 99 85 q 90 68 99 68 q 80 77 80 68 m 431 73 q 431 78 431 73 q 441 83 431 83 q 450 73 450 83 q 441 64 450 64 q 431 73 431 64 m 366 33 q 366 37 366 33 q 376 42 366 42 q 385 33 385 42 q 376 23 385 23 q 366 33 366 23 m 144 33 q 144 37 144 33 q 153 42 144 42 q 161 33 161 42 q 153 23 161 23 q 144 33 144 23 m 15 21 q 15 25 15 21 q 24 30 15 30 q 34 21 34 30 q 24 12 34 12 q 15 21 15 12 m 293 8 q 293 13 293 8 q 302 18 293 18 q 312 8 312 18 q 302 -1 312 -1 q 293 8 293 -1 m 216 7 q 216 12 216 7 q 225 16 216 16 q 235 7 235 16 q 225 -1 235 -1 q 216 7 216 -1 m 14 -56 q 14 -52 14 -56 q 23 -47 14 -47 q 33 -56 33 -47 q 23 -65 33 -65 q 14 -56 14 -65 m 14 -134 q 14 -129 14 -134 q 22 -125 14 -125 q 31 -134 31 -125 q 22 -142 31 -142 q 14 -134 14 -142 m 14 -211 q 14 -207 14 -211 q 23 -202 14 -202 q 33 -211 33 -202 q 23 -220 33 -220 q 14 -211 14 -220 z "}}}
